SplineFontDB: 3.0
FontName: ManifontGroteskBoldItalic
FullName: Manifont Grotesk Bold Italic
FamilyName: Manifont Grotesk Bold Italic
Weight: Bold
Copyright: Copyright (c) 2009 by interstices.io. All rights reserved.
Version: 001.001
ItalicAngle: 0
UnderlinePosition: -100
UnderlineWidth: 50
Ascent: 750
Descent: 250
InvalidEm: 0
sfntRevision: 0x00010000
LayerCount: 3
Layer: 0 0 "Arri+AOgA-re" 1
Layer: 1 0 "Avant" 0
Layer: 2 0 "Arri+AOgA-re 2" 1
XUID: [1021 809 1845788318 11021393]
StyleMap: 0x0000
FSType: 4
OS2Version: 2
OS2_WeightWidthSlopeOnly: 0
OS2_UseTypoMetrics: 1
CreationTime: 1251911308
ModificationTime: 1465836301
PfmFamily: 81
TTFWeight: 400
TTFWidth: 5
LineGap: 9
VLineGap: 0
Panose: 0 0 0 0 0 0 0 0 0 0
OS2TypoAscent: 750
OS2TypoAOffset: 0
OS2TypoDescent: -250
OS2TypoDOffset: 0
OS2TypoLinegap: 0
OS2WinAscent: 1035
OS2WinAOffset: 0
OS2WinDescent: 377
OS2WinDOffset: 0
HheadAscent: 750
HheadAOffset: 0
HheadDescent: -250
HheadDOffset: 0
OS2SubXSize: 700
OS2SubYSize: 650
OS2SubXOff: 0
OS2SubYOff: 140
OS2SupXSize: 700
OS2SupYSize: 650
OS2SupXOff: 0
OS2SupYOff: 477
OS2StrikeYSize: 50
OS2StrikeYPos: 250
OS2CapHeight: 720
OS2XHeight: 520
OS2Vendor: 'pyrs'
OS2CodePages: 00000007.00000000
OS2UnicodeRanges: 8000020f.0000000a.00000000.00000000
Lookup: 4 0 1 "'liga' Ligatures standard lookups0" { "'liga' Ligatures standard lookups0-1"  } ['liga' ('DFLT' <'dflt' > 'cyrl' <'dflt' > 'latn' <'dflt' > ) ]
Lookup: 258 0 0 "'kern' Horizontal Kerning in Latin lookup 0" { "'kern' Horizontal Kerning in Latin lookup 0 subtable"  } ['kern' ('latn' <'dflt' > ) ]
MarkAttachClasses: 1
DEI: 91125
LangName: 1033 "" "" "Bold italic" "" "ManifontGroteskBoldItalic" "" "" "Manifont Grotesk Bold Italic is a trademark of interstices.io." "Interstices.io" "Alexandre Liziard and +AMkA-tienne Ozeray" "Copyright (c) 2009 by Alexandre Liziard and +AMkA-tienne Ozeray. All rights reserved. Based on Vremena Grotesk by abstrkt." "" "http://interstices.io" "" "" "" "Manifont Grotesk" "Bold Italic"

StartChar: uniFB02
Encoding: 64258 64258 0
Width: 675
Flags: HW
LayerCount: 3
Fore
SplineSet
14.1513671875 -84.771484375 m 1
 74.8095703125 -51.44921875 l 1
 101.170898438 22.3642578125 l 1
 175.158203125 401.05859375 l 1
 102.423828125 401.05859375 l 1
 102.517578125 520.0625 l 1
 195.776367188 520.0625 l 1
 199.7734375 546.495117188 l 1
 266.213867188 685.473632812 l 1
 400.69921875 740.278320312 l 1
 467.96875 735.090820312 l 1
 508.51953125 725.275390625 l 1
 473.145507812 599.599609375 l 1
 418.130859375 609.720703125 l 1
 375.1171875 595.967773438 l 1
 349.766601562 548.416992188 l 1
 345.598632812 520.029296875 l 1
 563.601229205 520.029296875 l 1
 604.75 735 l 1
 749.75 707.25 l 1
 611.25 -15 l 1
 466.5 12.75 l 1
 540.821824499 401.024414062 l 1
 322.565429688 401.024414062 l 1
 238.459960938 -33.78515625 l 1
 166.6953125 -167.166992188 l 1
 25.2900390625 -219.497070312 l 1
 -52.5 -207.422851562 l 1
 -18.5859375 -78.673828125 l 1
 14.1513671875 -84.771484375 l 1
EndSplineSet
Validated: 1
LCarets2: 1 0
Ligature2: "'liga' Ligatures standard lookups0-1" f l
EndChar

StartChar: uniFB03
Encoding: 64259 64259 1
Width: 1087
Flags: HW
LayerCount: 3
Back
SplineSet
14.1513671875 -84.771484375 m 1
 74.8095703125 -51.44921875 l 1
 101.170898438 22.3642578125 l 1
 175.158203125 401.05859375 l 1
 102.423828125 401.05859375 l 1
 102.517578125 520.0625 l 1
 195.776367188 520.0625 l 1
 199.7734375 546.495117188 l 1
 266.213867188 685.473632812 l 1
 400.69921875 740.278320312 l 1
 467.96875 735.090820312 l 1
 508.51953125 725.275390625 l 1
 473.145507812 599.599609375 l 1
 418.130859375 609.720703125 l 1
 375.1171875 595.967773438 l 1
 349.766601562 548.416992188 l 1
 345.598632812 520.029296875 l 1
 438.013671875 520.029296875 l 1
 438.005859375 401.024414062 l 1
 322.565429688 401.024414062 l 1
 238.459960938 -33.78515625 l 1
 166.6953125 -167.166992188 l 1
 25.2900390625 -219.497070312 l 1
 -52.5 -207.422851562 l 1
 -18.5859375 -78.673828125 l 1
 -18.5849609375 -78.673828125 l 1
 14.1513671875 -84.771484375 l 1
EndSplineSet
Fore
SplineSet
14.1513671875 -84.771484375 m 5
 74.8095703125 -51.44921875 l 5
 101.170898438 22.3642578125 l 5
 175.158203125 401.05859375 l 5
 102.423828125 401.05859375 l 5
 102.517578125 520.0625 l 5
 195.776367188 520.0625 l 5
 199.7734375 546.495117188 l 5
 266.213867188 685.473632812 l 5
 400.69921875 740.278320312 l 5
 467.96875 735.090820312 l 5
 508.51953125 725.275390625 l 5
 473.145507812 599.599609375 l 5
 418.130859375 609.720703125 l 5
 375.1171875 595.967773438 l 5
 349.766601562 548.416992188 l 5
 345.598632812 520.029296875 l 5
 609.852539062 520.0625 l 5
 613.849609375 546.495117188 l 5
 680.290039062 685.473632812 l 5
 814.775390625 740.278320312 l 5
 882.044921875 735.090820312 l 5
 922.595703125 725.275390625 l 5
 887.221679688 599.599609375 l 5
 832.20703125 609.720703125 l 5
 789.193359375 595.967773438 l 5
 763.842773438 548.416992188 l 5
 759.674804688 520.029296875 l 5
 1127.07617188 520 l 5
 1025.07617188 -15 l 5
 880.076171875 11 l 5
 954.403320312 401.024414062 l 5
 736.641601562 401.024414062 l 5
 652.536132812 -33.78515625 l 5
 580.771484375 -167.166992188 l 5
 439.366210938 -219.497070312 l 5
 361.576171875 -207.422851562 l 5
 395.490234375 -78.673828125 l 5
 428.227539062 -84.771484375 l 5
 488.885742188 -51.44921875 l 5
 515.247070312 22.3642578125 l 5
 589.234375 401.05859375 l 5
 322.565429688 401.024414062 l 5
 238.459960938 -33.78515625 l 5
 166.6953125 -167.166992188 l 5
 25.2900390625 -219.497070312 l 5
 -52.5 -207.422851562 l 5
 -18.5859375 -78.673828125 l 5
 14.1513671875 -84.771484375 l 5
1052.57617188 732.75 m 5
 1131.31835938 717.047851562 l 5
 1163.60644531 673.553710938 l 5
 1148.87890625 599.431640625 l 5
 1102.42382812 571.568359375 l 5
 1023.68066406 587.271484375 l 5
 991.392578125 630.764648438 l 5
 1006.12011719 704.88671875 l 5
 1052.57617188 732.75 l 5
EndSplineSet
Validated: 1
Ligature2: "'liga' Ligatures standard lookups0-1" f f i
EndChar

StartChar: uniFB04
Encoding: 64260 64260 2
Width: 1087
Flags: HW
LayerCount: 3
Back
SplineSet
14.1513671875 -84.771484375 m 5
 74.8095703125 -51.44921875 l 5
 101.170898438 22.3642578125 l 5
 175.158203125 401.05859375 l 5
 102.423828125 401.05859375 l 5
 102.517578125 520.0625 l 5
 195.776367188 520.0625 l 5
 199.7734375 546.495117188 l 5
 266.213867188 685.473632812 l 5
 400.69921875 740.278320312 l 5
 467.96875 735.090820312 l 5
 508.51953125 725.275390625 l 5
 473.145507812 599.599609375 l 5
 418.130859375 609.720703125 l 5
 375.1171875 595.967773438 l 5
 349.766601562 548.416992188 l 5
 345.598632812 520.029296875 l 5
 609.852539062 520.0625 l 5
 613.849609375 546.495117188 l 5
 680.290039062 685.473632812 l 5
 814.775390625 740.278320312 l 5
 882.044921875 735.090820312 l 5
 922.595703125 725.275390625 l 5
 887.221679688 599.599609375 l 5
 832.20703125 609.720703125 l 5
 789.193359375 595.967773438 l 5
 763.842773438 548.416992188 l 5
 759.674804688 520.029296875 l 5
 1127.07617188 520 l 5
 1025.07617188 -15 l 5
 880.076171875 11 l 5
 954.403320312 401.024414062 l 5
 736.641601562 401.024414062 l 5
 652.536132812 -33.78515625 l 5
 580.771484375 -167.166992188 l 5
 439.366210938 -219.497070312 l 5
 361.576171875 -207.422851562 l 5
 395.490234375 -78.673828125 l 5
 428.227539062 -84.771484375 l 5
 488.885742188 -51.44921875 l 5
 515.247070312 22.3642578125 l 5
 589.234375 401.05859375 l 5
 322.565429688 401.024414062 l 5
 238.459960938 -33.78515625 l 5
 166.6953125 -167.166992188 l 5
 25.2900390625 -219.497070312 l 5
 -52.5 -207.422851562 l 5
 -18.5859375 -78.673828125 l 5
 14.1513671875 -84.771484375 l 5
1052.57617188 732.75 m 5
 1131.31835938 717.047851562 l 5
 1163.60644531 673.553710938 l 5
 1148.87890625 599.431640625 l 5
 1102.42382812 571.568359375 l 5
 1023.68066406 587.271484375 l 5
 991.392578125 630.764648438 l 5
 1006.12011719 704.88671875 l 5
 1052.57617188 732.75 l 5
EndSplineSet
Fore
SplineSet
1025 -15 m 1
 880.25 12.75 l 1
 954.571824499 401.024414062 l 1
 736.641601562 401.024414062 l 1
 652.536132812 -33.78515625 l 1
 580.771484375 -167.166992188 l 1
 439.366210938 -219.497070312 l 1
 361.576171875 -207.422851562 l 1
 395.490234375 -78.673828125 l 1
 428.227539062 -84.771484375 l 1
 488.885742188 -51.44921875 l 1
 515.247070312 22.3642578125 l 1
 589.234375 401.05859375 l 1
 322.565429688 401.024414062 l 1
 238.459960938 -33.78515625 l 1
 166.6953125 -167.166992188 l 1
 25.2900390625 -219.497070312 l 1
 -52.5 -207.422851562 l 1
 -18.5859375 -78.673828125 l 1
 14.1513671875 -84.771484375 l 1
 74.8095703125 -51.44921875 l 1
 101.170898438 22.3642578125 l 1
 175.158203125 401.05859375 l 1
 102.423828125 401.05859375 l 1
 102.517578125 520.0625 l 1
 195.776367188 520.0625 l 1
 199.7734375 546.495117188 l 1
 266.213867188 685.473632812 l 1
 400.69921875 740.278320312 l 1
 467.96875 735.090820312 l 1
 508.51953125 725.275390625 l 1
 473.145507812 599.599609375 l 1
 418.130859375 609.720703125 l 1
 375.1171875 595.967773438 l 1
 349.766601562 548.416992188 l 1
 345.598632812 520.029296875 l 1
 609.852539062 520.0625 l 1
 613.849609375 546.495117188 l 1
 680.290039062 685.473632812 l 1
 814.775390625 740.278320312 l 1
 882.044921875 735.090820312 l 1
 922.595703125 725.275390625 l 1
 887.221679688 599.599609375 l 1
 832.20703125 609.720703125 l 1
 789.193359375 595.967773438 l 1
 763.842773438 548.416992188 l 1
 759.674804688 520.029296875 l 1
 977.346575905 520.004986962 l 1
 1018.5 735 l 1
 1163.5 707.25 l 1
 1025 -15 l 1
EndSplineSet
Validated: 1
Ligature2: "'liga' Ligatures standard lookups0-1" f f l
EndChar

StartChar: afii10069
Encoding: 1076 1076 4
Width: 1000
Flags: HM
LayerCount: 3
Back
SplineSet
228 596 m 1
 265 735 l 1
 561 735 643 510 581 240 c 0
 540 58 401 -15 272 -15 c 0
 173 -15 29 53 66 245 c 0
 103 437 236 495 325 495 c 0
 399 495 453 457 467 435 c 1
 463 498 425 596 228 596 c 1
215 240 m 0
 197 143 247 110 296 110 c 0
 345 110 413 143 431 240 c 0
 450 337 400 370 351 370 c 0
 302 370 234 337 215 240 c 0
EndSplineSet
Fore
SplineSet
265.1796875 735.046875 m 1
 557.346679688 588.788085938 l 1
 581.041992188 239.954101562 l 1
 459.614257812 44.3251953125 l 1
 272.099609375 -14.8837890625 l 1
 118.1171875 43.041015625 l 1
 66.109375 244.95703125 l 1
 176.0234375 441.912109375 l 1
 324.951171875 494.875976562 l 1
 418.443359375 473.163085938 l 1
 466.918945312 434.94140625 l 1
 419.829101562 539.100585938 l 1
 228 596 l 1
 265.1796875 735.046875 l 1
296.107421875 110.154296875 m 1
 375.177734375 138.779296875 l 1
 430.989257812 240.12109375 l 1
 416.556640625 341.579101562 l 1
 351.043945312 370.25390625 l 1
 271.828125 341.604492188 l 1
 214.99609375 240.12109375 l 1
 230.44921875 138.754882812 l 1
 296.107421875 110.154296875 l 1
EndSplineSet
Colour: ff0000
EndChar

StartChar: afii10070
Encoding: 1077 1077 5
Width: 556
Flags: HMW
LayerCount: 3
Back
SplineSet
544 141 m 1
 485 38 398 -15 273 -15 c 0
 139 -15 31 68 68 260 c 0
 105 452 246 535 379 535 c 0
 486 535 592 487 585 366 c 0
 579 252 483 217 360 217 c 2
 210 217 l 1
 200 145 240 110 307 110 c 0
 355 110 391 137 409 170 c 1
 544 141 l 1
351 410 m 0
 301 410 249 376 232 319 c 1
 369 319 l 2
 407 319 431 337 430 366 c 0
 429 396 390 410 351 410 c 0
EndSplineSet
Fore
SplineSet
272.001953125 -20.5556640625 m 1
 102.08984375 46.1826171875 l 1
 62.912109375 259.791015625 l 1
 184.750976562 473.485351562 l 1
 379.991210938 540.30859375 l 1
 528.602539062 500.420898438 l 1
 590.100585938 368.118164062 l 1
 520.130859375 248.556640625 l 1
 360.688476562 216.169921875 l 1
 207.719726562 216.169921875 l 1
 227.701171875 134.106445312 l 1
 306.610351562 107.078125 l 1
 370.064453125 125.048828125 l 1
 410.686523438 168.211914062 l 1
 498.370117188 86.6025390625 l 1
 435.3671875 19.587890625 l 1
 272.001953125 -20.5556640625 l 1
230.08203125 320.07421875 m 1
 369.872070312 320.07421875 l 1
 415.905273438 332.908203125 l 1
 432.029296875 367.86328125 l 1
 406.275390625 401.712890625 l 1
 351.505859375 412.67578125 l 1
 278.166992188 388.189453125 l 1
 230.08203125 320.07421875 l 1
EndSplineSet
EndChar

StartChar: afii10072
Encoding: 1078 1078 6
Width: 1000
Flags: HM
LayerCount: 3
Back
SplineSet
498 200 m 1
 461 0 l 1
 311 0 l 1
 348 200 l 1
 336 200 l 2
 306 200 292 185 267 149 c 2
 175 0 l 1
 10 0 l 1
 129 173 l 1
 169 224 202 257 239 265 c 1
 240 269 l 1
 203 279 191 308 181 342 c 0
 173 376 172 387 137 387 c 2
 118 387 l 1
 133 520 l 1
 162 520 l 2
 233 520 262 512 288 453 c 0
 295 437 303 387 312 359 c 0
 321 328 340 325 360 325 c 2
 372 325 l 1
 410 520 l 1
 560 520 l 1
 522 325 l 1
 534 325 l 2
 554 325 569 328 592 359 c 0
 611 387 637 437 650 453 c 0
 698 512 737 520 808 520 c 2
 837 520 l 1
 802 387 l 1
 783 387 l 2
 748 387 743 376 719 342 c 0
 697 308 675 279 634 269 c 1
 633 265 l 1
 666 257 687 224 709 173 c 1
 762 0 l 1
 597 0 l 1
 561 149 l 1
 548 185 540 200 510 200 c 2
 498 200 l 1
EndSplineSet
Fore
SplineSet
509.994140625 199.90625 m 1
 497.987304688 199.90625 l 1
 461.057617188 0 l 1
 311.00390625 0 l 1
 348.017578125 199.90625 l 1
 335.84375 199.90625 l 1
 299.529296875 187.907226562 l 1
 266.90234375 148.96875 l 1
 174.870117188 0 l 1
 9.89453125 0 l 1
 128.936523438 173.065429688 l 1
 185.029296875 235.118164062 l 1
 238.80859375 265.09375 l 2
 239.9765625 269.095703125 l 1
 200.368164062 296.537109375 l 1
 180.955078125 342.038085938 l 1
 169.127929688 377.2578125 l 1
 137.106445312 386.971679688 l 1
 118.016601562 386.971679688 l 1
 133.10546875 520.0234375 l 1
 162.19921875 520.0234375 l 1
 242.059570312 508.633789062 l 1
 288.16015625 452.91015625 l 1
 312.168945312 358.963867188 l 1
 332.008789062 330.364257812 l 1
 360.1015625 324.944335938 l 2
 372.192382812 324.944335938 l 1
 410.122070312 520.014648438 l 1
 560.259765625 520.014648438 l 1
 522.24609375 324.944335938 l 1
 534.252929688 324.944335938 l 2
 562.126953125 330.364257812 l 1
 592.190429688 358.963867188 l 1
 650.126953125 452.91015625 l 1
 720.49609375 508.633789062 l 1
 808.18359375 520.0234375 l 1
 837.193359375 520.0234375 l 1
 802.264648438 386.971679688 l 1
 783.173828125 386.971679688 l 1
 747.057617188 377.2578125 l 1
 683.744140625 296.537109375 l 1
 634.038085938 269.095703125 l 1
 633.038085938 265.09375 l 1
 675.094726562 235.143554688 l 1
 708.8984375 173.065429688 l 1
 762 0 l 1
 597.024414062 0 l 1
 561.012695312 148.96875 l 1
 541.880859375 188.0078125 l 1
 509.994140625 199.90625 l 1
EndSplineSet
Colour: ff0000
EndChar

StartChar: afii10073
Encoding: 1079 1079 7
Width: 1000
Flags: HM
LayerCount: 3
Back
SplineSet
242 215 m 1
 262 323 l 1
 277 323 290 323 293 323 c 0
 334 323 347 342 353 367 c 0
 358 391 344 413 305 413 c 0
 267 413 241 394 227 361 c 1
 101 384 l 1
 139 484 226 535 335 535 c 0
 450 535 525 482 505 382 c 0
 492 310 434 281 397 275 c 1
 449 269 495 224 482 155 c 0
 459 33 342 -15 230 -15 c 0
 112 -15 39 37 41 146 c 1
 183 164 l 1
 182 121 216 107 253 107 c 0
 300 107 333 127 341 164 c 0
 348 203 322 215 284 215 c 2
 242 215 l 1
EndSplineSet
Fore
SplineSet
262.0078125 322.954101562 m 1
 292.935546875 322.954101562 l 1
 337.272460938 337.116210938 l 1
 354.5546875 369.026367188 l 1
 346.977539062 401.600585938 l 1
 305.663085938 415.879882812 l 1
 256.685546875 402.016601562 l 1
 226.075195312 362.903320312 l 1
 136 434 l 1
 189.638671875 501.506835938 l 1
 336.189453125 540.272460938 l 1
 474.501953125 500.529296875 l 1
 509.565429688 384.327148438 l 1
 463.627929688 304.559570312 l 1
 399.451171875 275.234375 l 1
 467.591796875 238.229492188 l 1
 486.181640625 152.959960938 l 1
 391.692382812 19.560546875 l 1
 229.220703125 -20.412109375 l 1
 86.986328125 19.9609375 l 1
 53 103 l 1
 181.177734375 162.145507812 l 1
 202.350585938 116.609375 l 1
 252.603515625 103.989257812 l 1
 312.390625 118.90625 l 1
 342.395507812 162.145507812 l 1
 330.53515625 203.080078125 l 1
 284.015625 215 l 1
 262 215 l 1
 262.0078125 322.954101562 l 1
EndSplineSet
EndChar

StartChar: afii10074
Encoding: 1080 1080 8
Width: 1000
Flags: HM
LayerCount: 3
Back
SplineSet
464 520 m 1xa0
 614 520 l 1
 515 0 l 1
 374 0 l 1
 388 75 l 1
 337 11 287 -15 225 -15 c 0
 81 -15 54 77 78 201 c 2
 139 520 l 1
 289 520 l 1
 229 205 l 2
 217 145 232 111 290 111 c 0x60
 342 111 393 153 410 237 c 2
 464 520 l 1xa0
EndSplineSet
Fore
Validated: 1
Colour: ff0000
EndChar

StartChar: afii10075
Encoding: 1081 1081 9
Width: 1000
Flags: HM
LayerCount: 3
Back
SplineSet
482 720 m 1xb0
 587 720 l 1
 568 625 490 573 390 573 c 0
 290 573 230 626 249 720 c 1
 354 720 l 1
 351 680 379 664 407 664 c 0
 435 664 469 680 482 720 c 1xb0
464 520 m 1
 614 520 l 1
 515 0 l 1
 374 0 l 1xa8
 388 75 l 1
 337 11 287 -15 225 -15 c 0
 81 -15 54 77 78 201 c 2
 139 520 l 1xb0
 289 520 l 1x68
 229 205 l 2
 217 145 232 111 290 111 c 0
 342 111 393 153 410 237 c 2
 464 520 l 1
EndSplineSet
Fore
Validated: 1
Colour: ff0000
EndChar

StartChar: afii10076
Encoding: 1082 1082 10
Width: 1000
Flags: HM
LayerCount: 3
Back
SplineSet
50 0 m 1
 149 520 l 1
 299 520 l 1
 261 325 l 1
 283 325 l 2
 313 325 324 328 357 359 c 0
 381 383 409 437 421 453 c 0
 464 512 516 520 587 520 c 2
 618 520 l 1
 578 387 l 1
 562 387 l 2
 527 387 517 376 493 342 c 0
 471 308 449 284 409 274 c 1
 408 270 l 1
 442 262 466 224 488 173 c 1
 541 0 l 1
 376 0 l 1
 335 149 l 2
 322 185 299 200 259 200 c 2
 237 200 l 1
 200 0 l 1
 50 0 l 1
EndSplineSet
Fore
SplineSet
577.805664062 386.72265625 m 5
 561.879882812 386.72265625 l 5
 525.4140625 377.892578125 l 5
 458.494140625 298.125976562 l 5
 408.908203125 273.765625 l 5
 407.908203125 269.763671875 l 5
 453.029296875 235.606445312 l 5
 489.306640625 169.787109375 l 5
 532.75 26.75 l 5
 380 -15 l 5
 333.360351562 145.208007812 l 5
 304.927734375 185.028320312 l 5
 259.021484375 199.740234375 l 5
 236.930664062 199.740234375 l 5
 197 -15 l 5
 52.75 14.25 l 5
 152 535 l 5
 296 505 l 5
 260.609375 324.711914062 l 5
 282.701171875 324.711914062 l 5
 316.592773438 330.078125 l 5
 355.557617188 359.318359375 l 5
 392.80078125 410.296875 l 5
 420.860351562 455.142578125 l 5
 494.891601562 511.828125 l 5
 577.822265625 519.607421875 l 5
 577.805664062 386.72265625 l 5
EndSplineSet
EndChar

StartChar: afii10077
Encoding: 1083 1083 11
Width: 1000
Flags: HM
LayerCount: 3
Back
SplineSet
152 257 m 2xa0
 203 520 l 1
 629 520 l 1
 530 0 l 1
 380 0 l 1x60
 455 395 l 1xa0
 319 395 l 1
 283 207 l 2
 261 97 210 -15 87 -15 c 0
 58 -15 17 -5 10 0 c 1x60
 32 119 l 1
 41 113 55 108 69 108 c 0
 128 107 138 184 152 257 c 2xa0
EndSplineSet
Fore
SplineSet
203.216796875 519.856445312 m 1
 629.03515625 519.856445312 l 1
 530 0 l 1
 380.029296875 0 l 1
 454.889648438 394.9765625 l 1
 318.924804688 394.9765625 l 1
 282.912109375 206.91015625 l 1
 222.692382812 54.755859375 l 1
 86.7587890625 -15.0009765625 l 1
 40.0341796875 -9.3310546875 l 1
 9.814453125 0.0166015625 l 1
 31.90625 119.059570312 l 1
 48.4228515625 111.3046875 l 1
 68.7529296875 107.969726562 l 1
 127.1484375 154.73046875 l 1
 151.782226562 256.938476562 l 1
 203.216796875 519.856445312 l 1
EndSplineSet
Colour: ff0000
EndChar

StartChar: afii10078
Encoding: 1084 1084 12
Width: 995
Flags: HMW
LayerCount: 3
Back
SplineSet
46 0 m 1
 145 520 l 1
 346 520 l 1
 392 174 l 1
 584 520 l 1
 772 520 l 1
 673 0 l 1
 523 0 l 1
 579 295 l 1
 417 0 l 1
 298 0 l 1
 252 295 l 1
 196 0 l 1
 46 0 l 1
EndSplineSet
Fore
SplineSet
147.84375 535 m 1
 349 497 l 1
 392.06640625 174.06640625 l 1
 592.25 535 l 1
 757.5 443.5 l 1
 670 -15 l 1
 525.752929688 14.25 l 1
 579.048828125 295.02734375 l 1
 409 -15 l 1
 290 50 l 1
 252.099609375 295.02734375 l 1
 193.080078125 -15 l 1
 48.75 14.25 l 1
 147.84375 535 l 1
EndSplineSet
EndChar

StartChar: afii10079
Encoding: 1085 1085 13
Width: 1000
Flags: HMW
LayerCount: 3
Back
SplineSet
50 0 m 5
 149 520 l 5
 299 520 l 5
 261 325 l 5
 431 325 l 5
 469 520 l 5
 619 520 l 5
 520 0 l 5
 370 0 l 5
 407 200 l 5
 237 200 l 5
 200 0 l 5
 50 0 l 5
EndSplineSet
Fore
SplineSet
52.75 14.25 m 1
 152 535 l 1
 296 505 l 1
 261 325 l 1
 431 325 l 1
 472 535 l 1
 616 505 l 1
 517.25 -15 l 1
 372.75 14.25 l 1
 407 200 l 1
 237 200 l 1
 197.25 -15 l 1
 52.75 14.25 l 1
EndSplineSet
EndChar

StartChar: afii10080
Encoding: 1086 1086 14
Width: 572
Flags: HMW
LayerCount: 3
Back
SplineSet
68 260 m 0
 105 452 240 535 379 535 c 0
 518 535 621 452 584 260 c 0
 547 68 412 -15 273 -15 c 0
 134 -15 31 68 68 260 c 0
218 260 m 0
 200 163 228 110 297 110 c 0
 366 110 416 163 434 260 c 0
 452 357 424 410 355 410 c 0
 286 410 236 357 218 260 c 0
EndSplineSet
Fore
SplineSet
380.264648438 540.365234375 m 1
 552.015625 473.541992188 l 1
 589.268554688 259.84765625 l 1
 469.759765625 46.2392578125 l 1
 272.19140625 -20.4990234375 l 1
 100.334960938 46.2392578125 l 1
 63.1025390625 259.84765625 l 1
 182.623046875 473.541992188 l 1
 380.264648438 540.365234375 l 1
296.595703125 106.879882812 m 1
 386.004882812 146.31640625 l 1
 436.385742188 259.84765625 l 1
 429.419921875 373.448242188 l 1
 355.942382812 412.817382812 l 1
 266.555664062 373.448242188 l 1
 216.068359375 259.84765625 l 1
 223.077148438 146.31640625 l 1
 296.595703125 106.879882812 l 1
EndSplineSet
EndChar

StartChar: afii10081
Encoding: 1087 1087 15
Width: 1000
Flags: HM
LayerCount: 3
Back
SplineSet
200 0 m 1xa0
 50 0 l 1
 149 520 l 1
 290 520 l 1
 276 445 l 1
 326 509 376 535 438 535 c 0
 582 535 609 443 586 319 c 2
 525 0 l 1
 375 0 l 1
 435 315 l 2
 447 375 431 409 373 409 c 0xc0
 321 409 270 367 253 283 c 2
 200 0 l 1xa0
EndSplineSet
Fore
Validated: 1
Colour: ff0000
EndChar

StartChar: afii10082
Encoding: 1088 1088 16
Width: 588
Flags: HMW
LayerCount: 3
Back
SplineSet
160 -200 m 1xd0
 10 -200 l 1
 148 520 l 1
 288 520 l 1
 277 459 l 1
 316 509 368 535 427 535 c 0
 551 535 633 442 598 260 c 0
 563 78 440 -15 316 -15 c 0
 274 -15 227 -2 207 45 c 1
 160 -200 l 1xd0
237 260 m 0
 218 158 249 110 313 110 c 0
 377 110 429 158 448 260 c 0xe0
 468 362 431 410 372 410 c 0
 313 410 257 362 237 260 c 0
EndSplineSet
Fore
SplineSet
13.951171875 -182.549804688 m 1
 151.5 535 l 1
 286.608398438 509.184570312 l 1
 278.385742188 464.74609375 l 1
 347.216796875 522.715820312 l 1
 431.353515625 542.293945312 l 1
 579.360351562 471.677734375 l 1
 605.751953125 261.776367188 l 1
 496.020507812 52.029296875 l 1
 318.1796875 -18.5703125 l 1
 254.18359375 -6.0166015625 l 1
 206.959960938 42.572265625 l 1
 158.5 -210 l 1
 13.951171875 -182.549804688 l 1
315.03515625 108.72265625 m 1
 401.181640625 146.212890625 l 1
 452.700195312 261.692382812 l 1
 444.1328125 377.239257812 l 1
 375.236328125 414.661132812 l 1
 291.482421875 377.239257812 l 1
 237.572265625 261.692382812 l 1
 244.581054688 146.247070312 l 1
 315.03515625 108.72265625 l 1
EndSplineSet
EndChar

StartChar: afii10083
Encoding: 1089 1089 17
Width: 540
Flags: HMW
LayerCount: 3
Back
SplineSet
218 260 m 0xa0
 200 163 222 110 287 110 c 0
 335 110 373 135 396 196 c 1
 540 175 l 1
 485 36 375 -15 263 -15 c 0
 129 -15 31 68 68 260 c 0
 105 452 235 535 369 535 c 0
 491 535 602 476 560 312 c 1
 410 312 l 1xc0
 423 368 403 410 345 410 c 0
 283 410 236 357 218 260 c 0xa0
EndSplineSet
Fore
SplineSet
530.26953125 489.577148438 m 1
 562.393554688 325.532226562 l 1
 411.943359375 313.038085938 l 1
 405.96875 384.517578125 l 1
 345.74609375 413 l 1
 264.095703125 373.630859375 l 1
 216.24609375 260.030273438 l 1
 219.5625 146.499023438 l 1
 286.391601562 107.0625 l 1
 351.545898438 127.619140625 l 1
 397.696289062 194.73046875 l 1
 503.48828125 121.788085938 l 1
 425.119140625 23.3740234375 l 1
 262.073242188 -20.31640625 l 1
 97.337890625 46.421875 l 1
 63.2724609375 260.030273438 l 1
 179.59375 473.724609375 l 1
 370.147460938 540.547851562 l 1
 530.26953125 489.577148438 l 1
EndSplineSet
EndChar

StartChar: afii10084
Encoding: 1090 1090 18
Width: 1000
Flags: HM
LayerCount: 3
Back
SplineSet
200 0 m 1xc0
 50 0 l 1
 149 520 l 1
 290 520 l 1
 276 446 l 1
 324 510 371 535 440 535 c 0
 516 535 560 500 569 439 c 1
 616 508 673 535 738 535 c 0
 835 535 889 472 866 356 c 2
 799 0 l 1
 649 0 l 1
 709 317 l 2
 719 371 712 409 665 409 c 0
 614 409 569 366 555 291 c 2xc0
 500 0 l 1
 350 0 l 1
 410 317 l 2
 423 385 402 409 366 409 c 0xa0
 309 409 267 354 251 269 c 2
 200 0 l 1xc0
EndSplineSet
Fore
Validated: 1
Colour: ff0000
EndChar

StartChar: afii10086
Encoding: 1092 1092 19
Width: 1000
Flags: HM
LayerCount: 3
Back
SplineSet
527 260 m 0
 504 143 537 110 583 110 c 0
 629 110 685 143 708 260 c 0
 730 372 688 410 642 410 c 0
 606 410 550 382 527 260 c 0
398 260 m 0
 421 382 377 410 341 410 c 0
 295 410 239 372 217 260 c 0
 194 143 238 110 284 110 c 0
 330 110 375 143 398 260 c 0
450 -200 m 1
 300 -200 l 1
 347 45 l 1
 321 13 286 -15 224 -15 c 0
 100 -15 38 103 68 260 c 0
 99 417 196 535 325 535 c 0
 394 535 421 501 430 479 c 1
 472 695 l 1
 630 735 l 1
 580 479 l 1
 599 501 638 535 707 535 c 0
 836 535 889 417 858 260 c 0
 828 103 720 -15 596 -15 c 0
 534 -15 509 13 497 45 c 1
 450 -200 l 1
EndSplineSet
Fore
SplineSet
303 -184.020507812 m 1
 347.129882812 44.916015625 l 1
 300.404296875 -2.1640625 l 1
 223.801757812 -20.517578125 l 1
 85.458984375 59.615234375 l 1
 64.7109375 259.829101562 l 1
 158.27734375 460.119140625 l 1
 326.774414062 540.337890625 l 1
 403.280273438 520.248046875 l 1
 430.076171875 478.823242188 l 1
 479.75 735 l 1
 624.25 705.25 l 1
 580.045898438 478.823242188 l 1
 623.404296875 520.248046875 l 1
 707.212890625 540.337890625 l 1
 845.471679688 460.119140625 l 1
 861.287109375 259.829101562 l 1
 763.693359375 59.615234375 l 1
 594.037109375 -20.517578125 l 1
 524.4296875 -2.1640625 l 1
 496.93359375 44.916015625 l 1
 448 -210 l 1
 303 -184.020507812 l 1
343.270507812 412.967773438 m 1
 270.8359375 379.33984375 l 1
 216.830078125 259.999023438 l 1
 224.688476562 138.8046875 l 1
 285.283203125 107.021484375 l 1
 352.19140625 138.770507812 l 1
 401.434570312 259.999023438 l 1
 394.869140625 383.1328125 l 1
 343.270507812 412.967773438 l 1
580.94140625 107.021484375 m 1
 653.504882812 138.770507812 l 1
 708.401367188 259.999023438 l 1
 700.756835938 379.33984375 l 1
 641.139648438 412.967773438 l 1
 577.430664062 383.1328125 l 1
 523.797851562 259.999023438 l 1
 525.965820312 138.745117188 l 1
 580.94140625 107.021484375 l 1
EndSplineSet
EndChar

StartChar: afii10087
Encoding: 1093 1093 20
Width: 575
Flags: HMW
LayerCount: 3
Back
SplineSet
182 0 m 1
 10 0 l 1
 240 266 l 1
 121 520 l 1
 297 520 l 1
 353 372 l 1
 466 520 l 1
 635 520 l 1
 426 269 l 1
 550 0 l 1
 377 0 l 1
 309 160 l 1
 182 0 l 1
EndSplineSet
Fore
SplineSet
170 -15 m 1
 67 66 l 1
 240 266 l 1
 140.5 478.25 l 1
 291.25 535 l 1
 353 372 l 1
 477.5 535 l 1
 581.75 456 l 1
 426 269 l 1
 529 46 l 1
 383.5 -15 l 1
 309 160 l 1
 170 -15 l 1
EndSplineSet
EndChar

StartChar: afii10088
Encoding: 1094 1094 21
Width: 1000
Flags: HM
LayerCount: 3
Back
SplineSet
464 520 m 1x60
 614 520 l 1
 546 167 l 2
 532 97 551 77 627 77 c 1
 582 -160 l 1
 442 -160 l 1
 469 -15 l 1
 439 -15 383 12 388 75 c 1
 337 11 287 -15 225 -15 c 0
 81 -15 54 77 78 201 c 2
 139 520 l 1
 289 520 l 1xa0
 229 205 l 2
 217 145 232 111 290 111 c 0
 342 111 393 153 410 237 c 2
 464 520 l 1x60
EndSplineSet
Fore
SplineSet
542.984375 151.946289062 m 1
 552.729492188 95.7548828125 l 1
 626.932617188 77.0771484375 l 1
 579.25 -175.083007812 l 1
 443.927734375 -149.083007812 l 1
 468.959960938 -15.1171875 l 1
 415.34765625 6.26171875 l 1
 387.931640625 74.9091796875 l 1
 310.5703125 5.88671875 l 1
 224.956054688 -15.1171875 l 1
 88.408203125 46.4345703125 l 1
 77.904296875 200.95703125 l 1
 142.30078125 534.75 l 1
 286.0625 504.990234375 l 1
 228.791015625 205.04296875 l 1
 233.001953125 135.444335938 l 1
 289.729492188 110.921875 l 1
 362.796875 142.431640625 l 1
 409.60546875 236.969726562 l 1
 467 535 l 1
 611 505 l 1
 542.984375 151.946289062 l 1
EndSplineSet
EndChar

StartChar: afii10089
Encoding: 1095 1095 22
Width: 1000
Flags: HM
LayerCount: 3
Back
SplineSet
97 353 m 2
 129 520 l 1
 279 520 l 1
 256 400 l 2
 239 312 240 272 303 272 c 0
 336 272 378 284 403 304 c 1
 444 520 l 1
 594 520 l 1
 495 0 l 1
 345 0 l 1
 381 189 l 1
 342 168 295 154 250 154 c 0
 115 154 74 233 97 353 c 2
EndSplineSet
Fore
SplineSet
132.056640625 534.833007812 m 1
 276.055664062 504.833007812 l 1
 256.756835938 402.26171875 l 1
 250.20703125 303.3671875 l 1
 304.626953125 271.74609375 l 1
 358.673828125 280.4375 l 1
 403.134765625 303.774414062 l 1
 447 535 l 1
 591 505 l 1
 492 -15 l 1
 347.75 14.25 l 1
 381.04296875 189.067382812 l 1
 319.676757812 161.420898438 l 1
 250.6328125 151.598632812 l 1
 112.235351562 207.16796875 l 1
 94.6875 354.567382812 l 1
 132.056640625 534.833007812 l 1
EndSplineSet
EndChar

StartChar: afii10090
Encoding: 1096 1096 23
Width: 1000
Flags: HM
LayerCount: 3
Back
SplineSet
742 520 m 1xa0
 892 520 l 1
 793 0 l 1
 652 0 l 1
 666 74 l 1
 617 10 570 -15 501 -15 c 0
 425 -15 381 20 372 81 c 1
 325 12 268 -15 203 -15 c 0
 106 -15 53 48 75 164 c 2
 143 520 l 1
 293 520 l 1
 233 203 l 2
 222 149 229 111 276 111 c 0
 327 111 372 154 387 229 c 2
 442 520 l 1
 592 520 l 1
 532 203 l 2
 518 135 539 111 575 111 c 0x60
 632 111 674 166 690 251 c 2
 742 520 l 1xa0
EndSplineSet
Fore
SplineSet
889.03515625 504.75 m 5
 790 -15 l 1
 654.75 14.25 l 1
 666.125 73.9423828125 l 1
 595.536132812 4.2734375 l 5
 503.74609375 -16.5634765625 l 5
 412.359375 9.052734375 l 5
 372.119140625 81.2255859375 l 5
 292.903320312 5.931640625 l 5
 199.84765625 -16.5634765625 l 5
 89.1162109375 30.3583984375 l 5
 75.248046875 163.977539062 l 5
 145.737304688 535.25 l 5
 290.25 505 l 5
 233.137695312 202.908203125 l 5
 230.118164062 138.08984375 l 5
 274.32421875 111.75 l 5
 344.623046875 143.251953125 l 5
 387.182617188 228.9140625 l 5
 444.75 535 l 5
 589.180664062 504.75 l 5
 532.068359375 202.82421875 l 5
 538.09765625 132.646484375 l 5
 579.240234375 111.6640625 l 5
 653.599609375 150.505859375 l 5
 690.205078125 250.834960938 l 5
 744.688476562 535 l 5
 889.03515625 504.75 l 5
EndSplineSet
EndChar

StartChar: afii10091
Encoding: 1097 1097 24
Width: 1000
Flags: HMW
LayerCount: 3
Back
SplineSet
742 520 m 1x60
 892 520 l 1
 824 167 l 2
 810 97 829 77 905 77 c 1
 860 -160 l 1
 720 -160 l 1
 747 -15 l 1
 717 -15 661 11 666 74 c 1
 617 10 570 -15 501 -15 c 0
 425 -15 381 20 372 81 c 1
 325 12 268 -15 203 -15 c 0
 106 -15 53 48 75 164 c 2
 143 520 l 1
 293 520 l 1
 233 203 l 2
 222 149 229 111 276 111 c 0
 327 111 372 154 387 229 c 2
 442 520 l 1
 592 520 l 1xa0
 532 203 l 2
 518 135 539 111 575 111 c 0
 632 111 674 166 690 251 c 2
 742 520 l 1x60
EndSplineSet
Fore
SplineSet
823.986328125 166.946289062 m 1
 830.740234375 95.7548828125 l 1
 905.015625 77.0859375 l 1
 857 -175.083007812 l 1
 722 -150 l 5
 746.958984375 -14.9501953125 l 1
 693.3359375 5.87890625 l 1
 665.84765625 73.91796875 l 1
 595.536132812 4.2734375 l 1
 503.74609375 -16.5634765625 l 1
 412.359375 9.052734375 l 1
 372.119140625 81.2255859375 l 1
 292.903320312 5.931640625 l 1
 199.84765625 -16.5634765625 l 1
 89.1162109375 30.3583984375 l 1
 75.248046875 163.977539062 l 1
 145.737304688 535.25 l 1
 290.25 505 l 1
 233.137695312 202.908203125 l 1
 230.118164062 138.08984375 l 1
 274.32421875 111.75 l 1
 344.623046875 143.251953125 l 1
 387.182617188 228.9140625 l 1
 444.75 535 l 1
 589.180664062 504.75 l 1
 532.068359375 202.82421875 l 1
 538.09765625 132.646484375 l 1
 579.240234375 111.6640625 l 1
 653.599609375 150.505859375 l 1
 690.205078125 250.834960938 l 1
 744.688476562 535 l 1
 889.03515625 504.75 l 1
 823.986328125 166.946289062 l 1
EndSplineSet
EndChar

StartChar: afii10092
Encoding: 1098 1098 25
Width: 1000
Flags: HM
LayerCount: 3
Back
SplineSet
90 397 m 1
 114 520 l 1
 377 520 l 1
 328 315 l 1
 368 353 418 358 449 358 c 0
 520 358 611 299 586 172 c 0
 561 47 456 -15 350 -15 c 2
 328 -15 l 2
 215 -15 125 65 166 248 c 2
 199 397 l 1
 90 397 l 1
435 178 m 0
 441 216 421 253 366 253 c 0
 345 253 324 245 312 237 c 1
 304 196 l 2
 295 145 312 107 353 107 c 0
 386 107 426 131 435 178 c 0
EndSplineSet
Fore
SplineSet
90 520 m 1
 376.84375 520 l 1
 327.826171875 315.182617188 l 1
 391.744140625 354.494140625 l 1
 450.095703125 361.892578125 l 1
 556.659179688 315.65234375 l 1
 589.885742188 172.276367188 l 1
 498.219726562 31.927734375 l 1
 350.000976562 -14.6318359375 l 1
 326.631835938 -18.359375 l 1
 185.18359375 45.7412109375 l 1
 166.018554688 248.293945312 l 1
 199.030273438 397.262695312 l 1
 89.9912109375 397.262695312 l 1
 90 520 l 1
335.557617188 248.068359375 m 1
 312.0703125 237.204101562 l 1
 303.899414062 196.189453125 l 1
 308.231445312 131.870117188 l 1
 352.307617188 106.032226562 l 1
 403.314453125 124.241210938 l 1
 435.892578125 178.477539062 l 1
 424.0625 231.053710938 l 1
 365.48828125 254.749023438 l 1
 335.557617188 248.068359375 l 1
EndSplineSet
EndChar

StartChar: afii10093
Encoding: 1099 1099 26
Width: 1000
Flags: HM
LayerCount: 3
Back
SplineSet
513 0 m 1xb0
 612 520 l 1
 762 520 l 1
 663 0 l 1
 513 0 l 1xb0
340 178 m 0
 346 216 326 253 271 253 c 0
 250 253 229 245 217 237 c 1
 209 196 l 2
 200 145 217 107 258 107 c 0
 291 107 331 131 340 178 c 0
71 248 m 2
 132 520 l 1
 282 520 l 1
 233 315 l 1
 273 353 323 358 354 358 c 0
 425 358 516 299 491 172 c 0x70
 466 47 361 -15 255 -15 c 2
 233 -15 l 2
 120 -15 30 65 71 248 c 2
EndSplineSet
Fore
SplineSet
134.99609375 535 m 5
 278.5 505 l 5
 233.096679688 314.864257812 l 5
 297.002929688 354.17578125 l 5
 355.28125 361.57421875 l 5
 461.887695312 315.333984375 l 5
 495.15625 171.958007812 l 5
 405.662109375 28.8125 l 5
 254.436523438 -18.677734375 l 5
 231.90234375 -18.677734375 l 5
 90.4541015625 45.4228515625 l 5
 71.2890625 247.975585938 l 5
 134.99609375 535 l 5
239.693359375 249.276367188 m 5
 217.174804688 236.885742188 l 5
 209.169921875 195.87109375 l 5
 213.400390625 131.551757812 l 5
 257.497070312 105.713867188 l 5
 308.461914062 123.922851562 l 5
 340.998046875 178.159179688 l 5
 329.2109375 230.735351562 l 5
 270.678710938 254.430664062 l 5
 239.693359375 249.276367188 l 5
615 535 m 1
 759.087890625 505 l 1
 660 -15 l 1
 515.75 14.25 l 1
 615 535 l 1
EndSplineSet
EndChar

StartChar: afii10094
Encoding: 1100 1100 27
Width: 1000
Flags: HMW
LayerCount: 3
Back
SplineSet
71 248 m 2
 132 520 l 1
 282 520 l 1
 233 315 l 1
 273 353 323 358 354 358 c 0
 425 358 516 299 491 172 c 0
 466 47 361 -15 255 -15 c 2
 233 -15 l 2
 120 -15 30 65 71 248 c 2
340 178 m 0
 346 216 326 253 271 253 c 0
 250 253 229 245 217 237 c 1
 210 206 l 2
 198 155 210 107 258 107 c 0
 291 107 331 131 340 178 c 0
EndSplineSet
Fore
SplineSet
134.99609375 535 m 1
 278.5 505 l 1
 233.096679688 314.864257812 l 1
 297.002929688 354.17578125 l 1
 355.28125 361.57421875 l 1
 461.887695312 315.333984375 l 1
 495.15625 171.958007812 l 1
 405.662109375 28.8125 l 1
 254.436523438 -18.677734375 l 1
 231.90234375 -18.677734375 l 1
 90.4541015625 45.4228515625 l 1
 71.2890625 247.975585938 l 1
 134.99609375 535 l 1
239.693359375 249.276367188 m 1
 217.174804688 236.885742188 l 1
 209.169921875 195.87109375 l 1
 213.400390625 131.551757812 l 1
 257.497070312 105.713867188 l 1
 308.461914062 123.922851562 l 1
 340.998046875 178.159179688 l 1
 329.2109375 230.735351562 l 1
 270.678710938 254.430664062 l 1
 239.693359375 249.276367188 l 1
EndSplineSet
EndChar

StartChar: afii10095
Encoding: 1101 1101 28
Width: 1000
Flags: HM
LayerCount: 3
Back
SplineSet
261 210 m 1
 282 315 l 1
 430 315 l 1
 437 377 401 410 355 410 c 0
 307 410 261 386 240 322 c 1
 98 344 l 1
 153 483 268 535 380 535 c 0
 519 535 610 447 574 260 c 0
 537 68 407 -15 268 -15 c 0
 156 -15 61 33 60 175 c 1
 212 196 l 1
 211 135 244 110 292 110 c 0
 342 110 392 134 410 210 c 1
 261 210 l 1
EndSplineSet
Fore
SplineSet
282.006835938 315.043945312 m 1
 429.892578125 315.043945312 l 1
 414.177734375 388.223632812 l 1
 355.708984375 412.989257812 l 1
 286.770507812 392.629882812 l 1
 238.3671875 323.280273438 l 1
 134 396 l 1
 215.631835938 496.321289062 l 1
 381.302734375 540.537109375 l 1
 547.08984375 471.767578125 l 1
 579.083007812 260.020507812 l 1
 462.081054688 46.3271484375 l 1
 267.022460938 -20.4951171875 l 1
 118.484375 22.0966796875 l 1
 66 147 l 1
 209.796875 194.720703125 l 1
 231.883789062 127.608398438 l 1
 291.340820312 107.052734375 l 1
 363.818359375 128.943359375 l 1
 409.88671875 210 l 1
 282 210 l 1
 282.006835938 315.043945312 l 1
EndSplineSet
EndChar

StartChar: afii10096
Encoding: 1102 1102 29
Width: 1000
Flags: HM
LayerCount: 3
Back
SplineSet
50 0 m 1x60
 149 520 l 1
 299 520 l 1x50
 261 325 l 1
 321 325 l 1
 373 471 492 535 605 535 c 0
 734 535 837 452 800 260 c 0
 763 68 628 -15 499 -15 c 0xa0
 385 -15 290 50 296 200 c 1
 237 200 l 1
 200 0 l 1
 50 0 l 1x60
454 260 m 0
 436 163 461 110 523 110 c 0
 585 110 632 163 650 260 c 0
 668 357 643 410 581 410 c 0xa0
 519 410 472 357 454 260 c 0
EndSplineSet
Fore
SplineSet
151.75 535 m 1
 296 505 l 1
 260.854492188 324.778320312 l 1
 320.958984375 324.778320312 l 1
 437.33203125 489.020507812 l 1
 605.298828125 540.356445312 l 1
 768.311523438 473.533203125 l 1
 804.354492188 259.838867188 l 1
 686.045898438 46.23046875 l 1
 497.395507812 -20.5078125 l 1
 347.975585938 31.6533203125 l 1
 295.8671875 199.740234375 l 1
 236.845703125 199.740234375 l 1
 197.25 -15 l 1
 52.75 14.25 l 1
 151.75 535 l 1
521.713867188 106.87109375 m 1
 603.2578125 146.307617188 l 1
 651.129882812 259.838867188 l 1
 646.537109375 373.439453125 l 1
 580.724609375 412.80859375 l 1
 499.149414062 373.439453125 l 1
 451.30859375 259.838867188 l 1
 455.934570312 146.2734375 l 1
 521.713867188 106.87109375 l 1
EndSplineSet
EndChar

StartChar: afii10097
Encoding: 1103 1103 30
Width: 1000
Flags: HM
LayerCount: 3
Back
SplineSet
352 520 m 2
 577 520 l 1
 478 0 l 1
 338 0 l 1
 369 171 l 1
 351 171 l 2
 295 171 264 145 235 100 c 2
 173 0 l 1
 10 0 l 1
 93 124 l 2
 126 172 175 218 235 224 c 1
 157 222 97 278 111 355 c 0
 132 460 233 520 352 520 c 2
391 284 m 1
 415 405 l 1
 358 405 l 2
 295 405 270 377 264 347 c 0
 256 306 276 284 360 284 c 2
 391 284 l 1
EndSplineSet
Fore
SplineSet
234.997070312 223.828125 m 1
 136.534179688 257.065429688 l 1
 108.547851562 354.012695312 l 1
 193.971679688 478.3203125 l 1
 354.455078125 522.282226562 l 1
 577.03515625 519.681640625 l 1
 475 -15 l 1
 340.5 14.25 l 1
 368.9609375 170.97265625 l 1
 344.538085938 170.97265625 l 1
 158 -15 l 1
 76 66 l 1
 234.997070312 223.828125 l 1
415.060546875 404.723632812 m 1
 360.407226562 405.024414062 l 1
 290.639648438 386.943359375 l 1
 264.493164062 346.102539062 l 1
 278.2890625 298.271484375 l 1
 362.36328125 281.814453125 l 1
 390.885742188 283.9296875 l 1
 415.060546875 404.723632812 l 1
EndSplineSet
EndChar

StartChar: afii10017
Encoding: 1040 1040 31
Width: 730
Flags: HMW
LayerCount: 3
Back
SplineSet
434 720 m 1
 578 720 l 1
 720 0 l 1
 555 0 l 1
 531 130 l 1
 244 130 l 1
 173 0 l 1
 10 0 l 1
 434 720 l 1
463 521 m 1
 319 262 l 1
 509 262 l 1
 463 521 l 1
EndSplineSet
Fore
SplineSet
443 735 m 1
 593.25 646 l 1
 717 14 l 1
 558 -15 l 1
 531 130 l 1
 244 130 l 1
 166 -14 l 1
 42 54 l 1
 443 735 l 1
463 521 m 1
 319 262 l 1
 509 262 l 1
 463 521 l 1
EndSplineSet
EndChar

StartChar: afii10018
Encoding: 1041 1041 32
Width: 1000
Flags: HM
LayerCount: 3
Back
SplineSet
208 720 m 1
 731 720 l 1
 703 575 l 1
 340 575 l 1
 318 460 l 1
 471 460 l 2
 630 460 714 376 686 231 c 0
 651 56 520 0 385 0 c 2
 70 0 l 1
 208 720 l 1
291 320 m 1
 256 140 l 1
 404 140 l 2
 479 140 512 176 523 234 c 0
 532 281 514 320 431 320 c 2
 291 320 l 1
EndSplineSet
Fore
SplineSet
703 574.87109375 m 1
 339.89453125 574.87109375 l 1
 317.887695312 459.9140625 l 1
 470.774414062 459.9140625 l 1
 648.390625 399.788085938 l 1
 685.767578125 230.999023438 l 1
 572.779296875 49.853515625 l 1
 384.827148438 0 l 1
 69.9658203125 0 l 1
 207.84765625 720.004882812 l 1
 703 720.004882812 l 1
 703 574.87109375 l 1
255.948242188 139.971679688 m 1
 403.833984375 139.971679688 l 1
 487.301757812 165.219726562 l 1
 522.876953125 233.916992188 l 1
 511.340820312 294.4609375 l 1
 430.84375 319.8671875 l 1
 290.877929688 319.8671875 l 1
 255.948242188 139.971679688 l 1
EndSplineSet
EndChar

StartChar: afii10019
Encoding: 1042 1042 33
Width: 694
Flags: HMW
LayerCount: 3
Back
SplineSet
373 0 m 6
 70 0 l 5
 208 720 l 5
 501 720 l 6
 647 720 742 661 717 533 c 4
 704 465 657 402 573 376 c 5
 654 355 699 293 683 208 c 4
 653 56 536 0 373 0 c 6
339 595 m 5
 307 430 l 5
 426 430 l 6
 499 430 545 463 556 521 c 4
 568 579 520 595 446 595 c 6
 339 595 l 5
283 305 m 5
 248 125 l 5
 386 125 l 6
 464 125 511 150 522 208 c 4
 535 275 491 305 408 305 c 6
 283 305 l 5
EndSplineSet
Fore
SplineSet
69.9306640625 0.0498046875 m 5
 207.90625 719.955078125 l 5
 515.155273438 719.955078125 l 5
 690.775390625 680.500976562 l 5
 735.469726562 536.1484375 l 5
 689.233398438 440.119140625 l 5
 588.536132812 376.03515625 l 5
 681.771484375 314.841796875 l 5
 700.77734375 204.7890625 l 5
 593.479492188 40.5087890625 l 5
 384.46484375 0.0498046875 l 5
 69.9306640625 0.0498046875 l 5
247.719726562 125.09765625 m 5
 398.564453125 125.09765625 l 5
 493.575195312 145.219726562 l 5
 536.499023438 204.7890625 l 5
 515.11328125 279.793945312 l 5
 420.262695312 305.08984375 l 5
 282.682617188 305.08984375 l 5
 247.719726562 125.09765625 l 5
307.171875 429.97265625 m 5
 438.713867188 429.97265625 l 5
 528.729492188 455.427734375 l 5
 571.361328125 524.079101562 l 5
 548.190429688 579.385742188 l 5
 459.20703125 595.000976562 l 5
 338.993164062 595.000976562 l 5
 307.171875 429.97265625 l 5
EndSplineSet
EndChar

StartChar: afii10020
Encoding: 1043 1043 34
Width: 1000
Flags: HMW
LayerCount: 3
Back
SplineSet
70 0 m 5
 208 720 l 5
 691 720 l 5
 663 575 l 5
 340 575 l 5
 230 0 l 5
 70 0 l 5
EndSplineSet
Fore
SplineSet
72.75 14 m 1
 208 720 l 1
 663 720 l 1
 663 575 l 1
 340 575 l 1
 227 -15 l 1
 72.75 14 l 1
EndSplineSet
EndChar

StartChar: afii10021
Encoding: 1044 1044 35
Width: 1000
Flags: HM
LayerCount: 3
Back
SplineSet
259 512 m 2
 300 720 l 1
 819 720 l 1
 708 144 l 1
 794 144 l 1
 734 -169 l 1
 574 -169 l 1
 607 0 l 1
 170 0 l 1
 137 -169 l 1
 -21 -169 l 1
 37 144 l 1
 75 144 l 2
 190 144 228 349 259 512 c 2
548 144 m 1
 631 575 l 1
 427 575 l 1
 425 563 l 1
 389 382 357 188 256 144 c 1
 548 144 l 1
EndSplineSet
Fore
SplineSet
300.057617188 719.977539062 m 1
 819.076171875 719.977539062 l 1
 708.036132812 144.11328125 l 1
 793.984375 144.11328125 l 1
 733.962890625 -169 l 1
 573.90625 -169 l 1
 606.91796875 -0.02734375 l 1
 170.012695312 -0.02734375 l 1
 137 -169 l 1
 -21.0556640625 -169 l 1
 36.96484375 144.11328125 l 1
 74.8955078125 144.11328125 l 1
 198.365234375 266.892578125 l 1
 258.876953125 511.908203125 l 1
 300.057617188 719.977539062 l 1
528.973632812 574.84375 m 1
 427.01953125 574.84375 l 1
 364.997070312 301.895507812 l 1
 256.208984375 144.021484375 l 1
 548.145507812 144.021484375 l 1
 630.92578125 574.8359375 l 1
 528.973632812 574.84375 l 1
EndSplineSet
Colour: ff0000
EndChar

StartChar: afii10022
Encoding: 1045 1045 36
Width: 667
Flags: HMW
LayerCount: 3
Back
SplineSet
607 0 m 1
 70 0 l 1
 208 720 l 1
 735 720 l 1
 707 575 l 1
 340 575 l 1
 314 440 l 1
 631 440 l 1
 603 295 l 1
 286 295 l 1
 257 145 l 1
 634 145 l 1
 607 0 l 1
EndSplineSet
Fore
SplineSet
607 0 m 1
 70 0 l 1
 208 720 l 1
 707 720 l 1
 707 575 l 1
 340 575 l 1
 314 440 l 1
 630.75 440 l 1
 630.75 295 l 1
 286 295 l 1
 257 145 l 1
 607 145 l 1
 607 0 l 1
EndSplineSet
EndChar

StartChar: afii10024
Encoding: 1046 1046 37
Width: 1000
Flags: HM
LayerCount: 3
Back
SplineSet
656 295 m 1
 600 0 l 1
 440 0 l 1
 496 295 l 1
 480 295 l 2
 423 295 382 272 334 194 c 2
 217 0 l 1
 30 0 l 1
 189 238 l 2
 241 315 317 361 369 368 c 1
 327 374 308 405 298 433 c 2
 266 512 l 2
 247 563 228 573 195 573 c 2
 169 573 l 1
 197 720 l 1
 244 720 l 2
 306 720 348 719 384 628 c 2
 435 499 l 2
 450 462 462 430 508 430 c 2
 522 430 l 1
 578 720 l 1
 738 720 l 1
 682 430 l 1
 696 430 l 2
 742 430 766 462 795 499 c 2
 896 628 l 2
 968 719 1010 720 1072 720 c 2
 1119 720 l 1
 1091 573 l 1
 1065 573 l 2
 1032 573 1009 563 968 512 c 2
 908 433 l 2
 886 405 855 374 811 368 c 1
 861 361 919 315 941 238 c 2
 1010 0 l 1
 823 0 l 1
 778 194 l 2
 762 272 729 295 672 295 c 2
 656 295 l 1
EndSplineSet
Fore
SplineSet
671.861328125 295.028320312 m 1
 655.935546875 295.028320312 l 1
 597 -15 l 1
 443 15 l 1
 496.045898438 295.028320312 l 1
 480.037109375 295.028320312 l 1
 403.67578125 273.807617188 l 1
 334.068359375 194.0703125 l 1
 208 -15 l 1
 73.75 65 l 1
 189.100585938 238.00390625 l 1
 279.090820312 329.247070312 l 1
 369.080078125 367.969726562 l 1
 321.594726562 392.18359375 l 1
 298.055664062 432.907226562 l 1
 265.959960938 511.852539062 l 1
 235.69921875 561.380859375 l 1
 194.935546875 572.704101562 l 1
 168.926757812 572.704101562 l 1
 169 721 l 1
 243.869140625 719.921875 l 1
 323.647460938 707.973632812 l 1
 383.919921875 627.810546875 l 1
 434.854492188 498.844726562 l 1
 459.73828125 450.483398438 l 1
 507.879882812 429.822265625 l 1
 521.887695312 429.822265625 l 1
 581 735 l 1
 735 705.75 l 1
 681.861328125 429.822265625 l 1
 695.870117188 429.822265625 l 1
 751.733398438 450.483398438 l 1
 794.905273438 498.844726562 l 1
 895.857421875 627.810546875 l 1
 987.524414062 707.998046875 l 1
 1071.75292969 719.921875 l 1
 1091 720 l 1
 1090.67675781 572.704101562 l 1
 1064.66699219 572.704101562 l 1
 1019.15039062 561.380859375 l 1
 967.6328125 511.852539062 l 1
 907.694335938 432.907226562 l 1
 867.368164062 392.18359375 l 1
 810.66015625 367.969726562 l 1
 886.186523438 329.247070312 l 1
 940.706054688 238.00390625 l 1
 1002.25 26 l 1
 826 -15 l 1
 777.815429688 194.0703125 l 1
 740.186523438 273.807617188 l 1
 671.861328125 295.028320312 l 1
EndSplineSet
EndChar

StartChar: afii10025
Encoding: 1047 1047 38
Width: 1000
Flags: HM
LayerCount: 3
Back
SplineSet
303 305 m 1
 328 435 l 1
 393 435 l 2
 465 435 492 467 501 514 c 0
 511 566 479 595 420 595 c 0
 355 595 312 566 292 507 c 1
 152 535 l 1
 198 664 310 735 448 735 c 0
 575 735 684 666 659 533 c 0
 643 456 591 400 524 376 c 1
 611 360 645 290 629 209 c 0
 599 49 446 -15 312 -15 c 0
 177 -15 62 39 68 202 c 1
 219 226 l 1
 224 161 249 122 334 122 c 0
 413 122 461 154 474 216 c 0
 486 278 443 305 378 305 c 2
 303 305 l 1
EndSplineSet
Fore
SplineSet
327.915039062 434.998046875 m 1
 393.154296875 434.998046875 l 1
 472.78515625 459.090820312 l 1
 503.768554688 517.272460938 l 1
 488.825195312 578.506835938 l 1
 421.204101562 600.0078125 l 1
 338.692382812 577.614257812 l 1
 290.682617188 510.127929688 l 1
 184 586 l 1
 263.588867188 690.041015625 l 1
 449.774414062 742.600585938 l 1
 615.391601562 690.45703125 l 1
 664.814453125 536.655273438 l 1
 615.561523438 436.2890625 l 1
 527.151367188 376.541992188 l 1
 620.131835938 316.216796875 l 1
 634.290039062 206.146484375 l 1
 512.462890625 30.70703125 l 1
 310.920898438 -22.4130859375 l 1
 132.654296875 25.927734375 l 1
 73 172 l 1
 216.111328125 223.573242188 l 1
 244.139648438 145.618164062 l 1
 333.453125 117.45703125 l 1
 429.994140625 141.645507812 l 1
 476.21875 213.290039062 l 1
 456.747070312 282.264648438 l 1
 378.348632812 304.926757812 l 1
 327.907226562 304.926757812 l 1
 327.915039062 434.998046875 l 1
EndSplineSet
EndChar

StartChar: afii10026
Encoding: 1048 1048 39
Width: 1000
Flags: HMW
LayerCount: 3
Back
SplineSet
240 0 m 1
 70 0 l 1
 208 720 l 1
 368 720 l 1
 274 235 l 1
 665 720 l 1
 835 720 l 1
 697 0 l 1
 537 0 l 1
 631 490 l 1
 240 0 l 1
EndSplineSet
Fore
SplineSet
88.75 96 m 5
 211 735 l 5
 365.25 705.75 l 5
 274.05078125 235.163085938 l 5
 677 735 l 5
 817 623 l 5
 694 -15 l 5
 540 15 l 5
 630.926757812 489.91796875 l 5
 228 -15 l 5
 88.75 96 l 5
EndSplineSet
EndChar

StartChar: afii10027
Encoding: 1049 1049 40
Width: 1000
Flags: HMW
LayerCount: 3
Back
SplineSet
624 920 m 1xd0
 744 920 l 1
 726 825 656 753 526 753 c 0
 396 753 358 826 376 920 c 1
 496 920 l 1
 486 870 506 847 544 847 c 0
 582 847 614 870 624 920 c 1xd0
240 0 m 5
 70 0 l 5
 208 720 l 5
 368 720 l 5
 274 235 l 5
 665 720 l 5xd0
 835 720 l 5xe0
 697 0 l 5
 537 0 l 5
 631 490 l 5
 240 0 l 5
EndSplineSet
Fore
SplineSet
715.75 870 m 1
 676.997070312 800.948242188 l 1
 526.08984375 753.112304688 l 1
 395.553710938 801.323242188 l 1
 378 907.75 l 1
 496.079101562 920 l 1
 501.999023438 864.768554688 l 1
 543.930664062 847.05859375 l 1
 594.458984375 864.768554688 l 1
 624.04296875 920 l 1
 715.75 870 l 1
88.75 96 m 1
 211 735 l 1
 365.25 705.75 l 1
 274.05078125 235.163085938 l 1
 677 735 l 1
 817 623 l 1
 694 -15 l 1
 540 15 l 1
 630.926757812 489.91796875 l 1
 228 -15 l 1
 88.75 96 l 1
EndSplineSet
EndChar

StartChar: afii10028
Encoding: 1050 1050 41
Width: 730
Flags: HMW
LayerCount: 3
Back
SplineSet
70 0 m 1
 208 720 l 1
 368 720 l 1
 312 430 l 1
 346 430 l 2
 392 430 416 462 445 499 c 2
 546 628 l 2
 618 719 690 720 752 720 c 2
 789 720 l 1
 751 573 l 1
 715 573 l 2
 682 573 659 563 618 512 c 2
 558 433 l 2
 536 405 505 374 461 368 c 1
 511 361 560 311 591 238 c 2
 690 0 l 1
 510 0 l 1
 435 194 l 2
 407 267 376 295 309 295 c 2
 286 295 l 1
 230 0 l 1
 70 0 l 1
EndSplineSet
Fore
SplineSet
750.75 719.921875 m 5
 750.685546875 572.704101562 l 5
 714.671875 572.704101562 l 5
 671.841796875 561.606445312 l 5
 619.368164062 511.087890625 l 5
 558.061523438 430.563476562 l 5
 517.000976562 389.025390625 l 5
 460.665039062 367.969726562 l 5
 532.815429688 327.712890625 l 5
 665.150390625 52 l 5
 517 -15 l 5
 386.596679688 271.897460938 l 5
 308.944335938 295.028320312 l 5
 286.01953125 295.028320312 l 5
 227.25 -15 l 5
 72.75 14 l 5
 211 735 l 5
 365 705 l 5
 311.862304688 429.822265625 l 5
 345.708007812 429.822265625 l 5
 398.991210938 448.491210938 l 5
 444.743164062 498.844726562 l 5
 545.901367188 629.365234375 l 5
 654.813476562 711.15625 l 5
 750.75 719.921875 l 5
EndSplineSet
EndChar

StartChar: afii10029
Encoding: 1051 1051 42
Width: 1000
Flags: HM
LayerCount: 3
Back
SplineSet
225 412 m 2xa0
 285 720 l 1
 824 720 l 1
 686 0 l 1
 526 0 l 1
 636 575 l 1
 412 575 l 1
 373 373 l 2
 332 161 274 -15 101 -15 c 0
 70 -15 30 -7 15 5 c 1x60
 38 152 l 1
 49 145 63 135 88 135 c 0
 173 135 194 249 225 412 c 2xa0
EndSplineSet
Fore
SplineSet
285.024414062 720.004882812 m 1
 823.965820312 720.004882812 l 1
 686 0 l 1
 526.109375 0 l 1
 635.899414062 574.87109375 l 1
 411.985351562 574.87109375 l 1
 372.888671875 372.805664062 l 1
 286.399414062 99.4072265625 l 1
 100.875 -15.0009765625 l 1
 51.87890625 -9.4970703125 l 1
 15.01171875 4.8603515625 l 1
 37.853515625 151.912109375 l 1
 57.65234375 140.831054688 l 1
 87.953125 134.994140625 l 1
 176.704101562 212.346679688 l 1
 225.001953125 411.927734375 l 1
 285.024414062 720.004882812 l 1
EndSplineSet
Colour: ff0000
EndChar

StartChar: afii10030
Encoding: 1052 1052 43
Width: 923
Flags: HMW
LayerCount: 3
Back
SplineSet
230 0 m 1
 70 0 l 1
 208 720 l 1
 408 720 l 1
 498 193 l 1
 791 720 l 1
 991 720 l 1
 853 0 l 1
 693 0 l 1
 777 443 l 1
 529 0 l 1
 394 0 l 1
 314 443 l 1
 230 0 l 1
EndSplineSet
Fore
SplineSet
227.25 -15 m 1
 72.75 14.5 l 1
 210.75 735 l 1
 412 696.75 l 1
 498 193 l 1
 799.25 735 l 1
 987 699 l 1
 850.25 -14.5 l 1
 695.75 15 l 1
 777 443 l 1
 521 -14.5 l 1
 383 63 l 1
 314 443 l 1
 227.25 -15 l 1
EndSplineSet
EndChar

StartChar: afii10031
Encoding: 1053 1053 44
Width: 757
Flags: HMW
LayerCount: 3
Back
SplineSet
230 0 m 1
 70 0 l 1
 208 720 l 1
 368 720 l 1
 314 440 l 1
 601 440 l 1
 655 720 l 1
 815 720 l 1
 677 0 l 1
 517 0 l 1
 573 295 l 1
 286 295 l 1
 230 0 l 1
EndSplineSet
Fore
SplineSet
227 -15 m 1
 72.75 14.5 l 1
 210.75 735 l 1
 365.25 705.5 l 1
 314 440 l 1
 601 440 l 1
 658 735 l 1
 812.25 705.5 l 1
 674.25 -14.75 l 1
 519.75 14.75 l 1
 573 295 l 1
 286 295 l 1
 227 -15 l 1
EndSplineSet
EndChar

StartChar: afii10032
Encoding: 1054 1054 45
Width: 765
Flags: HMW
LayerCount: 3
Back
SplineSet
109 360 m 0
 150 577 304 735 524 735 c 0
 743 735 835 577 794 360 c 0
 751 143 598 -15 379 -15 c 0
 159 -15 66 143 109 360 c 0
274 360 m 0
 245 213 296 125 406 125 c 0
 515 125 600 213 629 360 c 0
 657 507 606 595 497 595 c 0
 387 595 302 507 274 360 c 0
EndSplineSet
Fore
SplineSet
525.01953125 742.21484375 m 5
 762.13671875 633.947265625 l 5
 800.348632812 359.75 l 5
 656.030273438 85.484375 l 5
 377.153320312 -22.7138671875 l 5
 138.85546875 85.5537109375 l 5
 101.82421875 359.75 l 5
 245.026367188 633.922851562 l 5
 525.01953125 742.21484375 l 5
404.702148438 120.048828125 m 5
 549.083984375 183.623046875 l 5
 632.243164062 359.495117188 l 5
 617.331054688 535.614257812 l 5
 497.640625 599.112304688 l 5
 352.557617188 535.520507812 l 5
 270.099609375 359.495117188 l 5
 284.309570312 183.623046875 l 5
 404.702148438 120.048828125 l 5
EndSplineSet
EndChar

StartChar: afii10033
Encoding: 1055 1055 46
Width: 1000
Flags: HMW
LayerCount: 3
Back
SplineSet
230 0 m 5
 70 0 l 5
 208 720 l 5
 815 720 l 5
 677 0 l 5
 517 0 l 5
 627 575 l 5
 340 575 l 5
 230 0 l 5
EndSplineSet
Fore
SplineSet
227 -15 m 1
 72.75 14.25 l 1
 208 720 l 1
 815 720 l 1
 674 -15 l 1
 519.75 14 l 1
 627 575 l 1
 340 575 l 1
 227 -15 l 1
EndSplineSet
EndChar

StartChar: afii10034
Encoding: 1056 1056 47
Width: 672
Flags: HMW
LayerCount: 3
Back
SplineSet
230 0 m 1
 70 0 l 1
 208 720 l 1
 483 720 l 2
 628 720 757 654 723 479 c 0
 696 334 576 230 397 230 c 2
 274 230 l 1
 230 0 l 1
341 580 m 1
 300 370 l 1
 410 370 l 2
 513 370 550 429 560 476 c 0
 571 534 544 580 449 580 c 2
 341 580 l 1
EndSplineSet
Fore
SplineSet
72.5 13.25 m 1
 207.946289062 720 l 1
 487.875 720 l 1
 678.693359375 671.341796875 l 1
 732.592773438 481.538085938 l 1
 624.529296875 299.108398438 l 1
 400.208984375 229.883789062 l 1
 274.205078125 229.883789062 l 1
 226.5 -16 l 1
 72.5 13.25 l 1
300.234375 370.3203125 m 1
 413.389648438 370.3203125 l 1
 525.458984375 406.431640625 l 1
 566.358398438 478.391601562 l 1
 550.362304688 549.108398438 l 1
 453.18359375 580.006835938 l 1
 340.819335938 580.006835938 l 1
 300.234375 370.3203125 l 1
EndSplineSet
EndChar

StartChar: afii10035
Encoding: 1057 1057 48
Width: 741
Flags: HMW
LayerCount: 3
Back
SplineSet
274 360 m 0
 245 213 301 125 411 125 c 0
 489 125 550 165 591 250 c 1
 740 206 l 1
 669 68 557 -15 384 -15 c 0
 164 -15 66 143 109 360 c 0
 150 577 314 735 534 735 c 0
 697 735 827 643 799 479 c 1
 634 479 l 1
 640 559 585 595 507 595 c 0
 397 595 302 507 274 360 c 0
EndSplineSet
Fore
SplineSet
410.446289062 120.3515625 m 5
 516.383789062 151.547851562 l 5
 593.94140625 247.729492188 l 5
 706.110351562 157.017578125 l 5
 603.34765625 37.599609375 l 5
 382.810546875 -22.2412109375 l 5
 141.942382812 85.974609375 l 5
 102.211914062 360.052734375 l 5
 250.50390625 634.319335938 l 5
 535.780273438 742.518554688 l 5
 743.9453125 674.68359375 l 5
 788.73046875 535.4375 l 5
 637.731445312 481.477539062 l 5
 605.102539062 571.196289062 l 5
 508.31640625 599.754882812 l 5
 358.216796875 536.1640625 l 5
 270.741210938 360.138671875 l 5
 287.407226562 183.96875 l 5
 410.446289062 120.3515625 l 5
EndSplineSet
EndChar

StartChar: afii10036
Encoding: 1058 1058 49
Width: 697
Flags: HMW
LayerCount: 3
Back
SplineSet
412 0 m 1
 252 0 l 1
 362 575 l 1
 140 575 l 1
 168 720 l 1
 772 720 l 1
 744 575 l 1
 522 575 l 1
 412 0 l 1
EndSplineSet
Fore
SplineSet
409.25 -14.75 m 5
 254.75 14 l 5
 362 575 l 5
 140 575 l 5
 140 720 l 5
 772 720 l 5
 772 575 l 5
 522 575 l 5
 409.25 -14.75 l 5
EndSplineSet
EndChar

StartChar: afii10037
Encoding: 1059 1059 50
Width: 1000
Flags: HMW
LayerCount: 3
Back
SplineSet
335 196 m 1
 148 720 l 1
 315 720 l 1
 440 349 l 1
 672 720 l 1
 833 720 l 1
 472 159 l 2
 393 35 314 -15 223 -15 c 0
 168 -15 110 1 90 26 c 1
 149 157 l 1
 164 144 200 123 232 123 c 0
 265 123 297 135 321 173 c 2
 335 196 l 1
EndSplineSet
Fore
SplineSet
160.5 685 m 1
 310 735 l 1
 440.028320312 348.953125 l 1
 681.25 735 l 1
 796.5 663 l 1
 472.122070312 158.96875 l 1
 352.08984375 25.5673828125 l 1
 223.1171875 -14.921875 l 1
 143.579101562 -3.849609375 l 1
 90.236328125 25.92578125 l 1
 159 151 l 1
 184.23828125 135.088867188 l 1
 232.120117188 122.95703125 l 1
 279.959960938 133.74609375 l 1
 320.985351562 172.977539062 l 1
 334.993164062 195.8984375 l 1
 235.10481748 476 l 0
 160.5 685 l 1
EndSplineSet
EndChar

StartChar: afii10038
Encoding: 1060 1060 51
Width: 1000
Flags: HM
LayerCount: 3
Back
SplineSet
499 -15 m 1x60
 339 -15 l 1
 357 75 l 1
 182 77 61 166 99 360 c 0
 135 553 290 642 467 645 c 1
 484 735 l 1
 644 735 l 1
 627 645 l 1
 800 642 921 553 885 360 c 0
 847 166 692 77 517 75 c 1
 499 -15 l 1x60
720 360 m 0
 739 462 684 498 598 500 c 1
 545 220 l 1x90
 622 222 699 257 720 360 c 0
264 360 m 0x60
 243 257 299 222 385 220 c 1
 438 500 l 1
 360 498 283 462 264 360 c 0x60
EndSplineSet
Fore
SplineSet
342 1 m 1
 357.032226562 75.0263671875 l 1
 146.849609375 141.21875 l 1
 96.80859375 359.97265625 l 1
 230.529296875 577.952148438 l 1
 466.905273438 644.895507812 l 1
 486.75 750 l 1
 641.25 721 l 1
 626.961914062 644.895507812 l 1
 835.544921875 577.952148438 l 1
 887.28515625 359.97265625 l 1
 752.044921875 141.21875 l 1
 517.005859375 75.0263671875 l 1
 496 -30.0908203125 l 1
 342 1 l 1
385.041992188 220.001953125 m 1
 438.061523438 499.845703125 l 1
 331.30078125 469.549804688 l 1
 265.083984375 359.802734375 l 1
 285.831054688 249.89453125 l 1
 385.041992188 220.001953125 l 1
597.951171875 500.012695312 m 1
 544.932617188 220.16796875 l 1
 651.15625 249.9453125 l 1
 719.010742188 360.057617188 l 1
 696.9453125 469.609375 l 1
 597.951171875 500.012695312 l 1
EndSplineSet
EndChar

StartChar: afii10039
Encoding: 1061 1061 52
Width: 722
Flags: HMW
LayerCount: 3
Back
SplineSet
204 0 m 1
 20 0 l 1
 350 373 l 1
 176 720 l 1
 364 720 l 1
 461 492 l 1
 652 720 l 1
 835 720 l 1
 526 368 l 1
 702 0 l 1
 524 0 l 1
 416 250 l 1
 204 0 l 1
EndSplineSet
Fore
SplineSet
191.5 -14.75 m 5
 85.75 74.5 l 5
 350 373 l 5
 201.75 668.75 l 5
 357.75 735 l 5
 461 492 l 5
 664.5 735 l 5
 770.75 646.75 l 5
 526 368 l 5
 678.5 49 l 5
 530.25 -14.5 l 5
 416 250 l 5
 191.5 -14.75 l 5
EndSplineSet
EndChar

StartChar: afii10040
Encoding: 1062 1062 53
Width: 1000
Flags: HMW
LayerCount: 3
Back
SplineSet
655 720 m 5
 815 720 l 5
 704 144 l 5
 790 144 l 5
 730 -169 l 5
 570 -169 l 5
 603 0 l 5
 70 0 l 5
 208 720 l 5
 368 720 l 5
 257 145 l 5
 544 145 l 5
 655 720 l 5
EndSplineSet
Fore
SplineSet
658 735 m 1
 812.25 705.25 l 1
 704 144 l 1
 790 144 l 1
 727 -184.020507812 l 5
 572.75 -154.5 l 5
 603 0 l 1
 70 0 l 1
 211 735 l 1
 365.25 705.25 l 1
 257 145 l 1
 544 145 l 1
 658 735 l 1
EndSplineSet
EndChar

StartChar: afii10041
Encoding: 1063 1063 54
Width: 1000
Flags: HM
LayerCount: 3
Back
SplineSet
749 720 m 1
 611 0 l 1
 451 0 l 1
 503 276 l 1
 462 256 407 241 333 241 c 0
 139 241 109 363 142 535 c 2
 178 720 l 1
 338 720 l 1
 304 544 l 2
 281 425 299 378 393 378 c 0
 450 378 498 389 529 410 c 1
 589 720 l 1
 749 720 l 1
EndSplineSet
Fore
SplineSet
608 -15 m 1
 453.75 14.25 l 1
 502.826171875 275.928710938 l 1
 432.633789062 249.368164062 l 1
 333.361328125 239.1640625 l 1
 149.100585938 323.259765625 l 1
 141.948242188 534.6015625 l 1
 181 735 l 1
 335.25 705.25 l 1
 304.005859375 543.7734375 l 1
 304.485351562 418.00390625 l 1
 394.584960938 378.865234375 l 1
 473.908203125 387.114257812 l 1
 528.921875 409.813476562 l 1
 592 735 l 1
 746.25 705.25 l 1
 608 -15 l 1
EndSplineSet
EndChar

StartChar: afii10042
Encoding: 1064 1064 55
Width: 1000
Flags: HMW
LayerCount: 3
Back
SplineSet
882 720 m 5
 1042 720 l 5
 904 0 l 5
 70 0 l 5
 208 720 l 5
 368 720 l 5
 257 145 l 5
 434 145 l 5
 545 720 l 5
 705 720 l 5
 594 145 l 5
 771 145 l 5
 882 720 l 5
EndSplineSet
Fore
SplineSet
885 735 m 1
 1039.25 705.25 l 1
 904 0 l 1
 70 0 l 1
 211 735 l 1
 365.25 705.25 l 1
 257 145 l 1
 434 145 l 1
 548 735 l 1
 702.25 705.25 l 1
 594 145 l 1
 771 145 l 1
 885 735 l 1
EndSplineSet
EndChar

StartChar: afii10043
Encoding: 1065 1065 56
Width: 1000
Flags: HMW
LayerCount: 3
Back
SplineSet
1042 720 m 5
 931 144 l 5
 1017 144 l 5
 957 -169 l 5
 797 -169 l 5
 830 0 l 5
 70 0 l 5
 208 720 l 5
 368 720 l 5
 257 145 l 5
 434 145 l 5
 545 720 l 5
 705 720 l 5
 594 145 l 5
 771 145 l 5
 882 720 l 5
 1042 720 l 5
EndSplineSet
Fore
SplineSet
931 144 m 1
 1017 144 l 1
 954 -184.020507812 l 1
 799.75 -155 l 1
 830 0 l 1
 70 0 l 1
 211 735 l 1
 365.25 705.25 l 1
 257 145 l 1
 434 145 l 1
 548 735 l 1
 702.25 705.25 l 1
 594 145 l 1
 771 145 l 1
 885 735 l 1
 1039.25 705.25 l 1
 931 144 l 1
EndSplineSet
EndChar

StartChar: afii10044
Encoding: 1066 1066 57
Width: 1000
Flags: HM
LayerCount: 3
Back
SplineSet
473 720 m 1
 426 480 l 1
 549 480 l 2
 728 480 810 386 782 241 c 0
 749 66 595 0 450 0 c 2
 175 0 l 1
 285 575 l 1
 130 575 l 1
 158 720 l 1
 473 720 l 1
401 350 m 1
 361 140 l 1
 469 140 l 2
 564 140 609 186 620 244 c 0
 629 291 614 350 511 350 c 2
 401 350 l 1
EndSplineSet
Fore
SplineSet
425.899414062 480.25390625 m 1
 548.943359375 480.25390625 l 1
 744.314453125 418.682617188 l 1
 784.002929688 241.373046875 l 1
 657.541015625 51.501953125 l 1
 450.075195312 0.2451171875 l 1
 175.060546875 0.2451171875 l 1
 285.016601562 575.1171875 l 1
 130.127929688 575.1171875 l 1
 130 720 l 1
 473 720 l 1
 425.899414062 480.25390625 l 1
361.04296875 140.30078125 m 1
 468.998046875 140.30078125 l 1
 573.935546875 169.235351562 l 1
 618.7890625 244.51953125 l 1
 606.108398438 316.4375 l 1
 511.013671875 350.204101562 l 1
 401.057617188 350.204101562 l 1
 361.04296875 140.30078125 l 1
EndSplineSet
EndChar

StartChar: afii10045
Encoding: 1067 1067 58
Width: 1000
Flags: HM
LayerCount: 3
Back
SplineSet
870 0 m 1
 710 0 l 1
 848 720 l 1
 1008 720 l 1
 870 0 l 1
208 720 m 1
 368 720 l 1
 321 480 l 1
 444 480 l 2
 623 480 705 386 677 241 c 0
 644 66 490 0 345 0 c 2
 70 0 l 1
 208 720 l 1
296 350 m 1
 256 140 l 1
 364 140 l 2
 459 140 504 186 515 244 c 0
 524 291 509 350 406 350 c 2
 296 350 l 1
EndSplineSet
Fore
SplineSet
365 705.25 m 5
 320.721679688 480.008789062 l 5
 443.848632812 480.008789062 l 5
 639.1796875 418.4375 l 5
 678.825195312 241.127929688 l 5
 552.396484375 51.2568359375 l 5
 344.896484375 0 l 5
 69.9658203125 0 l 5
 211 735 l 5
 365 705.25 l 5
255.698242188 140.0546875 m 5
 363.653320312 140.0546875 l 5
 468.630859375 168.990234375 l 5
 513.526367188 244.274414062 l 5
 500.772460938 316.19140625 l 5
 405.66796875 349.958984375 l 5
 295.712890625 349.958984375 l 5
 255.698242188 140.0546875 l 5
712.75 14.25 m 1
 850.75 735 l 1
 1005.25 705.25 l 1
 867.25 -15 l 1
 712.75 14.25 l 1
EndSplineSet
EndChar

StartChar: afii10046
Encoding: 1068 1068 59
Width: 1000
Flags: HMW
LayerCount: 3
Back
SplineSet
208 720 m 1
 368 720 l 1
 321 480 l 1
 444 480 l 2
 623 480 705 386 677 241 c 0
 644 66 490 0 345 0 c 2
 70 0 l 1
 208 720 l 1
296 350 m 1
 256 140 l 1
 364 140 l 2
 459 140 504 186 515 244 c 0
 524 291 509 350 406 350 c 2
 296 350 l 1
EndSplineSet
Fore
SplineSet
365 705.25 m 1
 320.721679688 480.008789062 l 1
 443.848632812 480.008789062 l 1
 639.1796875 418.4375 l 1
 678.825195312 241.127929688 l 1
 552.396484375 51.2568359375 l 1
 344.896484375 0 l 1
 69.9658203125 0 l 1
 211 735 l 1
 365 705.25 l 1
255.698242188 140.0546875 m 1
 363.653320312 140.0546875 l 1
 468.630859375 168.990234375 l 1
 513.526367188 244.274414062 l 1
 500.772460938 316.19140625 l 1
 405.66796875 349.958984375 l 1
 295.712890625 349.958984375 l 1
 255.698242188 140.0546875 l 1
EndSplineSet
EndChar

StartChar: afii10047
Encoding: 1069 1069 60
Width: 1000
Flags: HM
LayerCount: 3
Back
SplineSet
343 305 m 1
 367 430 l 1
 612 430 l 1
 625 534 568 595 477 595 c 0
 399 595 325 559 286 469 c 1
 142 513 l 1
 209 657 341 735 504 735 c 0
 734 735 811 577 770 360 c 0
 727 143 594 -15 354 -15 c 0
 181 -15 96 68 79 206 c 1
 244 250 l 1
 253 165 303 125 381 125 c 0
 476 125 563 186 588 305 c 1
 343 305 l 1
EndSplineSet
Fore
SplineSet
367.092773438 430.130859375 m 1
 612.012695312 430.130859375 l 1
 586.724609375 555.395507812 l 1
 478.098632812 599.80859375 l 1
 365.7734375 569.96484375 l 1
 283.293945312 471.240234375 l 1
 176 561 l 1
 284.345703125 684.440429688 l 1
 505.6484375 742.571289062 l 1
 744.90234375 634.303710938 l 1
 776.89453125 360.106445312 l 1
 640.038085938 85.8408203125 l 1
 352.678710938 -22.357421875 l 1
 152.76171875 37.5673828125 l 1
 84.75 177.75 l 1
 240.439453125 247.783203125 l 1
 283.868164062 151.482421875 l 1
 380.229492188 120.235351562 l 1
 512.556640625 166.53515625 l 1
 587.920898438 305 l 1
 367 305 l 1
 367.092773438 430.130859375 l 1
EndSplineSet
EndChar

StartChar: afii10048
Encoding: 1070 1070 61
Width: 1000
Flags: HM
LayerCount: 3
Back
SplineSet
230 0 m 1xb0
 70 0 l 1
 208 720 l 1
 368 720 l 1
 314 440 l 1
 419 440 l 1
 478 615 612 735 804 735 c 0xb0
 1023 735 1105 577 1064 360 c 0
 1021 143 878 -15 659 -15 c 0
 461 -15 375 112 390 295 c 1x70
 286 295 l 1
 230 0 l 1xb0
564 360 m 0
 535 213 576 125 686 125 c 0
 795 125 870 213 899 360 c 0x68
 927 507 886 595 777 595 c 0
 667 595 592 507 564 360 c 0
EndSplineSet
Fore
SplineSet
72.75 14.25 m 1
 211 735 l 1
 365 705.25 l 1
 313.947265625 439.911132812 l 1
 418.984375 439.911132812 l 1
 557.650390625 658.786132812 l 1
 804.864257812 742.26171875 l 1
 1036.84765625 634.02734375 l 1
 1069.98925781 359.795898438 l 1
 930.772460938 85.6845703125 l 1
 656.99609375 -22.498046875 l 1
 438.405273438 65.501953125 l 1
 389.973632812 294.861328125 l 1
 285.936523438 294.861328125 l 1
 227 -15 l 1
 72.75 14.25 l 1
684.546875 120.094726562 m 1
 823.783203125 183.754882812 l 1
 901.798828125 359.711914062 l 1
 891.989257812 535.771484375 l 1
 777.399414062 599.328125 l 1
 637.397460938 535.669921875 l 1
 560.147460938 359.711914062 l 1
 569.12890625 183.685546875 l 1
 684.546875 120.094726562 l 1
EndSplineSet
EndChar

StartChar: afii10049
Encoding: 1071 1071 62
Width: 1000
Flags: HM
LayerCount: 3
Back
SplineSet
763 720 m 1
 625 0 l 1
 465 0 l 1
 512 250 l 1
 474 250 l 2
 393 250 338 227 279 121 c 2
 213 0 l 1
 20 0 l 1
 121 167 l 2
 162 233 226 298 303 307 c 1
 203 319 137 389 158 499 c 0
 189 659 323 720 478 720 c 2
 763 720 l 1
538 385 m 1
 575 575 l 1
 507 575 l 2
 412 575 334 569 318 481 c 0
 304 412 355 385 468 385 c 2
 538 385 l 1
EndSplineSet
Fore
SplineSet
303.135742188 307.109375 m 1
 183.6171875 363.3125 l 1
 155.918945312 498.717773438 l 1
 271.676757812 672.540039062 l 1
 478.114257812 720.004882812 l 1
 763.131835938 720.004882812 l 1
 622 -15 l 1
 467.75 14.25 l 5
 511.959960938 249.926757812 l 1
 445 250 l 1
 199 -15 l 1
 95 81 l 1
 303.135742188 307.109375 l 1
575.065429688 574.87109375 m 1
 507.125 574.87109375 l 1
 385.234375 561.739257812 l 1
 319.006835938 480.185546875 l 1
 346.971679688 404.807617188 l 1
 468.110351562 384.887695312 l 1
 538.052734375 384.887695312 l 1
 575.065429688 574.87109375 l 1
EndSplineSet
EndChar

StartChar: a
Encoding: 97 97 63
Width: 551
Flags: HMW
HStem: -15 112<141 267.5> 0 21G<364 515 364 364> 413 122<313.5 362.5>
LayerCount: 3
Back
SplineSet
73.947265625 22.37109375 m 5
 44.2490234375 131.791992188 l 5
 121.755859375 252.703125 l 5
 280.166015625 300.772460938 l 5
 348.284179688 310.544921875 l 5
 396.208007812 324.694335938 l 5
 399.209960938 336.78515625 l 5
 391.030273438 387.555664062 l 5
 331.268554688 412.811523438 l 5
 263.432617188 388.522460938 l 5
 226.231445312 335.784179688 l 5
 107.272460938 377.799804688 l 5
 216.801757812 501.270507812 l 5
 362.280273438 534.7734375 l 5
 515.10546875 484.677734375 l 5
 544.260742188 313.86328125 l 5
 485.25 0 l 5
 341.779296875 0 l 5
 350.270507812 54.013671875 l 5
 273.034179688 -0.1083984375 l 5
 188.295898438 -15.0927734375 l 5
 188.295898438 -15.0927734375 l 5
 73.947265625 22.37109375 l 5
379.28515625 234.834960938 m 5
 342.772460938 222.986328125 l 5
 282.250976562 208.819335938 l 5
 223.052734375 187.340820312 l 5
 195.303710938 141.71484375 l 5
 202.557617188 110.655273438 l 5
 244.322265625 96.7802734375 l 5
 313.8984375 117.642578125 l 5
 366.282226562 164.635742188 l 5
 379.28515625 234.834960938 l 5
350 54 m 1xa0
 298 2 250 -15 188 -15 c 0
 94 -15 25 36 44 132 c 0
 65 244 151 286 280 301 c 0
 335 307 368 313 396 325 c 1
 399 337 l 2
 405 371 394 413 331 413 c 0x60
 273 413 243 374 226 336 c 1
 107 378 l 1
 156 498 265 535 362 535 c 0
 495 535 576 475 544 314 c 2
 505 106 l 2
 494 53 500 19 515 0 c 1
 364 0 l 1
 350 13 349 37 350 54 c 1xa0
366 165 m 1
 379 235 l 1
 359 228 334 219 282 209 c 0
 234 200 201 183 195 142 c 0
 192 119 201 97 244 97 c 0xa0
 291 97 342 130 366 165 c 1
EndSplineSet
Fore
SplineSet
67.541015625 17.6220703125 m 5
 37.2490234375 129.231445312 l 5
 116.305664062 252.560546875 l 5
 277.883789062 301.590820312 l 5
 396.247070312 325.991210938 l 5
 399.30859375 338.32421875 l 5
 390.965820312 390.110351562 l 5
 330.008789062 415.87109375 l 5
 260.81640625 391.095703125 l 5
 222.87109375 337.302734375 l 5
 124.459960938 406.118164062 l 5
 213.252929688 506.098632812 l 5
 361.640625 540.272460938 l 5
 517.522460938 489.174804688 l 5
 544.260742188 314.943359375 l 5
 482 -15 l 5
 343.485351562 11.2783203125 l 5
 349.390625 49.8974609375 l 5
 270.609375 -5.3076171875 l 5
 184.176757812 -20.591796875 l 5
 67.541015625 17.6220703125 l 5
378.985351562 234.334960938 m 5
 280.010742188 207.798828125 l 5
 219.62890625 185.890625 l 5
 191.32421875 139.352539062 l 5
 198.723632812 107.671875 l 5
 241.323242188 93.51953125 l 5
 312.291015625 114.798828125 l 5
 365.72265625 162.731445312 l 5
 378.985351562 234.334960938 l 5
EndSplineSet
Validated: 1
Colour: ffff00
EndChar

StartChar: b
Encoding: 98 98 64
Width: 587
Flags: HMW
HStem: -15 125<292.5 344.5 285.5 384> 0 110<50 344.5> 410 125<402 404> 700 20G<188 338 338 338>
LayerCount: 3
Back
SplineSet
188 720 m 1x70
 338 720 l 1
 291 475 l 1
 330 522 381 535 423 535 c 0
 547 535 634 442 599 260 c 0
 564 78 446 -15 322 -15 c 0xb0
 263 -15 221 11 201 61 c 1
 190 0 l 1
 50 0 l 1
 188 720 l 1x70
238 260 m 0
 219 158 256 110 315 110 c 0
 374 110 430 158 449 260 c 0
 469 362 436 410 372 410 c 0
 308 410 258 362 238 260 c 0
EndSplineSet
Fore
SplineSet
336.200195312 707.44921875 m 1
 291.850585938 477.212890625 l 1
 357.9296875 525.70703125 l 1
 426.368164062 538.353515625 l 1
 576.956054688 467.737304688 l 1
 605.8671875 257.837890625 l 1
 498.654296875 48.0908203125 l 1
 323.395507812 -22.5087890625 l 1
 246.81640625 -2.9140625 l 1
 200.017578125 54.869140625 l 1
 187 -15 l 1
 52.26953125 11.5009765625 l 1
 191 735 l 1
 336.200195312 707.44921875 l 1
316.25390625 104.869140625 m 1
 399.848632812 142.357421875 l 1
 452.8984375 257.837890625 l 1
 445.728515625 373.384765625 l 1
 374.333984375 410.805664062 l 1
 289.14453125 373.384765625 l 1
 237.690429688 257.837890625 l 1
 247.161132812 142.392578125 l 1
 316.25390625 104.869140625 l 1
EndSplineSet
Validated: 1
Colour: ffff00
EndChar

StartChar: c
Encoding: 99 99 65
Width: 540
Flags: HMW
HStem: -20.5023 127.5<253.333 310.963 253.333 319.123> 313.038 227.46<411.943 432.343 301.783 564.943 411.943 411.943> 412.998 127.5<314.023 375.223>
LayerCount: 3
Back
SplineSet
286.91015625 110.063476562 m 1
 350.787109375 130.216796875 l 1
 396.032226562 196.012695312 l 1
 540 175 l 5
 422.916992188 28.015625 l 1
 263.068359375 -14.8173828125 l 1
 101.563476562 50.6123046875 l 1
 68.166015625 260.032226562 l 1
 182.206054688 469.536132812 l 1
 369.0234375 535.048828125 l 1
 526.005859375 485.078125 l 1
 560.0078125 312.137695312 l 1
 410.037109375 312.137695312 l 1
 404.142578125 382.078125 l 1
 345.100585938 410.001953125 l 1
 265.051757812 371.405273438 l 1
 218.139648438 260.032226562 l 1
 221.391601562 148.7265625 l 1
 286.91015625 110.063476562 l 1
218 260 m 0xa0
 200 163 222 110 287 110 c 0
 335 110 373 135 396 196 c 1
 540 175 l 1
 485 36 375 -15 263 -15 c 0
 129 -15 31 68 68 260 c 0
 105 452 235 535 369 535 c 0
 491 535 602 476 560 312 c 1
 410 312 l 1xc0
 423 368 403 410 345 410 c 0
 283 410 236 357 218 260 c 0xa0
EndSplineSet
Fore
SplineSet
530.26953125 489.577148438 m 5
 562.393554688 325.532226562 l 4
 411.943359375 313.038085938 l 4
 405.96875 384.517578125 l 5
 345.74609375 413 l 5
 264.095703125 373.630859375 l 5
 216.24609375 260.030273438 l 5
 219.5625 146.499023438 l 5
 286.391601562 107.0625 l 5
 351.545898438 127.619140625 l 5
 397.696289062 194.73046875 l 5
 503.48828125 121.788085938 l 5
 425.119140625 23.3740234375 l 5
 262.073242188 -20.31640625 l 5
 97.337890625 46.421875 l 5
 63.2724609375 260.030273438 l 5
 179.59375 473.724609375 l 5
 370.147460938 540.547851562 l 5
 530.26953125 489.577148438 l 5
EndSplineSet
Validated: 1
Colour: ffff00
EndChar

StartChar: d
Encoding: 100 100 66
Width: 578
Flags: HMW
HStem: -22.5008 127.5<263.562 267.642> -7.20081 112.2<263.562 523.152 263.562 380.352> 410.999 127.5<321.192 372.192 287.532 386.472> 706.799 20.4G<510.912 663.912 663.912 663.912>
LayerCount: 3
Back
SplineSet
508 720 m 1xb0
 658 720 l 1
 520 0 l 1
 380 0 l 1
 391 61 l 1
 351 11 299 -15 240 -15 c 0
 116 -15 34 78 69 260 c 0
 104 442 227 535 351 535 c 0
 393 535 440 522 461 475 c 1
 508 720 l 1xb0
430 260 m 0
 450 362 418 410 354 410 c 0
 290 410 239 362 219 260 c 0x70
 200 158 236 110 295 110 c 0
 354 110 411 158 430 260 c 0
EndSplineSet
Fore
SplineSet
656.033203125 707.41015625 m 5
 517 -15 l 5
 381.642578125 11.01953125 l 5
 389.864257812 54.869140625 l 5
 320.096679688 -2.947265625 l 5
 235.7890625 -22.5087890625 l 5
 87.751953125 48.0908203125 l 5
 61.392578125 257.837890625 l 5
 171.11328125 467.737304688 l 5
 348.879882812 538.353515625 l 5
 413.034179688 525.732421875 l 5
 461.120117188 477.212890625 l 5
 511 735 l 5
 656.033203125 707.41015625 l 5
352.108398438 410.805664062 m 5
 266.408203125 373.384765625 l 5
 214.444335938 257.837890625 l 5
 223.298828125 142.357421875 l 5
 291.907226562 104.869140625 l 5
 376.075195312 142.357421875 l 5
 429.5703125 257.837890625 l 5
 422.919921875 373.384765625 l 5
 352.108398438 410.805664062 l 5
EndSplineSet
Validated: 1
Colour: ffff00
EndChar

StartChar: e
Encoding: 101 101 67
Width: 556
Flags: HMW
HStem: -20.4975 127.5<272.44 331.09 272.44 335.68> 216.142 104.04<230.11 360.67 207.67 369.85> 413.002 127.5<325.99 371.38>
VStem: 432.07 158.1<368.122 368.122>
LayerCount: 3
Back
SplineSet
544 141 m 1
 485 38 398 -15 273 -15 c 0
 139 -15 31 68 68 260 c 0
 105 452 246 535 379 535 c 0
 486 535 592 487 585 366 c 0
 579 252 483 217 360 217 c 2
 210 217 l 1
 200 145 240 110 307 110 c 0
 355 110 391 137 409 170 c 1
 544 141 l 1
351 410 m 0
 301 410 249 376 232 319 c 1
 369 319 l 2
 407 319 431 337 430 366 c 0
 429 396 390 410 351 410 c 0
EndSplineSet
Fore
SplineSet
272.001953125 -20.5556640625 m 5
 102.08984375 46.1826171875 l 5
 62.912109375 259.791015625 l 5
 184.750976562 473.485351562 l 5
 379.991210938 540.30859375 l 5
 528.602539062 500.420898438 l 5
 590.100585938 368.118164062 l 5
 520.130859375 248.556640625 l 5
 360.688476562 216.169921875 l 5
 207.719726562 216.169921875 l 5
 227.701171875 134.106445312 l 5
 306.610351562 107.078125 l 5
 370.064453125 125.048828125 l 5
 410.686523438 168.211914062 l 5
 498.370117188 86.6025390625 l 5
 435.3671875 19.587890625 l 5
 272.001953125 -20.5556640625 l 5
230.08203125 320.07421875 m 5
 369.872070312 320.07421875 l 5
 415.905273438 332.908203125 l 5
 432.029296875 367.86328125 l 5
 406.275390625 401.712890625 l 5
 351.505859375 412.67578125 l 5
 278.166992188 388.189453125 l 5
 230.08203125 320.07421875 l 5
EndSplineSet
Validated: 1
Colour: ffff00
EndChar

StartChar: f
Encoding: 102 102 68
Width: 414
Flags: HMW
HStem: -210 132<23 53 19 91> 401 119<124 180 102 202 349 438> 603 128<403.5 424.5 348 428>
LayerCount: 3
Back
SplineSet
5.28125 -76.919921875 m 1
 19.421875 -78.00390625 l 1
 78.890625 -45.3349609375 l 1
 102.284179688 27.03125 l 1
 175.310546875 400.99609375 l 5
 97.2822265625 400.99609375 l 5
 119.374023438 519.873046875 l 5
 197.485351562 519.873046875 l 5
 201.404296875 540.884765625 l 5
 266.541992188 677.138671875 l 5
 398.390625 730.869140625 l 5
 464.340820312 725.783203125 l 5
 509.346679688 714.91015625 l 5
 469.416015625 592.948242188 l 5
 443.541992188 600.119140625 l 5
 415.48046875 602.87109375 l 5
 373.309570312 589.387695312 l 5
 348.456054688 542.76953125 l 5
 344.370117188 519.83984375 l 5
 455.409179688 519.83984375 l 5
 433.401367188 400.962890625 l 5
 322.278320312 400.962890625 l 5
 239.33203125 -28.0166015625 l 1
 168.974609375 -158.783203125 l 1
 30.341796875 -210.087890625 l 1
 -13.6220703125 -206.418945312 l 1
 -54.7724609375 -196.071289062 l 1
 -12.673828125 -72.025390625 l 1
 -12.6728515625 -72.025390625 l 1
 5.28125 -76.919921875 l 1
-54.6728515625 -196 m 1
 -12.6728515625 -72 l 1
 2.3271484375 -77 9.3271484375 -78 19.3271484375 -78 c 0
 77.3271484375 -78 92.3271484375 -26 102.327148438 27 c 2
 175.327148438 401 l 5
 97.3271484375 401 l 5
 119.327148438 520 l 5
 197.327148438 520 l 5
 201.327148438 541 l 6
 222.327148438 651 288.327148438 731 398.327148438 731 c 4
 441.327148438 731 494.327148438 723 509.327148438 715 c 5
 469.327148438 593 l 5
 456.327148438 599 431.327148438 603 415.327148438 603 c 4
 382.327148438 603 358.327148438 587 348.327148438 543 c 6
 344.327148438 520 l 5
 455.327148438 520 l 5
 433.327148438 401 l 5
 322.327148438 401 l 5
 239.327148438 -28 l 2
 218.327148438 -134 142.327148438 -210 30.3271484375 -210 c 0
 6.3271484375 -210 -34.6728515625 -205 -54.6728515625 -196 c 1
EndSplineSet
Fore
SplineSet
14.1513671875 -84.771484375 m 5
 74.8095703125 -51.44921875 l 5
 101.170898438 22.3642578125 l 5
 175.158203125 401.05859375 l 5
 102.423828125 401.05859375 l 5
 102.517578125 520.0625 l 5
 195.776367188 520.0625 l 5
 199.7734375 546.495117188 l 5
 266.213867188 685.473632812 l 5
 400.69921875 740.278320312 l 5
 467.96875 735.090820312 l 5
 508.51953125 725.275390625 l 5
 473.145507812 599.599609375 l 5
 418.130859375 609.720703125 l 5
 375.1171875 595.967773438 l 5
 349.766601562 548.416992188 l 5
 345.598632812 520.029296875 l 5
 438.013671875 520.029296875 l 5
 438.005859375 401.024414062 l 5
 322.565429688 401.024414062 l 5
 238.459960938 -33.78515625 l 5
 166.6953125 -167.166992188 l 5
 25.2900390625 -219.497070312 l 5
 -52.5 -207.422851562 l 5
 -18.5859375 -78.673828125 l 5
 -18.5849609375 -78.673828125 l 5
 14.1513671875 -84.771484375 l 5
EndSplineSet
Validated: 1
Colour: ffff00
EndChar

StartChar: g
Encoding: 103 103 69
Width: 575
Flags: HMW
HStem: -220 116<215.5 277.5 215.5 309.5> -220 230 -5 125<262 264> 410 110<319.5 615> 410 125<319.5 371.5 280 378.5>
VStem: 26 130
LayerCount: 3
Back
SplineSet
519 20 m 2xb4
 494 -109 401 -220 218 -220 c 0
 116 -220 21 -179 26 -90 c 0
 29 -44 65 9 162 10 c 1
 84 42 39 126 66 265 c 0
 101 447 218 535 342 535 c 0x4c
 401 535 443 509 464 459 c 1
 475 520 l 1
 615 520 l 1
 519 20 l 2xb4
427 265 m 0
 447 367 408 410 349 410 c 0
 290 410 236 367 216 265 c 0
 197 163 230 120 294 120 c 0xb4
 358 120 408 163 427 265 c 0
243 -5 m 0
 220 -5 198 -2 178 4 c 1
 166 -6 157 -22 156 -44 c 0
 153 -88 191 -104 240 -104 c 0
 315 -104 355 -49 369 18 c 2
 374 45 l 1
 336 6 285 -5 243 -5 c 0
EndSplineSet
Fore
SplineSet
214.24609375 -227.4765625 m 1
 75.328125 -195.2265625 l 1
 18.4228515625 -94.919921875 l 1
 51.7333984375 -26.6259765625 l 1
 157.106445312 7.037109375 l 1
 67.888671875 96.1767578125 l 1
 59.1513671875 267.142578125 l 1
 165.907226562 474.448242188 l 1
 340.772460938 542.470703125 l 1
 417.51171875 522.82421875 l 1
 465.171875 464.922851562 l 1
 478 535 l 1
 612.834960938 509.451171875 l 1
 518.463867188 17.3193359375 l 1
 428.122070312 -154.470703125 l 1
 214.24609375 -227.4765625 l 1
157.8828125 -18.9033203125 m 1
 150.899414062 -47.896484375 l 1
 173.857421875 -95.353515625 l 1
 236.609375 -109.19921875 l 1
 325.657226562 -72.611328125 l 1
 368.15234375 15.193359375 l 1
 373.33984375 42.7490234375 l 1
 308.079101562 2.3505859375 l 1
 239.7578125 -8.271484375 l 1
 205.40625 -5.9755859375 l 1
 173.348632812 0.9130859375 l 1
 173.34765625 0.9130859375 l 1
 157.8828125 -18.9033203125 l 1
347.744140625 414.922851562 m 1
 265.03125 380.018554688 l 1
 212.036132812 267.311523438 l 1
 220.0390625 154.2734375 l 1
 291.624023438 119.361328125 l 1
 376.697265625 154.307617188 l 1
 427.333007812 267.311523438 l 1
 417.766601562 380.018554688 l 1
 347.744140625 414.922851562 l 1
EndSplineSet
Validated: 1
Colour: ffff00
EndChar

StartChar: h
Encoding: 104 104 70
Width: 584
Flags: HMW
HStem: 0 21G<50 200 50 50 375 375 375 525> 409 126<347 510> 700 20G<188 338 338 338>
LayerCount: 3
Back
SplineSet
200 0 m 1
 50 0 l 1
 188 720 l 1
 338 720 l 1
 286 455 l 1
 332 512 376 535 438 535 c 0
 582 535 609 443 586 319 c 2
 525 0 l 1
 375 0 l 1
 435 315 l 2
 447 375 431 409 373 409 c 0
 321 409 270 367 253 283 c 2
 200 0 l 1
EndSplineSet
Fore
SplineSet
50.4345703125 11.5 m 1
 189.25 735 l 1
 334.081054688 707.450195312 l 1
 284.619140625 456.979492188 l 1
 355.958984375 519.55859375 l 1
 439.543945312 538.5234375 l 1
 578.865234375 475.791992188 l 1
 587.637695312 318.290039062 l 1
 523.75 -15 l 1
 378.41015625 11.01953125 l 1
 436.317382812 314.130859375 l 1
 431.66015625 384.967773438 l 1
 373.30859375 409.956054688 l 1
 298.780273438 377.833007812 l 1
 251.03515625 281.557617188 l 1
 195.25 -15 l 1
 50.4375 11.3310546875 l 1
 50.4345703125 11.5 l 1
EndSplineSet
Validated: 1
Colour: ffff00
EndChar

StartChar: i
Encoding: 105 105 71
Width: 258
Flags: HMW
HStem: 0 21G<50 200 50 50> 500 20G<149 299 299 299> 584 136<188 311 161 338>
LayerCount: 3
Back
SplineSet
273.5 584 m 5
 236 584 l 5
 198.5 584 l 5
 167.75 618 l 5
 174.5 652 l 5
 181.25 686 l 5
 225.5 720 l 5
 263 720 l 5
 300.5 720 l 5
 331.25 686 l 5
 324.5 652 l 5
 317.75 618 l 5
 273.5 584 l 5
197 -15 m 1
 53 14 l 1
 152 535 l 1
 296.5 507.75 l 1
 197 -15 l 1
197 -15 m 1
 53 14 l 1
 152 535 l 1
 296.5 508 l 1
 197 -15 l 1
200 0 m 1
 50 0 l 1
 149 520 l 1
 299 520 l 1
 200 0 l 1
EndSplineSet
Fore
SplineSet
224.5 732.75 m 5
 303.2421875 717.047851562 l 5
 335.530273438 673.553710938 l 5
 320.802734375 599.431640625 l 5
 274.34765625 571.568359375 l 5
 195.604492188 587.271484375 l 5
 163.31640625 630.764648438 l 5
 178.043945312 704.88671875 l 5
 224.5 732.75 l 5
197 -15 m 5
 52 11 l 5
 152 535 l 5
 296 505 l 5
 197 -15 l 5
EndSplineSet
Validated: 1
Layer: 2
SplineSet
226.166992188 726.290039062 m 5
 262.962890625 718.952148438 l 5
 299.7578125 711.615234375 l 5
 329.93359375 670.966796875 l 5
 316.168945312 601.693359375 l 5
 272.752929688 575.653320312 l 5
 235.956054688 582.991210938 l 5
 199.161132812 590.329101562 l 5
 168.985351562 630.9765625 l 5
 182.75 700.25 l 5
 226.166992188 726.290039062 l 5
EndSplineSet
Colour: ffff00
EndChar

StartChar: j
Encoding: 106 106 72
Width: 261
Flags: HMW
HStem: -210 132<-25.5 4 -29 41.5> 500 20G<152 302 302 302> 584 136<191 314 164 341>
LayerCount: 3
Back
SplineSet
276.5 584 m 5
 239 584 l 5
 201.5 584 l 5
 170.75 618 l 5
 177.5 652 l 5
 184.25 686 l 5
 228.5 720 l 5
 266 720 l 5
 303.5 720 l 5
 334.25 686 l 5
 327.5 652 l 5
 320.75 618 l 5
 276.5 584 l 5
-57.9912109375 -71.873046875 m 1
 -38.8798828125 -76.79296875 l 1
 -24.146484375 -77.876953125 l 1
 33.666015625 -45.2080078125 l 1
 56.966796875 27.158203125 l 1
 155 535 l 1
 299.5 506.75 l 1
 197.015625 -27.8564453125 l 1
 125.282226562 -158.514648438 l 1
 -13.9755859375 -209.760742188 l 1
 -58.0126953125 -206.17578125 l 1
 -99.9228515625 -195.76171875 l 1
 -57.9912109375 -71.873046875 l 1
-100 -196 m 1
 -58 -72 l 1
 -42 -77 -34 -78 -24 -78 c 0
 32 -78 47 -26 57 27 c 2
 152 520 l 1
 302 520 l 1
 197 -28 l 2
 176 -134 97 -210 -14 -210 c 0
 -37 -210 -80 -205 -100 -196 c 1
314 584 m 5
 164 584 l 5
 191 720 l 5
 341 720 l 5
 314 584 l 5
EndSplineSet
Fore
SplineSet
227 733 m 5
 305.7421875 717.297851562 l 5
 338.030273438 673.803710938 l 5
 323.302734375 599.681640625 l 5
 276.84765625 571.818359375 l 5
 198.104492188 587.521484375 l 5
 165.81640625 631.014648438 l 5
 180.543945312 705.13671875 l 5
 227 733 l 5
-57.9912109375 -72.123046875 m 5
 -38.8798828125 -77.04296875 l 5
 -24.146484375 -78.126953125 l 5
 33.666015625 -45.4580078125 l 5
 56.966796875 27.158203125 l 5
 155 535 l 5
 299.5 507.5 l 5
 197.015625 -28.1064453125 l 5
 125.282226562 -161.264648438 l 5
 -13.9755859375 -212.510742188 l 5
 -58.0126953125 -208.92578125 l 5
 -99.9228515625 -198.51171875 l 5
 -57.9912109375 -72.123046875 l 5
EndSplineSet
Validated: 1
Colour: ffff00
EndChar

StartChar: k
Encoding: 107 107 73
Width: 578
Flags: HMW
HStem: 0 21G<50 50 50 200 376 376 376 541> 200 125<237 283 237 283> 387 133<544.5 618 562 618> 700 20G<188 338 338 338>
LayerCount: 3
Back
SplineSet
50 0 m 1
 188 720 l 1
 338 720 l 1
 261 325 l 1
 283 325 l 2
 313 325 324 328 357 359 c 0
 381 383 409 437 421 453 c 0
 464 512 516 520 587 520 c 2
 618 520 l 1
 578 387 l 1
 562 387 l 2
 527 387 517 376 493 342 c 0
 471 308 449 284 409 274 c 1
 408 270 l 1
 442 262 466 224 488 173 c 1
 541 0 l 1
 376 0 l 1
 335 149 l 2
 322 185 299 200 259 200 c 2
 237 200 l 1
 200 0 l 1
 50 0 l 1
EndSplineSet
Fore
SplineSet
578.068359375 387.124023438 m 1
 562.059570312 387.124023438 l 1
 523.431640625 377.327148438 l 1
 457.918945312 299.123046875 l 1
 409.087890625 274.16796875 l 1
 408.087890625 270.165039062 l 1
 452.561523438 237.830078125 l 1
 488.032226562 173.29296875 l 1
 532.5 27.75 l 1
 380 -15 l 1
 335.061523438 149.204101562 l 1
 307.1875 188.243164062 l 1
 259.118164062 200.141601562 l 1
 237.110351562 200.141601562 l 1
 197.346679688 -14.7646484375 l 1
 52.5 12.75 l 1
 190.75 735 l 1
 335.573242188 707.259765625 l 1
 260.872070312 325.10546875 l 1
 282.963867188 325.10546875 l 1
 318.830078125 330.44140625 l 1
 357.073242188 359.108398438 l 1
 393.534179688 409.086914062 l 1
 421.1796875 453.061523438 l 1
 493.642578125 508.626953125 l 1
 586.98828125 520 l 1
 618 520 l 1
 578.068359375 387.124023438 l 1
EndSplineSet
Colour: ffff00
EndChar

StartChar: l
Encoding: 108 108 74
Width: 260
Flags: HMW
HStem: 0 21G<49 199 49 49> 715 20G<340 340>
LayerCount: 3
Back
SplineSet
199 0 m 1
 49 0 l 1
 182 695 l 1
 340 735 l 1
 199 0 l 1
EndSplineSet
Fore
SplineSet
196.25 -15 m 5
 51.5 12.75 l 5
 189.75 735 l 5
 334.75 707.25 l 5
 196.25 -15 l 5
EndSplineSet
Validated: 1
Colour: ffff00
EndChar

StartChar: m
Encoding: 109 109 75
Width: 862
Flags: HMW
HStem: -5.2025 21.42G<41.8139 194.814 41.8139 41.8139 347.814 347.814 347.814 500.814 652.794 652.794 652.794 805.794> 411.978 113.22<142.794 382.494> 411.978 128.52<335.064 478.374>
LayerCount: 3
Back
SplineSet
200 0 m 1xc0
 50 0 l 1
 149 520 l 1
 290 520 l 1
 276 446 l 1
 324 510 371 535 440 535 c 0
 516 535 560 500 569 439 c 1
 616 508 673 535 738 535 c 0
 835 535 889 472 866 356 c 2
 799 0 l 1
 649 0 l 1
 709 317 l 2
 719 371 712 409 665 409 c 0
 614 409 569 366 555 291 c 2xc0
 500 0 l 1
 350 0 l 1
 410 317 l 2
 423 385 402 409 366 409 c 0xa0
 309 409 267 354 251 269 c 2
 200 0 l 1xc0
EndSplineSet
Fore
SplineSet
49.51171875 12.9921875 m 1
 149 535 l 1
 284.57421875 508.977539062 l 1
 273.569335938 449.706054688 l 1
 349.171875 519.514648438 l 1
 440.909179688 540.352539062 l 1
 532.220703125 514.803710938 l 1
 572.451171875 442.5625 l 1
 651.69921875 517.856445312 l 1
 744.72265625 540.352539062 l 1
 855.899414062 493.506835938 l 1
 872.00390625 358.203125 l 1
 801.75 -15 l 1
 657.375 13.3125 l 1
 715.131835938 318.162109375 l 1
 714.451171875 385.69921875 l 1
 670.256835938 412.0390625 l 1
 600.094726562 380.553710938 l 1
 555.4296875 291.797851562 l 1
 497.25 -15 l 1
 352.646484375 13.5673828125 l 1
 410.403320312 318.416992188 l 1
 406.635742188 391.3125 l 1
 365.50390625 412.293945312 l 1
 291.14453125 373.392578125 l 1
 248.162109375 269.446289062 l 1
 194 -15 l 1
 49.51171875 12.9921875 l 1
EndSplineSet
Validated: 1
Colour: ffff00
EndChar

StartChar: n
Encoding: 110 110 76
Width: 584
Flags: HMW
HStem: 0 21G<50 200 50 50 375 375 375 525> 409 111<149 402> 409 126<347 510>
LayerCount: 3
Back
SplineSet
200 0 m 1xa0
 50 0 l 1
 149 520 l 1
 290 520 l 1
 276 445 l 1
 326 509 376 535 438 535 c 0
 582 535 609 443 586 319 c 2
 525 0 l 1
 375 0 l 1
 435 315 l 2
 447 375 431 409 373 409 c 0xc0
 321 409 270 367 253 283 c 2
 200 0 l 1xa0
EndSplineSet
Fore
SplineSet
50.75 13 m 5
 150.25 535 l 5
 285.875 508.981445312 l 5
 274.799804688 448.520507812 l 5
 352.805664062 518.9921875 l 5
 439.928710938 540.356445312 l 5
 579.326171875 477.624023438 l 5
 587.797851562 320.62109375 l 5
 523.75 -15 l 5
 379.196289062 13.31640625 l 5
 436.953125 315.962890625 l 5
 432.087890625 386.799804688 l 5
 373.779296875 411.787109375 l 5
 299.239257812 379.665039062 l 5
 251.420898438 283.389648438 l 5
 195.25 -15 l 5
 50.75 12.830078125 l 5
 50.75 13 l 5
EndSplineSet
Validated: 1
Colour: ffff00
EndChar

StartChar: o
Encoding: 111 111 77
Width: 572
Flags: HMW
HStem: -15 125<262.5 331.5 262.5 342.5> 410 125<320.5 389.5>
LayerCount: 3
Back
SplineSet
68 260 m 0
 105 452 240 535 379 535 c 0
 518 535 621 452 584 260 c 0
 547 68 412 -15 273 -15 c 0
 134 -15 31 68 68 260 c 0
218 260 m 0
 200 163 228 110 297 110 c 0
 366 110 416 163 434 260 c 0
 452 357 424 410 355 410 c 0
 286 410 236 357 218 260 c 0
EndSplineSet
Fore
SplineSet
380.264648438 540.365234375 m 5
 552.015625 473.541992188 l 5
 589.268554688 259.84765625 l 5
 469.759765625 46.2392578125 l 5
 272.19140625 -20.4990234375 l 5
 100.334960938 46.2392578125 l 5
 63.1025390625 259.84765625 l 5
 182.623046875 473.541992188 l 5
 380.264648438 540.365234375 l 5
296.595703125 106.879882812 m 5
 386.004882812 146.31640625 l 5
 436.385742188 259.84765625 l 5
 429.419921875 373.448242188 l 5
 355.942382812 412.817382812 l 5
 266.555664062 373.448242188 l 5
 216.068359375 259.84765625 l 5
 223.077148438 146.31640625 l 5
 296.595703125 106.879882812 l 5
EndSplineSet
Validated: 1
Colour: ffff00
EndChar

StartChar: p
Encoding: 112 112 78
Width: 588
Flags: HMW
HStem: -200 21G<21 171 21 21> -15 125<306 356 292 389> 410 110<159 412.5> 410 125<408.5 412.5>
LayerCount: 3
Back
SplineSet
171 -200 m 1xd0
 21 -200 l 1
 159 520 l 1
 299 520 l 1
 288 459 l 1
 327 509 379 535 438 535 c 0
 562 535 644 442 609 260 c 0
 574 78 451 -15 327 -15 c 0
 285 -15 238 -2 218 45 c 1
 171 -200 l 1xd0
248 260 m 0
 229 158 260 110 324 110 c 0
 388 110 440 158 459 260 c 0xe0
 479 362 442 410 383 410 c 0
 324 410 268 362 248 260 c 0
EndSplineSet
Fore
SplineSet
24.451171875 -182.549804688 m 5
 162 535 l 5
 297.108398438 509.184570312 l 5
 288.885742188 464.74609375 l 5
 357.716796875 522.715820312 l 5
 441.853515625 542.293945312 l 5
 589.860351562 471.677734375 l 5
 616.251953125 261.776367188 l 5
 506.520507812 52.029296875 l 5
 328.6796875 -18.5703125 l 5
 264.68359375 -6.0166015625 l 5
 217.459960938 42.572265625 l 5
 169 -210 l 5
 24.451171875 -182.549804688 l 5
325.53515625 108.72265625 m 5
 411.681640625 146.212890625 l 5
 463.200195312 261.692382812 l 5
 454.6328125 377.239257812 l 5
 385.736328125 414.661132812 l 5
 301.982421875 377.239257812 l 5
 248.072265625 261.692382812 l 5
 255.081054688 146.247070312 l 5
 325.53515625 108.72265625 l 5
EndSplineSet
Validated: 1
Colour: ffff00
EndChar

StartChar: q
Encoding: 113 113 79
Width: 588
Flags: HMW
HStem: -200 21G<330 480 330 330> -15 125<263 265> 410 110<322.5 618> 410 125<322.5 374.5 283 381.5>
LayerCount: 3
Back
SplineSet
480 -200 m 1xe0
 330 -200 l 1
 377 45 l 1
 337 -2 286 -15 244 -15 c 0
 120 -15 33 78 68 260 c 0
 103 442 221 535 345 535 c 0xd0
 404 535 446 509 467 459 c 1
 478 520 l 1
 618 520 l 1
 480 -200 l 1xe0
429 260 m 0
 449 362 411 410 352 410 c 0
 293 410 238 362 218 260 c 0
 199 158 231 110 295 110 c 0
 359 110 410 158 429 260 c 0
EndSplineSet
Fore
SplineSet
333.080078125 -181.892578125 m 1
 376.411132812 42.740234375 l 1
 309.396484375 -5.900390625 l 1
 240.788085938 -18.572265625 l 1
 90.2314453125 52.0439453125 l 1
 61.2890625 261.944335938 l 1
 168.500976562 471.692382812 l 1
 343.758789062 542.291015625 l 1
 420.466796875 522.696289062 l 1
 468.158203125 464.913085938 l 1
 481 535 l 1
 615.975585938 509.302734375 l 1
 478 -210 l 1
 333.08203125 -182.061523438 l 1
 333.080078125 -181.892578125 l 1
350.987304688 414.828125 m 1
 267.774414062 377.40625 l 1
 214.34375 261.859375 l 1
 221.870117188 146.380859375 l 1
 292.913085938 108.890625 l 1
 378.484375 146.380859375 l 1
 429.556640625 261.859375 l 1
 420.46875 377.40625 l 1
 350.987304688 414.828125 l 1
EndSplineSet
Validated: 1
Colour: ffff00
EndChar

StartChar: r
Encoding: 114 114 80
Width: 462
Flags: HMW
HStem: 0 21G<50 200 50 50> 395 125<149 419.5> 395 140<397.5 419.5>
LayerCount: 3
Back
SplineSet
200 0 m 1xa0
 50 0 l 1
 149 520 l 1
 290 520 l 1
 273 430 l 1
 319 500 360 535 435 535 c 0
 475 535 501 528 522 509 c 1
 475 375 l 1
 456 385 435 395 404 395 c 0xc0
 318 395 263 332 244 231 c 2
 200 0 l 1xa0
EndSplineSet
Fore
SplineSet
52.25 12.75 m 5
 52.25 12.8330078125 l 6
 52.2919921875 12.8330078125 l 5
 152 535 l 5
 288 509 l 5
 273.025390625 429.830078125 l 5
 345.134765625 511.608398438 l 5
 437 537.865234375 l 5
 487.5703125 532.028320312 l 5
 533 507 l 5
 474.930664062 374.931640625 l 5
 443.950195312 388.71484375 l 5
 403.905273438 394.967773438 l 5
 298.857421875 350.842773438 l 5
 244.014648438 230.999023438 l 5
 197.25 -14.75 l 5
 52.25 12.75 l 5
EndSplineSet
Validated: 1
Colour: ffff00
EndChar

StartChar: s
Encoding: 115 115 81
Width: 515
Flags: HMW
HStem: -15 115<243 291.5 243 313> 353 182<401 416 295.5 530 401 401> 420 115<306.5 345.5>
LayerCount: 3
Back
SplineSet
51 150 m 1xa0
 179 171 l 1
 177 126 215 100 271 100 c 0
 312 100 366 110 374 152 c 0
 379 176 363 188 342 193 c 2
 205 220 l 2
 139 235 89 283 106 369 c 0
 129 488 237 535 354 535 c 0xc0
 478 535 555 462 530 353 c 1
 401 353 l 1
 413 406 364 420 327 420 c 0
 286 420 240 408 233 373 c 0
 229 356 238 342 264 337 c 2
 398 312 l 2
 452 300 526 263 505 156 c 0
 483 41 380 -15 246 -15 c 0
 119 -15 42 55 51 150 c 1xa0
EndSplineSet
Fore
SplineSet
176.747070312 169.475585938 m 5
 201.586914062 116.005859375 l 5
 270.62109375 97.03125 l 5
 335.786132812 107.450195312 l 5
 375.633789062 150.008789062 l 5
 369.211914062 178.227539062 l 5
 342.89453125 191.844726562 l 5
 203.190429688 219.391601562 l 5
 120.923828125 268.208984375 l 5
 102.174804688 371.168945312 l 5
 192.635742188 501.310546875 l 5
 355.224609375 540.3828125 l 5
 501.880859375 489.293945312 l 5
 524.567382812 395.661132812 l 5
 403.010742188 354.84765625 l 5
 384.071289062 409.228515625 l 5
 327.504882812 423.125 l 5
 266.580078125 412.587890625 l 5
 231.674804688 375.336914062 l 5
 235.970703125 352.44140625 l 5
 263.22265625 338.603515625 l 5
 399.78125 313.012695312 l 5
 482.993164062 269.749023438 l 5
 508.875 153.920898438 l 5
 419.657226562 22.7490234375 l 5
 244.856445312 -20.4814453125 l 5
 93.4697265625 27.3330078125 l 5
 58.6826171875 114.651367188 l 5
 176.747070312 169.475585938 l 5
EndSplineSet
Validated: 1
Colour: ffff00
EndChar

StartChar: t
Encoding: 116 116 82
Width: 385
Flags: HMW
HStem: -10 130<181.5 311> 401 119<112 164 90 186 336 413> 650 20G<365 365>
LayerCount: 3
Back
SplineSet
348 126 m 1
 334 7 l 1
 312 -4 255 -10 236 -10 c 0
 127 -10 96 50 115 152 c 2
 164 401 l 1
 90 401 l 1
 112 520 l 1
 186 520 l 1
 206 627 l 1
 365 670 l 1
 336 520 l 1
 435 520 l 1
 413 401 l 1
 314 401 l 1
 274 197 l 2
 265 152 259 120 306 120 c 0
 316 120 331 121 348 126 c 1
EndSplineSet
Fore
SplineSet
235.064453125 -16.78515625 m 5
 124.3984375 26.853515625 l 5
 114 148 l 5
 164.09765625 401.077148438 l 5
 89.9267578125 401.077148438 l 5
 90.0146484375 520.000976562 l 5
 185.966796875 520.000976562 l 5
 216 681 l 5
 361.947265625 653.59375 l 5
 336.015625 520.000976562 l 5
 413.232421875 520.000976562 l 5
 412.9140625 401.077148438 l 5
 313.982421875 401.077148438 l 5
 273.752929688 194.262695312 l 5
 268.674804688 137.875976562 l 5
 306.322265625 115.865234375 l 5
 349.177734375 121.819335938 l 5
 365.497070312 8.5986328125 l 5
 235.064453125 -16.78515625 l 5
EndSplineSet
Validated: 1
Colour: ffff00
EndChar

StartChar: u
Encoding: 117 117 83
Width: 574
Flags: HMW
HStem: -15 126<153 316> 0 111<261 515 261 374> 500 20G<139 289 289 289 464 614 614 614>
LayerCount: 3
Back
SplineSet
464 520 m 1xa0
 614 520 l 1
 515 0 l 1
 374 0 l 1
 388 75 l 1
 337 11 287 -15 225 -15 c 0
 81 -15 54 77 78 201 c 2
 139 520 l 1
 289 520 l 1
 229 205 l 2
 217 145 232 111 290 111 c 0x60
 342 111 393 153 410 237 c 2
 464 520 l 1xa0
EndSplineSet
Fore
SplineSet
513.75 -15 m 5
 378.123046875 11.01953125 l 5
 389.37109375 71.15625 l 5
 310.506835938 0.837890625 l 5
 223.22265625 -20.509765625 l 5
 83.921875 42.22265625 l 5
 76.064453125 199.724609375 l 5
 140.25 535 l 5
 284.884765625 507.15234375 l 5
 227.134765625 203.883789062 l 5
 231.428710938 132.901367188 l 5
 289.291992188 107.888671875 l 5
 363.821289062 140.028320312 l 5
 411.565429688 236.45703125 l 5
 468.5 535.25 l 5
 613.283203125 507.666015625 l 5
 513.75 -15 l 5
EndSplineSet
Validated: 1
Colour: ffff00
EndChar

StartChar: v
Encoding: 118 118 84
Width: 555
Flags: HMW
HStem: 0 21G<203 335 203 203> 500 20G<90 242 242 242 495 645 645 645>
LayerCount: 3
Back
SplineSet
335 0 m 1
 203 0 l 1
 90 520 l 1
 242 520 l 1
 302 184 l 1
 495 520 l 1
 645 520 l 1
 335 0 l 1
EndSplineSet
Fore
SplineSet
326.25 -14.75 m 1
 195 63.2391304348 l 0
 188.25 67.25 l 1
 92.5 508.5 l 1
 239.25 535 l 1
 302 184 l 1
 503.5 535 l 1
 615.75 471 l 1
 326.25 -14.75 l 1
EndSplineSet
Validated: 1
Colour: ffff00
EndChar

StartChar: w
Encoding: 119 119 85
Width: 771
Flags: HMW
HStem: 0 21G<144 277 144 144 465 465 465 596> 500 20G<86 237 237 237 407 538 538 538 712 857 857 857>
VStem: 244 209 453 94
LayerCount: 3
Back
SplineSet
277 0 m 1
 144 0 l 1
 86 520 l 1
 237 520 l 1
 252 168 l 1
 407 520 l 1
 538 520 l 1
 557 179 l 1
 712 520 l 1
 857 520 l 1
 596 0 l 1
 465 0 l 1
 441 349 l 1
 277 0 l 1
EndSplineSet
Fore
SplineSet
270 -15 m 1
 139 46 l 1
 85.25 526.25 l 1
 236.25 535 l 1
 252 168 l 1
 413.5 535 l 1
 540.25 480.25 l 1
 557 179 l 1
 719 535 l 1
 837 480 l 5
 588.5 -14.75 l 1
 461.75 48 l 1
 441 349 l 1
 270 -15 l 1
EndSplineSet
Validated: 1
Colour: ffff00
EndChar

StartChar: x
Encoding: 120 120 86
Width: 575
Flags: HMW
HStem: 0 21G<10 182 10 10 377 377 377 550> 500 20G<121 297 297 297 466 635 635 635>
LayerCount: 3
Back
SplineSet
182 0 m 1
 10 0 l 1
 240 266 l 1
 121 520 l 1
 297 520 l 1
 353 372 l 1
 466 520 l 1
 635 520 l 1
 426 269 l 1
 550 0 l 1
 377 0 l 1
 309 160 l 1
 182 0 l 1
EndSplineSet
Fore
SplineSet
170 -15 m 5
 67 66 l 5
 240 266 l 5
 140.5 478.25 l 5
 291.25 535 l 5
 353 372 l 5
 477.5 535 l 5
 581.75 456 l 5
 426 269 l 5
 529 46 l 5
 383.5 -15 l 5
 309 160 l 5
 170 -15 l 5
EndSplineSet
Validated: 1
Colour: ffff00
EndChar

StartChar: y
Encoding: 121 121 87
Width: 556
Flags: HMW
HStem: -210 134<75.5 112.5 75.5 141.5> 500 20G<106 259 259 259 498 646 646 646>
LayerCount: 3
Back
SplineSet
10 -195 m 1
 25 -62 l 1
 41 -69 58 -76 93 -76 c 0
 132 -76 171 -62 201 -9 c 2
 209 5 l 1
 106 520 l 1
 259 520 l 1
 313 177 l 1
 498 520 l 1
 646 520 l 1
 337 -29 l 2
 270 -149 189 -210 94 -210 c 0
 57 -210 27 -202 10 -195 c 1
EndSplineSet
Fore
SplineSet
93.0244140625 -75.9580078125 m 5
 150.377929688 -62.31640625 l 5
 200.979492188 -8.8525390625 l 5
 208.983398438 5.1552734375 l 5
 107.75 511.25 l 5
 256.584960938 535.000976562 l 5
 313.020507812 177.12890625 l 5
 506.002929688 535.000976562 l 5
 620 473.75 l 5
 336.946289062 -28.85546875 l 5
 224.990234375 -169.291992188 l 5
 93.0263671875 -214.759765625 l 5
 43.5400390625 -209.923828125 l 5
 -1 -197 l 5
 25.0048828125 -62 l 5
 93.0244140625 -75.9580078125 l 5
EndSplineSet
Colour: ffff00
EndChar

StartChar: z
Encoding: 122 122 88
Width: 517
Flags: HMW
HStem: 0 125<53 53 229 444 30 53> 395 125<148 352 124 557 533 533>
LayerCount: 3
Back
SplineSet
444 0 m 1
 30 0 l 1
 53 125 l 1
 352 395 l 1
 124 395 l 1
 148 520 l 1
 557 520 l 1
 533 395 l 1
 229 125 l 1
 517 125 l 1
 444 0 l 1
EndSplineSet
Fore
SplineSet
444 0 m 1
 165.25 0 l 1
 53 125 l 1
 352 395 l 1
 124 395 l 1
 124 520 l 1
 422.25 520 l 1
 533 395 l 1
 229 125 l 1
 444 125 l 1
 444 0 l 1
EndSplineSet
Validated: 1
Colour: ffff00
EndChar

StartChar: A
Encoding: 65 65 89
Width: 730
Flags: HMW
HStem: 0 21G<10 173 10 10 555 720 555 555> 130 132<319 509 319 531 244 509> 700 20G<434 578 578 578>
LayerCount: 3
Back
SplineSet
434 720 m 1
 578 720 l 1
 720 0 l 1
 555 0 l 1
 531 130 l 1
 244 130 l 1
 173 0 l 1
 10 0 l 1
 434 720 l 1
463 521 m 1
 319 262 l 1
 509 262 l 1
 463 521 l 1
EndSplineSet
Fore
SplineSet
443 735 m 5
 593.25 646 l 5
 717 14 l 5
 558 -15 l 5
 531 130 l 5
 244 130 l 5
 166 -14 l 5
 42 54 l 5
 443 735 l 5
463 521 m 5
 319 262 l 5
 509 262 l 5
 463 521 l 5
EndSplineSet
Validated: 1
Colour: ffff00
EndChar

StartChar: B
Encoding: 66 66 90
Width: 694
Flags: HMW
HStem: 0 125<248 383> 305 125<283 436 307 418> 595 125<339 339 339 456>
LayerCount: 3
Back
SplineSet
383 0 m 2
 70 0 l 1
 208 720 l 1
 511 720 l 2
 657 720 752 661 727 533 c 0
 714 465 667 402 583 376 c 1
 664 355 709 293 693 208 c 0
 663 56 546 0 383 0 c 2
339 595 m 1
 307 430 l 1
 436 430 l 2
 509 430 555 463 566 521 c 0
 578 579 530 595 456 595 c 2
 339 595 l 1
283 305 m 1
 248 125 l 1
 396 125 l 2
 474 125 521 150 532 208 c 0
 545 275 501 305 418 305 c 2
 283 305 l 1
EndSplineSet
Fore
SplineSet
69.9306640625 0.0498046875 m 5
 207.90625 719.955078125 l 5
 515.155273438 719.955078125 l 5
 690.775390625 680.500976562 l 5
 735.469726562 536.1484375 l 5
 689.233398438 440.119140625 l 5
 588.536132812 376.03515625 l 5
 681.771484375 314.841796875 l 5
 700.77734375 204.7890625 l 5
 593.479492188 40.5087890625 l 5
 384.46484375 0.0498046875 l 5
 69.9306640625 0.0498046875 l 5
247.719726562 125.09765625 m 5
 398.564453125 125.09765625 l 5
 493.575195312 145.219726562 l 5
 536.499023438 204.7890625 l 5
 515.11328125 279.793945312 l 5
 420.262695312 305.08984375 l 5
 282.682617188 305.08984375 l 5
 247.719726562 125.09765625 l 5
307.171875 429.97265625 m 5
 438.713867188 429.97265625 l 5
 528.729492188 455.427734375 l 5
 571.361328125 524.079101562 l 5
 548.190429688 579.385742188 l 5
 459.20703125 595.000976562 l 5
 338.993164062 595.000976562 l 5
 307.171875 429.97265625 l 5
EndSplineSet
Validated: 1
Colour: ffff00
EndChar

StartChar: C
Encoding: 67 67 91
Width: 741
Flags: HMW
HStem: -22.5028 142.8<354.211 450.091 354.211 471.001> 599.697 142.8<452.131 548.011>
LayerCount: 3
Back
SplineSet
274 360 m 0
 245 213 301 125 411 125 c 0
 489 125 550 165 591 250 c 1
 740 206 l 1
 669 68 557 -15 384 -15 c 0
 164 -15 66 143 109 360 c 0
 150 577 314 735 534 735 c 0
 697 735 827 643 799 479 c 1
 634 479 l 1
 640 559 585 595 507 595 c 0
 397 595 302 507 274 360 c 0
EndSplineSet
Fore
SplineSet
410.446289062 120.3515625 m 5
 516.383789062 151.547851562 l 5
 593.94140625 247.729492188 l 5
 706.110351562 157.017578125 l 5
 603.34765625 37.599609375 l 5
 382.810546875 -22.2412109375 l 5
 141.942382812 85.974609375 l 5
 102.211914062 360.052734375 l 5
 250.50390625 634.319335938 l 5
 535.780273438 742.518554688 l 5
 743.9453125 674.68359375 l 5
 788.73046875 535.4375 l 5
 637.731445312 481.477539062 l 5
 605.102539062 571.196289062 l 5
 508.31640625 599.754882812 l 5
 358.216796875 536.1640625 l 5
 270.741210938 360.138671875 l 5
 287.407226562 183.96875 l 5
 410.446289062 120.3515625 l 5
EndSplineSet
Validated: 1
Colour: ffff00
EndChar

StartChar: D
Encoding: 68 68 92
Width: 714
Flags: HMW
HStem: -7.20005 146.88<254.013 318.273> 579.3 147.9<338.673 338.673 338.673 401.913>
LayerCount: 3
Back
SplineSet
320 0 m 2
 70 0 l 1
 208 720 l 1
 447 720 l 2
 689 720 787 594 743 362 c 0
 699 137 562 0 320 0 c 2
340 575 m 1
 257 144 l 1
 322 144 l 2
 458 144 548 196 580 363 c 0
 616 547 520 575 402 575 c 2
 340 575 l 1
EndSplineSet
Fore
SplineSet
70.0224609375 0.0498046875 m 5
 207.913085938 719.955078125 l 5
 450.109375 719.955078125 l 5
 710.440429688 633.344726562 l 5
 751.966796875 362.004882812 l 5
 612.102539062 91.4052734375 l 5
 320.778320312 0.0498046875 l 5
 70.0224609375 0.0498046875 l 5
256.99609375 144.065429688 m 5
 322.734375 144.065429688 l 5
 494.0703125 187.578125 l 5
 585.817382812 363.026367188 l 5
 554.037109375 541.508789062 l 5
 404.278320312 575.00390625 l 5
 340.099609375 575.00390625 l 5
 256.99609375 144.065429688 l 5
EndSplineSet
Validated: 1
Colour: ffff00
EndChar

StartChar: E
Encoding: 69 69 93
Width: 667
Flags: HMW
HStem: 0 145<257 607> 295 145<314 603 286 631> 575 145<340 707 340 340>
LayerCount: 3
Back
SplineSet
607 0 m 1
 70 0 l 1
 208 720 l 1
 735 720 l 1
 707 575 l 1
 340 575 l 1
 314 440 l 1
 631 440 l 1
 603 295 l 1
 286 295 l 1
 257 145 l 1
 634 145 l 1
 607 0 l 1
EndSplineSet
Fore
SplineSet
607 0 m 5
 70 0 l 5
 208 720 l 5
 707 720 l 5
 707 575 l 5
 340 575 l 5
 314 440 l 5
 630.75 440 l 5
 630.75 295 l 5
 286 295 l 5
 257 145 l 5
 607 145 l 5
 607 0 l 5
EndSplineSet
Validated: 1
Colour: ffff00
EndChar

StartChar: F
Encoding: 70 70 94
Width: 637
Flags: HMW
HStem: 0 21G<70 230 70 70> 295 145<314 563 286 591> 575 145<340 697 340 340>
LayerCount: 3
Back
SplineSet
230 0 m 1
 70 0 l 1
 208 720 l 1
 725 720 l 1
 697 575 l 1
 340 575 l 1
 314 440 l 1
 591 440 l 1
 563 295 l 1
 286 295 l 1
 230 0 l 1
EndSplineSet
Fore
SplineSet
227 -15 m 1
 72.75 14.5 l 1
 208 720 l 1
 697 720 l 1
 697 575 l 1
 340 575 l 1
 314 440 l 1
 591 440 l 1
 591 295 l 1
 286 295 l 1
 227 -15 l 1
EndSplineSet
Validated: 1
Colour: ffff00
EndChar

StartChar: G
Encoding: 71 71 95
Width: 761
Flags: HMW
HStem: -15 140<361 458.5> 261 124<468 593 445 773> 499 236<429 801 429 635> 595 140<457 556>
LayerCount: 3
Back
SplineSet
274 360 m 0xd0
 245 213 301 125 421 125 c 0
 498 125 540 143 574 167 c 1
 593 261 l 1
 445 261 l 1
 468 385 l 1
 773 385 l 1
 720 112 l 1
 651 32 523 -15 394 -15 c 0
 164 -15 66 143 109 360 c 0
 150 577 314 735 544 735 c 0
 707 735 835 653 801 499 c 1
 635 499 l 1xe0
 649 559 595 595 517 595 c 0
 397 595 302 507 274 360 c 0xd0
EndSplineSet
Fore
SplineSet
417.271484375 120.45703125 m 1
 511.834960938 132.670898438 l 1
 573.30078125 163.313476562 l 1
 592.772460938 261.137695312 l 1
 444.844726562 261.137695312 l 1
 444.708007812 385.495117188 l 1
 773.268554688 385.495117188 l 1
 719.103515625 107.189453125 l 1
 578.9453125 11.9521484375 l 1
 389.805664062 -22.1357421875 l 1
 139.997070312 86.080078125 l 1
 99.1728515625 360.158203125 l 1
 248.623046875 634.424804688 l 1
 542.774414062 742.624023438 l 1
 749.154296875 681.235351562 l 1
 788.5078125 554.815429688 l 1
 635.627929688 501.986328125 l 1
 610.662109375 573.810546875 l 1
 515.224609375 599.775390625 l 1
 356.197265625 536.184570312 l 1
 267.447265625 360.158203125 l 1
 285.41015625 184.065429688 l 1
 417.271484375 120.45703125 l 1
EndSplineSet
Validated: 1
Colour: ffff00
EndChar

StartChar: H
Encoding: 72 72 96
Width: 757
Flags: HMW
HStem: 0 21G<70 230 70 70 527 527 527 687> 295 145<314 583 286 611> 700 20G<208 368 368 368 665 825 825 825>
LayerCount: 3
Back
SplineSet
230 0 m 1
 70 0 l 1
 208 720 l 1
 368 720 l 1
 314 440 l 1
 611 440 l 1
 665 720 l 1
 825 720 l 1
 687 0 l 1
 527 0 l 1
 583 295 l 1
 286 295 l 1
 230 0 l 1
EndSplineSet
Fore
SplineSet
227 -15 m 1
 72.75 14.5 l 1
 210.75 735 l 1
 365.25 705.5 l 1
 314 440 l 1
 611 440 l 1
 668 735 l 5
 822.25 705.5 l 5
 684.25 -14.75 l 1
 529.75 14.75 l 1
 583 295 l 1
 286 295 l 1
 227 -15 l 1
EndSplineSet
Validated: 1
Colour: ffff00
EndChar

StartChar: I
Encoding: 73 73 97
Width: 300
Flags: HMW
HStem: 0 21G<70 230 70 70> 700 20G<208 368 368 368>
LayerCount: 3
Back
SplineSet
230 0 m 1
 70 0 l 1
 208 720 l 1
 368 720 l 1
 230 0 l 1
EndSplineSet
Fore
SplineSet
227 -15 m 5
 72.75 14.5 l 5
 210.75 735 l 5
 365.25 705.5 l 5
 227 -15 l 5
EndSplineSet
Validated: 1
Colour: ffff00
EndChar

StartChar: J
Encoding: 74 74 98
Width: 572
Flags: HMW
HStem: -15 140<247.5 318 247.5 322> 700 20G<479 640 640 640>
LayerCount: 3
Back
SplineSet
63 223 m 1
 220 245 l 1
 208 172 215 125 280 125 c 0
 356 125 375 180 391 263 c 2
 479 720 l 1
 640 720 l 1
 547 238 l 2
 511 51 391 -15 253 -15 c 0
 122 -15 27 50 63 223 c 1
EndSplineSet
Fore
SplineSet
219.93359375 245.0859375 m 5
 221.028320312 157.685546875 l 5
 279.955078125 125.125 l 5
 357.94140625 163.013671875 l 5
 390.911132812 263.170898438 l 5
 482 735 l 5
 637.25 705.5 l 5
 547.049804688 238.08203125 l 5
 438.32421875 41.5771484375 l 5
 253.1953125 -14.7548828125 l 5
 95.62890625 39.275390625 l 5
 60 242 l 5
 219.93359375 245.0859375 l 5
EndSplineSet
Validated: 1
Colour: ffff00
EndChar

StartChar: K
Encoding: 75 75 99
Width: 730
Flags: HMW
HStem: 0 21G<70 230 70 70 513 513 513 700> 700 20G<208 368 368 368 636 828 828 828>
LayerCount: 3
Back
SplineSet
230 0 m 1
 70 0 l 1
 208 720 l 1
 368 720 l 1
 308 409 l 1
 636 720 l 1
 828 720 l 1
 490 415 l 1
 700 0 l 1
 513 0 l 1
 371 309 l 1
 271 218 l 1
 230 0 l 1
EndSplineSet
Fore
SplineSet
227.25 -14.75 m 1
 72.75 14.75 l 1
 211 735 l 1
 365.25 705.5 l 1
 308 409 l 1
 651.75 735 l 1
 740 641 l 1
 490 415 l 1
 672 55 l 1
 519.75 -14.75 l 1
 371 309 l 1
 271 218 l 1
 227.25 -14.75 l 1
EndSplineSet
Validated: 1
Colour: ffff00
EndChar

StartChar: L
Encoding: 76 76 100
Width: 638
Flags: HMW
HStem: 0 145<257 608> 700 20G<208 368 368 368>
LayerCount: 3
Back
SplineSet
608 0 m 1
 70 0 l 1
 208 720 l 1
 368 720 l 1
 257 145 l 1
 635 145 l 1
 608 0 l 1
EndSplineSet
Fore
SplineSet
608 0 m 5
 70 0 l 5
 210.75 735 l 5
 365.25 705.5 l 5
 257 145 l 5
 608 145 l 5
 608 0 l 5
EndSplineSet
Validated: 1
Colour: ffff00
EndChar

StartChar: M
Encoding: 77 77 101
Width: 923
Flags: HMW
HStem: 0 21G<70 230 70 70 394 394 394 529 693 693 693 853> 700 20G<208 408 408 408 791 991 991 991>
LayerCount: 3
Back
SplineSet
230 0 m 1
 70 0 l 1
 208 720 l 1
 408 720 l 1
 498 193 l 1
 791 720 l 1
 991 720 l 1
 853 0 l 1
 693 0 l 1
 777 443 l 1
 529 0 l 1
 394 0 l 1
 314 443 l 1
 230 0 l 1
EndSplineSet
Fore
SplineSet
227.25 -15 m 1
 72.75 14.5 l 1
 210.75 735 l 1
 412 696.75 l 1
 498 193 l 1
 799.25 735 l 1
 987 699 l 1
 850.25 -14.5 l 1
 695.75 15 l 1
 777 443 l 1
 521 -14.5 l 1
 383 63 l 1
 314 443 l 1
 227.25 -15 l 1
EndSplineSet
Validated: 1
Colour: ffff00
EndChar

StartChar: N
Encoding: 78 78 102
Width: 769
Flags: HMW
HStem: 0 21G<70 226 70 70 537 537 537 699> 700 20G<208 370 370 370 681 837 837 837>
LayerCount: 3
Back
SplineSet
226 0 m 1
 70 0 l 1
 208 720 l 1
 370 720 l 1
 592 259 l 1
 681 720 l 1
 837 720 l 1
 699 0 l 1
 537 0 l 1
 313 461 l 1
 226 0 l 1
EndSplineSet
Fore
SplineSet
223.25 -14.75 m 5
 72.75 14 l 5
 210.75 734.75 l 5
 378 703.25 l 5
 592 259 l 5
 683.75 734.75 l 5
 834.25 706 l 5
 696.25 -14.75 l 5
 528.75 17.25 l 5
 313 461 l 5
 223.25 -14.75 l 5
EndSplineSet
Validated: 1
Colour: ffff00
EndChar

StartChar: O
Encoding: 79 79 103
Width: 765
Flags: HMW
HStem: -15 140<351 460.5 351 488.5> 595 140<442 551.5>
LayerCount: 3
Back
SplineSet
109 360 m 0
 150 577 304 735 524 735 c 0
 743 735 835 577 794 360 c 0
 751 143 598 -15 379 -15 c 0
 159 -15 66 143 109 360 c 0
274 360 m 0
 245 213 296 125 406 125 c 0
 515 125 600 213 629 360 c 0
 657 507 606 595 497 595 c 0
 387 595 302 507 274 360 c 0
EndSplineSet
Fore
SplineSet
525.01953125 742.21484375 m 5
 762.13671875 633.947265625 l 5
 800.348632812 359.75 l 5
 656.030273438 85.484375 l 5
 377.153320312 -22.7138671875 l 5
 138.85546875 85.5537109375 l 5
 101.82421875 359.75 l 5
 245.026367188 633.922851562 l 5
 525.01953125 742.21484375 l 5
404.702148438 120.048828125 m 5
 549.083984375 183.623046875 l 5
 632.243164062 359.495117188 l 5
 617.331054688 535.614257812 l 5
 497.640625 599.112304688 l 5
 352.557617188 535.520507812 l 5
 270.099609375 359.495117188 l 5
 284.309570312 183.623046875 l 5
 404.702148438 120.048828125 l 5
EndSplineSet
Validated: 1
Colour: ffff00
EndChar

StartChar: P
Encoding: 80 80 104
Width: 672
Flags: HMW
HStem: -7.05005 21.42G<64.4438 227.644 64.4438 64.4438> 227.55 142.8<299.044 397.984 272.524 411.244> 584.55 142.8<340.864 340.864 340.864 451.024>
LayerCount: 3
Back
SplineSet
230 0 m 1
 70 0 l 1
 208 720 l 1
 483 720 l 2
 628 720 757 654 723 479 c 0
 696 334 576 230 397 230 c 2
 274 230 l 1
 230 0 l 1
341 580 m 1
 300 370 l 1
 410 370 l 2
 513 370 550 429 560 476 c 0
 571 534 544 580 449 580 c 2
 341 580 l 1
EndSplineSet
Fore
SplineSet
72.5 13.25 m 5
 207.946289062 720 l 5
 487.875 720 l 5
 678.693359375 671.341796875 l 5
 732.592773438 481.538085938 l 5
 624.529296875 299.108398438 l 5
 400.208984375 229.883789062 l 5
 274.205078125 229.883789062 l 5
 226.5 -16 l 5
 72.5 13.25 l 5
300.234375 370.3203125 m 5
 413.389648438 370.3203125 l 5
 525.458984375 406.431640625 l 5
 566.358398438 478.391601562 l 5
 550.362304688 549.108398438 l 5
 453.18359375 580.006835938 l 5
 340.819335938 580.006835938 l 5
 300.234375 370.3203125 l 5
EndSplineSet
Validated: 1
Colour: ffff00
EndChar

StartChar: Q
Encoding: 81 81 105
Width: 765
Flags: HMW
HStem: -66.9415 21.42G<594.809 594.809> -22.0615 142.8<348.989 407.129> 600.139 142.8<441.809 553.499>
LayerCount: 3
Back
SplineSet
109 360 m 0
 150 577 304 735 524 735 c 0
 743 735 835 577 794 360 c 0
 773 255 727 164 660 98 c 1
 708 30 l 1
 592 -59 l 1
 540 17 l 1
 491 -3 437 -15 379 -15 c 0
 159 -15 66 143 109 360 c 0
404 212 m 1
 519 301 l 1
 574 221 l 1
 599 258 618 305 629 360 c 0
 657 507 606 595 497 595 c 0
 387 595 302 507 274 360 c 0
 245 213 296 125 406 125 c 0
 424 125 441 127 459 132 c 1
 404 212 l 1
EndSplineSet
Fore
SplineSet
525.466796875 742.943359375 m 1
 762.583984375 634.67578125 l 1
 800.795898438 360.478515625 l 1
 750.053710938 211.8984375 l 1
 663.987304688 92.4794921875 l 1
 708 30 l 1
 592 -59 l 1
 544 11 l 1
 463.139648438 -13.27734375 l 1
 377.600585938 -21.9853515625 l 1
 139.270507812 86.28125 l 1
 102.271484375 360.478515625 l 1
 245.473632812 634.651367188 l 1
 525.466796875 742.943359375 l 1
518.950195312 300.858398438 m 1
 576.235351562 217.892578125 l 1
 609.859375 282.770507812 l 1
 632.520507812 360.478515625 l 1
 617.671875 536.5390625 l 1
 497.916992188 600.095703125 l 1
 352.876953125 536.50390625 l 1
 270.4609375 360.478515625 l 1
 284.639648438 184.427734375 l 1
 405.064453125 120.862304688 l 1
 461 129 l 1
 403.965820312 211.965820312 l 1
 518.950195312 300.858398438 l 1
EndSplineSet
Validated: 1
Colour: ffff00
EndChar

StartChar: R
Encoding: 82 82 106
Width: 690
Flags: HMW
HStem: -7.05005 21.42G<61.4038 61.4038 61.4038 224.604 506.124 506.124 506.124 688.704> 247.95 137.7<299.064 326.604 272.544 370.464> 579.45 147.9<336.804 336.804 336.804 406.164>
LayerCount: 3
Back
SplineSet
207.7421875 720.004882812 m 5
 490.758789062 720.004882812 l 5
 676.8359375 670.334960938 l 5
 722.674804688 502.930664062 l 5
 647.825195312 370.029296875 l 5
 507.765625 309.02734375 l 5
 594.879882812 258.615234375 l 5
 640.729492188 167.0625 l 5
 684.745117188 0 l 5
 505.764648438 0 l 5
 475.920898438 120.9609375 l 5
 423.944335938 224.453125 l 5
 329.952148438 249.926757812 l 5
 276.849609375 249.926757812 l 5
 230 0 l 5
 70.0263671875 0 l 5
 207.7421875 720.004882812 l 5
302.775390625 384.970703125 m 5
 372.80078125 384.970703125 l 5
 497.60546875 407.083984375 l 5
 555.69921875 480.842773438 l 5
 523.270507812 559.404296875 l 5
 407.813476562 574.955078125 l 5
 339.956054688 574.955078125 l 5
 302.775390625 384.970703125 l 5
70 0 m 1
 208 720 l 1
 491 720 l 2
 647 720 754 660 723 503 c 0
 702 393 616 323 508 309 c 1
 579 299 625 232 641 167 c 2
 685 0 l 1
 506 0 l 1
 476 121 l 2
 451 225 411 250 330 250 c 2
 277 250 l 1
 230 0 l 1
 70 0 l 1
340 575 m 1
 303 385 l 1
 373 385 l 2
 476 385 542 412 556 481 c 0
 572 565 503 575 408 575 c 2
 340 575 l 1
EndSplineSet
Fore
SplineSet
299.234375 370.3203125 m 1
 411.389648438 370.3203125 l 1
 523.458984375 406.431640625 l 1
 564.358398438 478.391601562 l 1
 547.29296875 544.1015625 l 1
 450.114257812 575 l 1
 340 575 l 1
 299.234375 370.3203125 l 1
72.75 13.25 m 1
 208 721 l 1
 485.875 720 l 1
 676.693359375 671.341796875 l 1
 730.592773438 481.538085938 l 1
 622.529296875 299.108398438 l 1
 575.44140625 284.104492188 l 1
 690.294921875 56.14453125 l 1
 535 -15 l 1
 420.705078125 234.801757812 l 1
 398.208984375 227.633789062 l 1
 272.705078125 227.633789062 l 1
 227 -15 l 1
 72.75 13.25 l 1
EndSplineSet
Colour: ffff00
EndChar

StartChar: S
Encoding: 83 83 107
Width: 647
Flags: HMW
HStem: -22.4976 142.8<306.07 381.04 306.07 394.81> 517.082 225.42<526.9 538.12 384.61 687.04 526.9 526.9> 599.702 142.8<394.81 467.23>
LayerCount: 3
Back
SplineSet
79 230 m 1xa0
 234 238 l 1
 225 153 266 125 349 125 c 0
 413 125 471 147 482 204 c 0
 490 245 473 264 419 283 c 0
 384 296 308 317 268 330 c 0
 149 368 141 448 154 516 c 0
 182 665 319 735 450 735 c 0xc0
 620 735 713 664 681 514 c 1
 524 514 l 1
 535 566 504 595 427 595 c 0
 362 595 317 568 311 530 c 0
 305 503 313 487 345 474 c 0
 375 461 443 441 508 422 c 0
 608 392 670 329 646 209 c 0
 616 57 463 -15 326 -15 c 0
 135 -15 60 77 79 230 c 1xa0
EndSplineSet
Fore
SplineSet
231.099609375 235.5625 m 5
 254.58984375 145.427734375 l 5
 348.357421875 120.34765625 l 5
 436.501953125 138.829101562 l 5
 484.149414062 200.87109375 l 5
 475.721679688 249.61328125 l 5
 419.782226562 281.395507812 l 5
 265.70703125 329.354492188 l 5
 157.145507812 412.642578125 l 5
 149.470703125 518.88671875 l 5
 261.030273438 687.5546875 l 5
 451.413085938 742.258789062 l 5
 646.418945312 686.951171875 l 5
 677.860351562 555.842773438 l 5
 526.834960938 517.100585938 l 5
 511.0625 578.250976562 l 5
 427.9453125 599.666015625 l 5
 346.241210938 581.048828125 l 5
 309.497070312 533.420898438 l 5
 312.368164062 499.495117188 l 5
 344.190429688 476.28515625 l 5
 413.915039062 452.063476562 l 5
 510.424804688 423.30859375 l 5
 628.169921875 349.154296875 l 5
 651.149414062 206.059570312 l 5
 528.885742188 33.623046875 l 5
 324.803710938 -22.5009765625 l 5
 118.530273438 43.9306640625 l 5
 80.1396484375 195.782226562 l 5
 231.099609375 235.5625 l 5
EndSplineSet
Validated: 1
Colour: ffff00
EndChar

StartChar: T
Encoding: 84 84 108
Width: 697
Flags: HMW
HStem: 0 21G<252 412 252 252> 575 145<168 362 140 772 522 522 522 744>
LayerCount: 3
Back
SplineSet
412 0 m 1
 252 0 l 1
 362 575 l 1
 140 575 l 1
 168 720 l 1
 772 720 l 1
 744 575 l 1
 522 575 l 1
 412 0 l 1
EndSplineSet
Fore
SplineSet
409.25 -14.75 m 1
 254.75 14 l 1
 362 575 l 1
 140 575 l 1
 140 720 l 1
 772 720 l 1
 772 575 l 1
 522 575 l 1
 409.25 -14.75 l 1
EndSplineSet
Validated: 1
Colour: ffff00
EndChar

StartChar: U
Encoding: 85 85 109
Width: 753
Flags: HMW
HStem: -22.4999 147.9<352.126 446.986 352.126 471.466> 706.8 20.4G<202.696 365.896 365.896 365.896 664.756 827.956 827.956 827.956>
LayerCount: 3
Back
SplineSet
583 317 m 2
 661 720 l 1
 821 720 l 1
 741 302 l 2
 703 107 570 -15 373 -15 c 0
 178 -15 90 107 128 302 c 2
 208 720 l 1
 368 720 l 1
 290 317 l 2
 263 179 308 130 401 130 c 0
 494 130 556 179 583 317 c 2
EndSplineSet
Fore
SplineSet
664 735 m 5
 818 705 l 5
 740.826171875 300.859375 l 5
 617.264648438 64.55859375 l 5
 368.837890625 -22.505859375 l 5
 154.7734375 64.55859375 l 5
 122.26953125 300.859375 l 5
 205.5 734 l 5
 359.5 705 l 5
 284.147460938 316.16796875 l 5
 294.8828125 168.046875 l 5
 397.322265625 125.530273438 l 5
 515.333984375 168.046875 l 5
 583.029296875 316.16796875 l 5
 664 735 l 5
EndSplineSet
Validated: 1
Colour: ffff00
EndChar

StartChar: V
Encoding: 86 86 110
Width: 740
Flags: HMW
HStem: 0 21G<295 437 295 295> 700 20G<153 318 318 318 700 863 863 863>
LayerCount: 3
Back
SplineSet
437 0 m 1
 295 0 l 1
 153 720 l 1
 318 720 l 1
 405 199 l 1
 700 720 l 1
 863 720 l 1
 437 0 l 1
EndSplineSet
Fore
SplineSet
428 -15 m 1
 280.75 72 l 1
 155.25 708.25 l 1
 315.5 735 l 1
 405 199 l 1
 708.5 735 l 1
 831 666 l 1
 428 -15 l 1
EndSplineSet
Validated: 1
Colour: ffff00
EndChar

StartChar: W
Encoding: 87 87 111
Width: 1030
Flags: HMW
HStem: 0 21G<188 378 188 188 652 652 652 842> 700 20G<153 320 320 320 561 745 745 745 987 1153 1153 1153>
VStem: 170 154 633 126
LayerCount: 3
Back
SplineSet
378 0 m 1
 188 0 l 1
 153 720 l 1
 320 720 l 1
 328 175 l 1
 561 720 l 1
 745 720 l 1
 773 175 l 1
 987 720 l 1
 1153 720 l 1
 842 0 l 1
 652 0 l 1
 615 528 l 1
 378 0 l 1
EndSplineSet
Fore
SplineSet
378 0 m 1
 184 86 l 1
 153 718.25 l 1
 320 720 l 1
 328 175 l 1
 567.5 735 l 1
 748 658 l 1
 773 175 l 1
 992.75 735 l 1
 1135.5 679.25 l 1
 835.75 -14.5 l 1
 647.25 66.75 l 1
 615 528 l 1
 378 0 l 1
EndSplineSet
Validated: 1
Colour: ffff00
EndChar

StartChar: X
Encoding: 88 88 112
Width: 722
Flags: HMW
HStem: 0 21G<20 204 20 20 524 524 524 702> 700 20G<176 364 364 364 652 835 835 835>
LayerCount: 3
Back
SplineSet
204 0 m 1
 20 0 l 1
 350 373 l 1
 176 720 l 1
 364 720 l 1
 461 492 l 1
 652 720 l 1
 835 720 l 1
 526 368 l 1
 702 0 l 1
 524 0 l 1
 416 250 l 1
 204 0 l 1
EndSplineSet
Fore
SplineSet
191.5 -14.75 m 5
 85.75 74.5 l 5
 350 373 l 5
 201.75 668.75 l 5
 357.75 735 l 5
 461 492 l 5
 664.5 735 l 5
 770.75 646.75 l 5
 526 368 l 5
 678.5 49 l 5
 530.25 -14.5 l 5
 416 250 l 5
 191.5 -14.75 l 5
EndSplineSet
Validated: 1
Colour: ffff00
EndChar

StartChar: Y
Encoding: 89 89 113
Width: 705
Flags: HMW
HStem: 0 21G<272 433 272 272> 700 20G<148 323 323 323 663 833 833 833>
LayerCount: 3
Back
SplineSet
433 0 m 1
 272 0 l 1
 327 293 l 1
 148 720 l 1
 323 720 l 1
 441 443 l 1
 663 720 l 1
 833 720 l 1
 488 293 l 1
 433 0 l 1
EndSplineSet
Fore
SplineSet
430.25 -14.75 m 5
 275 14.75 l 5
 327 293 l 5
 168 672 l 5
 316.75 735 l 5
 441 443 l 5
 675 735 l 5
 779 653 l 5
 488 293 l 5
 430.25 -14.75 l 5
EndSplineSet
Validated: 1
Colour: ffff00
EndChar

StartChar: Z
Encoding: 90 90 114
Width: 662
Flags: HMW
HStem: 0 145<77 77 251 612 50 77> 575 145<208 533 180 740 712 712>
LayerCount: 3
Back
SplineSet
612 0 m 1
 50 0 l 1
 77 145 l 1
 533 575 l 1
 180 575 l 1
 208 720 l 1
 740 720 l 1
 712 575 l 1
 251 145 l 1
 639 145 l 1
 612 0 l 1
EndSplineSet
Fore
SplineSet
612 0 m 1
 212.75 0 l 5
 77 145 l 1
 533 575 l 1
 180 575 l 1
 180 720 l 1
 578.5 720 l 1
 712 575 l 1
 251 145 l 1
 612 145 l 1
 612 0 l 1
EndSplineSet
Validated: 1
Colour: ffff00
EndChar

StartChar: afii10068
Encoding: 1075 1075 115
Width: 1000
Flags: HM
LayerCount: 3
Back
SplineSet
486 150 m 1xc0
 457 55 364 -15 237 -15 c 0
 113 -15 31 41 54 156 c 0
 75 263 161 302 221 314 c 2
 345 339 l 2
 371 344 383 356 387 373 c 0
 394 408 365 420 324 420 c 0xa0
 289 420 260 406 245 363 c 1
 116 363 l 1
 136 472 227 535 341 535 c 0
 448 535 538 488 515 369 c 0
 498 283 430 233 360 218 c 2
 231 191 l 2
 210 187 191 176 186 152 c 0
 178 110 215 100 256 100 c 0
 312 100 353 126 367 171 c 1
 486 150 l 1xc0
EndSplineSet
Fore
Validated: 1
Colour: ff0000
EndChar

StartChar: zero
Encoding: 48 48 116
Width: 596
Flags: HMW
HStem: -15 125<425.439 472.439 425.439 503.439> 610 125<490.439 537.439>
LayerCount: 3
Back
SplineSet
104 360 m 0
 145 567 251 735 440 735 c 0
 629 735 671 567 630 360 c 0
 590 153 484 -15 295 -15 c 0
 106 -15 64 153 104 360 c 0
490 360 m 0
 499 402 503 443 500 478 c 1
 280 122 l 1
 291 114 304 110 319 110 c 0
 398 110 464 223 490 360 c 0
244 360 m 0
 236 318 233 278 234 243 c 1
 454 598 l 1
 443 606 431 610 416 610 c 0
 337 610 271 497 244 360 c 0
EndSplineSet
Fore
SplineSet
440.686523438 742.749023438 m 1
 625.583984375 630.655273438 l 1
 634.469726562 360.284179688 l 1
 520.55078125 89.9052734375 l 1
 292.733398438 -22.1796875 l 1
 107.70703125 89.9052734375 l 1
 97.9296875 360.284179688 l 1
 212.772460938 630.655273438 l 1
 440.686523438 742.749023438 l 1
231 238 m 1
 457 602 l 1
 416.283203125 615.329101562 l 1
 308.676757812 540.290039062 l 1
 240.864257812 360.413085938 l 1
 232.30859375 297.935546875 l 1
 231 238 l 1
501.908203125 480.518554688 m 1
 277.512695312 117.436523438 l 1
 317.306640625 105.0625 l 1
 424.75390625 180.134765625 l 1
 491.704101562 359.987304688 l 1
 501.3984375 423.068359375 l 1
 501.908203125 480.518554688 l 1
EndSplineSet
Validated: 1
Colour: ffff00
EndChar

StartChar: one
Encoding: 49 49 117
Width: 596
Flags: HMW
HStem: 0 21G<261 416 261 261> 700 20G<451 555 555 555>
LayerCount: 3
Back
SplineSet
555 720 m 1
 416 0 l 1
 261 0 l 1
 351 465 l 1
 327 428 280 400 202 400 c 1
 230 545 l 1
 335 555 421 638 451 720 c 1
 555 720 l 1
EndSplineSet
Fore
SplineSet
413 -15 m 1
 263.5 13.25 l 5
 350.977539062 465 l 1
 296.760742188 418.623046875 l 1
 202.091796875 400.0625 l 1
 178 522 l 1
 368.650390625 605.34765625 l 1
 451.012695312 720.004882812 l 1
 554.966796875 720.004882812 l 1
 413 -15 l 1
EndSplineSet
Validated: 1
Colour: ffff00
EndChar

StartChar: two
Encoding: 50 50 118
Width: 596
Flags: HMW
HStem: 0 145<274 529> 595 140<393.5 439>
LayerCount: 3
Back
SplineSet
274 145 m 1
 557 145 l 1
 529 0 l 1
 64 0 l 1
 100 201 193 269 330 362 c 0
 429 429 472 459 484 522 c 0
 494 573 461 595 417 595 c 0
 370 595 320 570 303 492 c 1
 167 512 l 1
 201 648 301 735 446 735 c 0
 578 735 662 667 634 520 c 0
 612 411 512 330 413 268 c 0
 326 214 283 184 274 145 c 1
EndSplineSet
Fore
SplineSet
557.11328125 145.03515625 m 1
 557 0 l 1
 109.75 0 l 1
 109.463867188 145 l 1
 151.359375 222.8984375 l 1
 325.447265625 366.205078125 l 1
 437.284179688 449.247070312 l 1
 482.668945312 529.294921875 l 1
 469.106445312 585.98046875 l 1
 414.220703125 603.696289062 l 1
 344.717773438 581.046875 l 1
 297.984375 498.762695312 l 1
 159.298828125 519.174804688 l 1
 259.059570312 684.866210938 l 1
 443.895507812 746.543945312 l 1
 600.95703125 693.193359375 l 1
 635.638671875 527.338867188 l 1
 552.404296875 380.944335938 l 1
 410.30859375 270.458007812 l 1
 309.547851562 201.9765625 l 1
 268.477539062 145.03515625 l 1
 557.11328125 145.03515625 l 1
EndSplineSet
Colour: ffff00
EndChar

StartChar: three
Encoding: 51 51 119
Width: 596
Flags: HMW
HStem: -22.5003 142.8<290.832 341.322 290.832 359.172> 325.32 137.7<318.372 344.892 291.852 371.412> 612.96 129.54<384.672 427.512>
LayerCount: 3
Back
SplineSet
319 461 m 1
 371 461 l 2
 423 461 449 493 458 538 c 0
 467 583 446 608 406 608 c 0
 362 608 323 576 312 518 c 1
 172 540 l 1
 205 658 313 735 432 735 c 0
 551 735 639 671 615 550 c 0
 600 472 551 419 478 399 c 1
 562 378 595 305 576 210 c 0
 549 70 429 -15 289 -15 c 0
 153 -15 67 65 86 189 c 1
 243 202 l 1
 237 155 268 125 316 125 c 0
 367 125 414 159 426 220 c 0
 438 281 416 326 345 326 c 2
 293 326 l 1
 319 461 l 1
EndSplineSet
Fore
SplineSet
372.5 460.856445312 m 1
 433.33984375 485.122070312 l 1
 461.229492188 541.509765625 l 1
 453.354492188 594.46875 l 1
 408.171875 612.93359375 l 1
 347.662109375 589.264648438 l 1
 312.342773438 521.276367188 l 1
 196 582 l 1
 269.146484375 688.2109375 l 1
 434.530273438 742.522460938 l 1
 582.567382812 694.453125 l 1
 621.170898438 553.841796875 l 1
 573.48046875 454.68359375 l 1
 481.466796875 399.852539062 l 1
 570.73828125 331.770507812 l 1
 581.376953125 207.00390625 l 1
 478.278320312 38.68359375 l 1
 288.704101562 -22.4912109375 l 1
 125.934570312 34.099609375 l 1
 90 155 l 1
 241.8515625 198.83984375 l 1
 258.389648438 141.567382812 l 1
 316.25390625 120.270507812 l 1
 387.25390625 145.38671875 l 1
 428.408203125 217.125 l 1
 418.799804688 294.502929688 l 1
 345.673828125 325.946289062 l 1
 292.700195312 325.946289062 l 1
 319.229492188 460.856445312 l 1
 372.5 460.856445312 l 1
EndSplineSet
Validated: 1
Colour: ffff00
EndChar

StartChar: four
Encoding: 52 52 120
Width: 596
Flags: HMW
HStem: 0 21G<319 474 319 319> 141 140<94 94 244 346 67 94 528 588> 700 20G<474 613 613 613>
LayerCount: 3
Back
SplineSet
474 0 m 1
 319 0 l 1
 346 141 l 1
 67 141 l 1
 94 281 l 1
 474 720 l 1
 613 720 l 1
 528 281 l 1
 615 281 l 1
 588 141 l 1
 501 141 l 1
 474 0 l 1
244 281 m 1
 373 281 l 1
 412 480 l 1
 244 281 l 1
EndSplineSet
Fore
SplineSet
471 -15 m 1
 321.75 13.25 l 1
 346 141 l 1
 94 141 l 1
 94 281 l 1
 488 736 l 1
 611.75 712 l 1
 528 281 l 1
 615 281 l 1
 615 141 l 1
 501 141 l 1
 471 -15 l 1
244 281 m 1
 373 281 l 1
 412 480 l 1
 244 281 l 1
EndSplineSet
Validated: 1
Colour: ffff00
EndChar

StartChar: five
Encoding: 53 53 121
Width: 596
Flags: HMW
HStem: -15 140<286 348.5 286 368> 365 140<391.5 394> 575 145<343 616 343 343>
LayerCount: 3
Back
SplineSet
76 187 m 1
 228 215 l 1
 225 159 259 125 313 125 c 0
 384 125 428 178 442 250 c 0
 455 315 429 365 359 365 c 0
 312 365 281 344 254 308 c 1
 115 328 l 1
 260 720 l 1
 644 720 l 1
 616 575 l 1
 343 575 l 1
 303 471 l 1
 323 488 368 505 415 505 c 0
 568 505 627 392 599 250 c 0
 570 101 453 -15 283 -15 c 0
 150 -15 63 61 76 187 c 1
EndSplineSet
Fore
SplineSet
228 215 m 1
 249.163085938 149.120117188 l 1
 313.029296875 125.131835938 l 1
 398.966796875 160.59375 l 1
 442.075195312 250.01171875 l 1
 431.67578125 331.983398438 l 1
 359.129882812 365.135742188 l 1
 299.118164062 350.110351562 l 1
 254.17578125 307.9453125 l 1
 115.04296875 327.956054688 l 1
 260.010742188 719.83984375 l 1
 643.897460938 719.83984375 l 1
 643.75 574.95703125 l 1
 342.95703125 574.95703125 l 1
 303.026367188 470.921875 l 1
 348.845703125 494.268554688 l 1
 414.982421875 504.932617188 l 1
 574.872070312 430.69921875 l 1
 598.96484375 249.928710938 l 1
 493.865234375 61.603515625 l 1
 283.102539062 -14.9990234375 l 1
 124.848632812 38.6904296875 l 1
 82.75 168 l 1
 228 215 l 1
EndSplineSet
Validated: 1
Colour: ffff00
EndChar

StartChar: six
Encoding: 54 54 122
Width: 596
Flags: HMW
HStem: -15 140<296.5 355 296.5 380.5> 327 135<381.5 394> 600 135<392.5 448>
LayerCount: 3
Back
SplineSet
628 567 m 1
 492 527 l 1
 485 575 471 600 425 600 c 0
 360 600 305 521 281 409 c 1
 314 442 356 462 407 462 c 0
 551 462 606 357 582 232 c 0
 556 101 453 -15 308 -15 c 0
 116 -15 84 138 123 335 c 0
 174 601 295 735 456 735 c 0
 579 735 629 657 628 567 c 1
249 226 m 0
 238 167 266 125 327 125 c 0
 383 125 432 167 443 226 c 0
 455 285 422 327 366 327 c 0
 310 327 261 285 249 226 c 0
EndSplineSet
Fore
SplineSet
494.287109375 530.323242188 m 1
 475.016601562 585.979492188 l 1
 425.8359375 604.90234375 l 1
 336.810546875 550.352539062 l 1
 278.904296875 410.098632812 l 1
 336.268554688 449.807617188 l 1
 407.469726562 464.256835938 l 1
 561.002929688 394.678710938 l 1
 586.034179688 229.573242188 l 1
 491.798828125 53.5478515625 l 1
 306.625 -22.3662109375 l 1
 123.8515625 80.7890625 l 1
 117.85546875 334.498046875 l 1
 245.5390625 640.283203125 l 1
 457.465820312 742.5625 l 1
 592.580078125 691.287109375 l 1
 630 578 l 1
 494.287109375 530.323242188 l 1
326.096679688 120.396484375 m 1
 402.431640625 149.337890625 l 1
 444.458984375 223.365234375 l 1
 431.21484375 297.400390625 l 1
 365.805664062 326.341796875 l 1
 289.342773438 297.400390625 l 1
 246.677734375 223.365234375 l 1
 258.708984375 149.337890625 l 1
 326.096679688 120.396484375 l 1
EndSplineSet
Validated: 1
Colour: ffff00
EndChar

StartChar: seven
Encoding: 55 55 123
Width: 596
Flags: HMW
HStem: 0 21G<160 316 160 160> 575 145<199 482 171 670 642 642>
LayerCount: 3
Back
SplineSet
482 575 m 1
 171 575 l 1
 199 720 l 1
 670 720 l 1
 642 575 l 1
 478 429 372 224 316 0 c 1
 160 0 l 1
 204 208 331 446 482 575 c 1
EndSplineSet
Fore
SplineSet
171.072265625 574.950195312 m 1
 171 720 l 1
 642 720 l 1
 641.907226562 574.950195312 l 1
 438.491210938 316.818359375 l 1
 310 -15 l 1
 174 37 l 1
 280.850585938 317.16015625 l 1
 481.849609375 574.950195312 l 1
 171.072265625 574.950195312 l 1
EndSplineSet
Colour: ffff00
EndChar

StartChar: eight
Encoding: 56 56 124
Width: 596
Flags: HMW
HStem: -15 140<295.5 346.5 295.5 364> 326 125<363 385.5> 605 130<393 435>
LayerCount: 3
Back
SplineSet
94 203 m 0
 112 298 166 362 256 399 c 1
 198 424 174 472 189 550 c 0
 212 664 320 735 439 735 c 0
 558 735 641 664 618 550 c 0
 603 472 561 424 493 399 c 1
 569 362 598 298 580 203 c 0
 555 73 434 -15 294 -15 c 0
 154 -15 69 73 94 203 c 0
250 225 m 0
 237 159 270 125 321 125 c 0
 372 125 419 159 432 225 c 0
 445 293 411 326 360 326 c 0
 309 326 263 293 250 225 c 0
333 528 m 0
 324 483 342 451 384 451 c 0
 426 451 457 483 466 528 c 0
 475 573 456 605 414 605 c 0
 372 605 342 573 333 528 c 0
EndSplineSet
Fore
SplineSet
254.119140625 399.725585938 m 5
 192.111328125 456.545898438 l 5
 185.842773438 553.799804688 l 5
 276.474609375 691.731445312 l 5
 440.763671875 742.48046875 l 5
 586.368164062 691.731445312 l 5
 623.23828125 553.799804688 l 5
 579.756835938 456.478515625 l 5
 495.778320312 399.725585938 l 5
 576.068359375 321.981445312 l 5
 584.546875 199.733398438 l 5
 482.6171875 38.9306640625 l 5
 292.809570312 -22.4482421875 l 5
 127.754882812 39.0244140625 l 5
 88.90625 199.733398438 l 5
 143.995117188 321.948242188 l 5
 254.119140625 399.725585938 l 5
320.443359375 120.314453125 m 5
 391.505859375 146.067382812 l 5
 433.6171875 222.262695312 l 5
 421.352539062 299.708007812 l 5
 360.237304688 325.240234375 l 5
 289.620117188 299.7421875 l 5
 248.08203125 222.262695312 l 5
 259.7421875 146.1015625 l 5
 320.443359375 120.314453125 l 5
384.640625 452.86328125 m 5
 439.091796875 474.900390625 l 5
 468.225585938 531.432617188 l 5
 461.208984375 587.819335938 l 5
 415.166015625 609.830078125 l 5
 361.245117188 587.819335938 l 5
 332.515625 531.432617188 l 5
 339.124023438 474.866210938 l 5
 384.640625 452.86328125 l 5
EndSplineSet
Validated: 1
Colour: ffff00
EndChar

StartChar: nine
Encoding: 57 57 125
Width: 596
Flags: HMW
HStem: -15 135<296 351.5 296 368.5> 258 135<340 352.5> 595 140<379 437.5>
LayerCount: 3
Back
SplineSet
106 153 m 1
 242 193 l 1
 249 145 273 120 319 120 c 0
 384 120 439 199 453 311 c 1
 420 278 378 258 327 258 c 0
 183 258 128 363 152 488 c 0
 178 619 281 735 426 735 c 0
 618 735 657 612 613 385 c 0
 560 109 449 -15 288 -15 c 0
 165 -15 105 63 106 153 c 1
485 494 m 0
 496 553 468 595 407 595 c 0
 351 595 302 553 291 494 c 0
 279 435 312 393 368 393 c 0
 424 393 473 435 485 494 c 0
EndSplineSet
Fore
SplineSet
242 193 m 1
 265.884765625 138.5859375 l 1
 319.02734375 120.05859375 l 1
 405.037109375 173.5390625 l 1
 452.907226562 311.04296875 l 1
 396.669921875 272.196289062 l 1
 326.86328125 258.112304688 l 1
 176.381835938 326.176757812 l 1
 151.883789062 488.01953125 l 1
 244.240234375 660.602539062 l 1
 425.814453125 735.028320312 l 1
 607.786132812 645.118164062 l 1
 612.629882812 385.15234375 l 1
 490.69140625 81.6201171875 l 1
 287.848632812 -14.90234375 l 1
 150.331054688 35.4267578125 l 1
 112 136 l 5
 242 193 l 1
406.974609375 594.981445312 m 1
 332.115234375 566.606445312 l 1
 291.017578125 494.0234375 l 1
 303.958984375 421.381835938 l 1
 368.044921875 393.073242188 l 1
 442.98828125 421.381835938 l 1
 484.918945312 494.0234375 l 1
 472.987304688 566.606445312 l 1
 406.974609375 594.981445312 l 1
EndSplineSet
Validated: 1
Colour: ffff00
EndChar

StartChar: comma
Encoding: 44 44 126
Width: 251
Flags: HMW
HStem: -157 21G<73 73> 0 150<79 127 50 230 201 201>
LayerCount: 3
Back
SplineSet
127 0 m 1
 50 0 l 1
 79 150 l 1
 230 150 l 1
 201 0 l 2
 184 -85 133 -133 73 -157 c 1
 48 -94 l 1
 86 -79 116 -54 127 0 c 1
EndSplineSet
Fore
SplineSet
69.2060546875 108.122070312 m 5
 122.6640625 152.908203125 l 5
 187.120117188 152.908203125 l 5
 223.235351562 108.11328125 l 5
 217.077148438 76.373046875 l 5
 202.251953125 -0.060546875 l 5
 153.518554688 -103.419921875 l 5
 82.73046875 -152.241210938 l 5
 46.2216796875 -95.884765625 l 5
 96.7822265625 -62.89453125 l 5
 126.745117188 -0.060546875 l 5
 93.0576171875 -0.060546875 l 5
 56.9306640625 44.7607421875 l 5
 69.2060546875 108.122070312 l 5
EndSplineSet
Validated: 1
Colour: ffff00
EndChar

StartChar: period
Encoding: 46 46 127
Width: 251
Flags: HMW
HStem: 0 150<78 201 50 229>
LayerCount: 3
Back
SplineSet
201 0 m 1
 50 0 l 1
 78 150 l 1
 229 150 l 1
 201 0 l 1
EndSplineSet
Fore
SplineSet
114.6171875 155.619140625 m 5
 193.359375 139.916992188 l 5
 225.647460938 96.4228515625 l 5
 210.919921875 22.30078125 l 5
 164.46484375 -5.5625 l 5
 85.7216796875 10.140625 l 5
 53.43359375 53.6337890625 l 5
 68.1611328125 127.755859375 l 5
 114.6171875 155.619140625 l 5
EndSplineSet
Validated: 1
Colour: ffff00
EndChar

StartChar: hyphen
Encoding: 45 45 128
Width: 370
Flags: HMW
HStem: 192 136<113 357 87 383>
LayerCount: 3
Back
SplineSet
357 192 m 1
 87 192 l 1
 113 328 l 1
 383 328 l 1
 357 192 l 1
EndSplineSet
Fore
SplineSet
357 192 m 1
 87 192 l 1
 87 328 l 5
 357 328 l 5
 357 192 l 1
EndSplineSet
Validated: 1
Colour: ffff00
EndChar

StartChar: endash
Encoding: 8211 8211 129
Width: 556
Flags: HMW
HStem: 200 125<93 564 68 589>
LayerCount: 3
Back
SplineSet
564 200 m 1
 68 200 l 1
 93 325 l 1
 589 325 l 1
 564 200 l 1
EndSplineSet
Fore
SplineSet
564 200 m 1
 68 200 l 1
 68.25 325 l 1
 564.25 325 l 1
 564 200 l 1
EndSplineSet
Validated: 1
EndChar

StartChar: emdash
Encoding: 8212 8212 130
Width: 710
Flags: HMW
HStem: 200 125<63 738 38 763>
LayerCount: 3
Back
SplineSet
738 200 m 1
 38 200 l 1
 63 325 l 1
 763 325 l 1
 738 200 l 1
EndSplineSet
Fore
SplineSet
738 200 m 1
 63.5 200 l 5
 63.25 325 l 5
 737.75 325 l 1
 738 200 l 1
EndSplineSet
Validated: 1
EndChar

StartChar: exclam
Encoding: 33 33 131
Width: 259
Flags: HMW
HStem: 0 150<82 205 54 233> 700 20G<188 347 347 347>
LayerCount: 3
Back
SplineSet
230 228 m 1
 114 228 l 1
 188 720 l 1
 347 720 l 1
 230 228 l 1
205 0 m 1
 54 0 l 1
 82 150 l 1
 233 150 l 1
 205 0 l 1
EndSplineSet
Fore
SplineSet
118.783203125 155.659179688 m 5
 197.525390625 139.95703125 l 5
 229.813476562 96.462890625 l 5
 215.0859375 22.3408203125 l 5
 168.630859375 -5.5224609375 l 5
 89.8876953125 10.1806640625 l 5
 57.599609375 53.673828125 l 5
 72.3271484375 127.795898438 l 5
 118.783203125 155.659179688 l 5
230 228 m 1
 116.75 246 l 1
 190.25 735 l 1
 345 712 l 1
 230 228 l 1
EndSplineSet
Validated: 1
Colour: ffff00
EndChar

StartChar: question
Encoding: 63 63 132
Width: 596
Flags: HMW
HStem: 0 150<245 367 216 396> 595 140<384 430>
LayerCount: 3
Back
SplineSet
402 208 m 1
 257 208 l 1
 266 253 l 2
 281 334 322 384 391 428 c 0
 444 462 467 486 475 527 c 0
 483 571 456 595 404 595 c 0
 364 595 314 561 301 494 c 1
 160 524 l 1
 198 656 310 735 430 735 c 0
 568 735 655 656 631 533 c 0
 612 435 547 396 483 345 c 0
 441 312 422 300 409 243 c 2
 402 208 l 1
367 0 m 1
 216 0 l 1
 245 150 l 1
 396 150 l 1
 367 0 l 1
EndSplineSet
Fore
SplineSet
281.469726562 155.619140625 m 5
 360.211914062 139.916992188 l 5
 392.5 96.4228515625 l 5
 377.772460938 22.30078125 l 5
 331.317382812 -5.5625 l 5
 252.57421875 10.140625 l 5
 220.286132812 53.6337890625 l 5
 235.013671875 127.755859375 l 5
 281.469726562 155.619140625 l 5
259.587890625 230.016601562 m 1
 263.283203125 248.760742188 l 1
 306.352539062 352.078125 l 1
 390.744140625 427.150390625 l 1
 450.818359375 475.015625 l 1
 476.455078125 528.163085938 l 1
 463.1484375 579.728515625 l 1
 403.923828125 597.5546875 l 1
 341.086914062 571.673828125 l 1
 298.911132812 494.577148438 l 1
 155.209960938 525.109375 l 1
 261.529296875 683.130859375 l 1
 430.537109375 740.147460938 l 1
 594.96484375 684.270507812 l 1
 635.545898438 534.202148438 l 1
 577.236328125 420.278320312 l 1
 435.798828125 299.59375 l 1
 409.110351562 238.384765625 l 1
 401.965820312 202.672851562 l 1
 259.588867188 229.76171875 l 1
 259.587890625 230.016601562 l 1
EndSplineSet
Validated: 1
Colour: ffff00
EndChar

StartChar: .grave
Encoding: 65536 -1 133
Width: 500
Flags: MW
HStem: -15 75<4333.5 4403.5 4333.5 4429> 460 75<4338.5 4403.5>
VStem: 4135 90<189 331 189 346> 4447 64<244 275.5 244 330 190 275.5> 4511 90<244 275.5> 4601 24<241 278.5>
LayerCount: 3
Back
SplineSet
4225 260 m 0
 4225 118 4294 60 4373 60 c 0
 4434 60 4483 95 4502 177 c 1
 4589 158 l 1
 4561 48 4485 -15 4373 -15 c 0
 4229 -15 4135 88 4135 260 c 0
 4135 432 4229 535 4373 535 c 0
 4485 535 4561 471 4589 362 c 1
 4502 342 l 1
 4483 425 4434 460 4373 460 c 0
 4304 460 4225 402 4225 260 c 0
4511 260 m 0
 4511 291 4508 319 4502 342 c 1
 4447 330 l 1
 4447 190 l 1
 4502 177 l 1
 4508 201 4511 228 4511 260 c 0
4625 150 m 1
 4625 370 l 1
 4589 362 l 1
 4596 331 4601 297 4601 260 c 0
 4601 222 4596 188 4589 158 c 1
 4625 150 l 1
EndSplineSet
Fore
SplineSet
4225 260 m 0
 4225 118 4294 60 4373 60 c 0
 4434 60 4483 95 4502 177 c 1
 4589 158 l 1
 4561 48 4485 -15 4373 -15 c 0
 4229 -15 4135 88 4135 260 c 0
 4135 432 4229 535 4373 535 c 0
 4485 535 4561 471 4589 362 c 1
 4502 342 l 1
 4483 425 4434 460 4373 460 c 0
 4304 460 4225 402 4225 260 c 0
4511 260 m 0
 4511 291 4508 319 4502 342 c 1
 4447 330 l 1
 4447 190 l 1
 4502 177 l 1
 4508 201 4511 228 4511 260 c 0
4625 150 m 1
 4625 370 l 1
 4589 362 l 1
 4596 331 4601 297 4601 260 c 0
 4601 222 4596 188 4589 158 c 1
 4625 150 l 1
EndSplineSet
Validated: 5
EndChar

StartChar: afii10065
Encoding: 1072 1072 134
Width: 551
Flags: HMW
LayerCount: 3
Back
SplineSet
350 54 m 1xa0
 298 2 250 -15 188 -15 c 0
 94 -15 25 36 44 132 c 0
 65 244 151 286 280 301 c 0
 335 307 368 313 396 325 c 1
 399 337 l 2
 405 371 394 413 331 413 c 0x60
 273 413 243 374 226 336 c 1
 107 378 l 1
 156 498 265 535 362 535 c 0
 495 535 576 475 544 314 c 2
 505 106 l 2
 494 53 500 19 515 0 c 1
 364 0 l 1
 350 13 349 37 350 54 c 1xa0
366 165 m 1
 379 235 l 1
 359 228 334 219 282 209 c 0
 234 200 201 183 195 142 c 0
 192 119 201 97 244 97 c 0xa0
 291 97 342 130 366 165 c 1
EndSplineSet
Fore
SplineSet
67.541015625 17.6220703125 m 1
 37.2490234375 129.231445312 l 1
 116.305664062 252.560546875 l 1
 277.883789062 301.590820312 l 1
 396.247070312 325.991210938 l 1
 399.30859375 338.32421875 l 1
 390.965820312 390.110351562 l 1
 330.008789062 415.87109375 l 1
 260.81640625 391.095703125 l 1
 222.87109375 337.302734375 l 1
 124.459960938 406.118164062 l 1
 213.252929688 506.098632812 l 1
 361.640625 540.272460938 l 1
 517.522460938 489.174804688 l 1
 544.260742188 314.943359375 l 1
 482 -15 l 1
 343.485351562 11.2783203125 l 1
 349.390625 49.8974609375 l 1
 270.609375 -5.3076171875 l 1
 184.176757812 -20.591796875 l 1
 67.541015625 17.6220703125 l 1
378.985351562 234.334960938 m 1
 280.010742188 207.798828125 l 1
 219.62890625 185.890625 l 1
 191.32421875 139.352539062 l 1
 198.723632812 107.671875 l 1
 241.323242188 93.51953125 l 1
 312.291015625 114.798828125 l 1
 365.72265625 162.731445312 l 1
 378.985351562 234.334960938 l 1
EndSplineSet
EndChar

StartChar: afii10066
Encoding: 1073 1073 135
Width: 1000
Flags: HM
LayerCount: 3
Back
SplineSet
662 750 m 1
 620 601 l 1
 603 588 569 583 547 581 c 2
 405 571 l 2
 324 565 264 518 238 431 c 1
 289 488 357 504 407 504 c 0
 543 504 621 412 590 247 c 0
 557 77 424 -15 281 -15 c 0
 141 -15 39 74 80 290 c 0
 117 482 210 705 453 720 c 2
 585 728 l 2
 615 730 645 737 662 750 c 1
222 243 m 0
 205 151 243 110 305 110 c 0
 367 110 421 151 438 243 c 0
 457 335 419 375 357 375 c 0
 295 375 241 335 222 243 c 0
EndSplineSet
Fore
SplineSet
619.985351562 601.047851562 m 1
 585.420898438 586.880859375 l 1
 547.041992188 581.044921875 l 1
 405.075195312 571.122070312 l 1
 300.923828125 531.516601562 l 1
 238.099609375 431.075195312 l 1
 322.87890625 488.93359375 l 1
 406.909179688 504.016601562 l 1
 561.078125 437.395507812 l 1
 589.890625 247.094726562 l 1
 476.65234375 52.4072265625 l 1
 280.947265625 -14.9140625 l 1
 112.627929688 56.5849609375 l 1
 80.04296875 290.02734375 l 1
 189.279296875 571.35546875 l 1
 453.008789062 720.0078125 l 1
 585.055664062 728.012695312 l 1
 628.341796875 734.682617188 l 1
 662 750 l 1
 619.985351562 601.047851562 l 1
305.040039062 110.116210938 m 1
 388.37109375 142.04296875 l 1
 438.00390625 243.000976562 l 1
 427.90625 343.575195312 l 1
 356.974609375 375.051757812 l 1
 273.392578125 343.575195312 l 1
 222.009765625 243.000976562 l 1
 233.920898438 142.04296875 l 1
 305.040039062 110.116210938 l 1
EndSplineSet
Colour: ff0000
EndChar

StartChar: afii10067
Encoding: 1074 1074 136
Width: 1000
Flags: HM
LayerCount: 3
Back
SplineSet
532 381 m 0
 524 331 476 285 423 270 c 1
 492 255 513 197 502 145 c 0
 477 37 375 -15 269 -15 c 0
 95 -15 31 87 72 276 c 0
 105 429 192 535 356 535 c 0
 453 535 550 495 532 381 c 0
381 366 m 0
 390 400 364 420 330 420 c 0
 280 420 252 386 236 336 c 2
 231 320 l 1
 266 320 l 2
 323 320 369 321 381 366 c 0
351 152 m 0
 357 189 332 205 274 205 c 2
 203 205 l 1
 200 194 l 2
 188 147 198 100 271 100 c 0
 318 100 347 127 351 152 c 0
EndSplineSet
Fore
SplineSet
425.499023438 270.138671875 m 1
 496.329101562 220.581054688 l 1
 505.9375 142.768554688 l 1
 418.143554688 19.7802734375 l 1
 268.36328125 -20.4912109375 l 1
 85.70703125 55.6025390625 l 1
 67.521484375 276.262695312 l 1
 162.192382812 466.814453125 l 1
 357.049804688 540.279296875 l 1
 490.770507812 505.3671875 l 1
 536.548828125 383.143554688 l 1
 498.274414062 313.376953125 l 1
 425.499023438 270.138671875 l 1
201.01953125 203.90234375 m 1
 198.043945312 192.760742188 l 1
 201.743164062 126.779296875 l 1
 270.490234375 96.7666015625 l 1
 327.693359375 113.741210938 l 1
 352.119140625 149.905273438 l 1
 337.228515625 191.025390625 l 1
 273.55078125 203.90234375 l 1
 201.01953125 203.90234375 l 1
269.692382812 399.47265625 m 1
 234.776367188 337.57421875 l 1
 229.588867188 321.159179688 l 1
 265.38671875 321.159179688 l 2
 341.201171875 327.452148438 l 1
 382.643554688 368.149414062 l 1
 373.088867188 408.623046875 l 1
 330.689453125 423.073242188 l 1
 330.689453125 423.073242188 l 1
 269.692382812 399.47265625 l 1
EndSplineSet
EndChar

StartChar: periodcentered
Encoding: 183 183 137
Width: 251
Flags: HMW
HStem: 187 150<115 237 86 266>
LayerCount: 3
Back
SplineSet
237 187 m 1
 86 187 l 1
 115 337 l 1
 266 337 l 1
 237 187 l 1
EndSplineSet
Fore
SplineSet
150.721679688 342.61328125 m 1
 229.463867188 326.911132812 l 1
 261.751953125 283.416992188 l 1
 247.024414062 209.294921875 l 1
 200.569335938 181.431640625 l 1
 121.826171875 197.134765625 l 1
 89.5380859375 240.627929688 l 1
 104.265625 314.75 l 1
 150.721679688 342.61328125 l 1
EndSplineSet
Validated: 1
Colour: ffff00
EndChar

StartChar: afii10071
Encoding: 1105 1105 138
Width: 556
Flags: HMW
LayerCount: 3
Back
SplineSet
544 141 m 1xac
 485 38 398 -15 273 -15 c 0
 139 -15 31 68 68 260 c 0
 105 452 246 535 379 535 c 0
 486 535 592 487 585 366 c 0
 579 252 483 217 360 217 c 2
 210 217 l 1
 200 145 240 110 307 110 c 0
 355 110 391 137 409 170 c 1
 544 141 l 1xac
351 410 m 0
 301 410 249 376 232 319 c 1
 369 319 l 2
 407 319 431 337 430 366 c 0
 429 396 390 410 351 410 c 0
352 580 m 1
 201 580 l 1
 227 720 l 1xdc
 378 720 l 1
 352 580 l 1
578 580 m 1
 427 580 l 1
 453 720 l 1
 604 720 l 1
 578 580 l 1
EndSplineSet
Fore
SplineSet
490.6171875 730.735351562 m 1
 569.359375 715.033203125 l 1
 601.647460938 671.5390625 l 1
 586.919921875 597.416992188 l 1
 540.46484375 569.553710938 l 1
 461.721679688 585.256835938 l 1
 429.43359375 628.75 l 1
 444.161132812 702.872070312 l 1
 490.6171875 730.735351562 l 1
264.93359375 730.735351562 m 1
 343.67578125 715.033203125 l 1
 375.963867188 671.5390625 l 1
 361.236328125 597.416992188 l 1
 314.78125 569.553710938 l 1
 236.038085938 585.256835938 l 1
 203.75 628.75 l 1
 218.477539062 702.872070312 l 1
 264.93359375 730.735351562 l 1
EndSplineSet
Refer: 67 101 N 1 0 0 1 0 0 3
EndChar

StartChar: afii10023
Encoding: 1025 1025 139
Width: 667
Flags: HMW
LayerCount: 3
Back
SplineSet
607 0 m 1
 70 0 l 1
 208 720 l 1
 735 720 l 1
 707 575 l 1
 340 575 l 1
 314 440 l 1
 631 440 l 1
 603 295 l 1
 286 295 l 1
 257 145 l 1
 634 145 l 1
 607 0 l 1
434 780 m 1
 283 780 l 1
 309 920 l 1
 460 920 l 1
 434 780 l 1
675 780 m 1
 524 780 l 1
 550 920 l 1
 701 920 l 1
 675 780 l 1
EndSplineSet
Fore
SplineSet
588.3671875 931 m 5
 667.109375 915.297851562 l 5
 699.397460938 871.803710938 l 5
 684.669921875 797.681640625 l 5
 638.21484375 769.818359375 l 5
 559.471679688 785.521484375 l 5
 527.18359375 829.014648438 l 5
 541.911132812 903.13671875 l 5
 588.3671875 931 l 5
346.93359375 931 m 5
 425.67578125 915.297851562 l 5
 457.963867188 871.803710938 l 5
 443.236328125 797.681640625 l 5
 396.78125 769.818359375 l 5
 318.038085938 785.521484375 l 5
 285.75 829.014648438 l 5
 300.477539062 903.13671875 l 5
 346.93359375 931 l 5
607 0 m 1
 70 0 l 1
 208 720 l 1
 707 720 l 1
 707 575 l 1
 340 575 l 1
 314 440 l 1
 630.75 440 l 1
 630.75 295 l 1
 286 295 l 1
 257 145 l 1
 607 145 l 1
 607 0 l 1
EndSplineSet
EndChar

StartChar: underscore
Encoding: 95 95 140
Width: 656
Flags: HMW
HStem: 0 125<74 606 50 630>
LayerCount: 3
Back
SplineSet
606 0 m 1
 50 0 l 1
 74 125 l 1
 630 125 l 1
 606 0 l 1
EndSplineSet
Fore
SplineSet
630 0 m 5
 50 0 l 1
 49.75 125 l 1
 629.75 125 l 5
 630 0 l 5
EndSplineSet
Validated: 1
Colour: ffff00
EndChar

StartChar: colon
Encoding: 58 58 141
Width: 250
Flags: HMW
HStem: 52 150<88 210 59 239> 322 150<140 262 111 291>
LayerCount: 3
Back
SplineSet
262 322 m 1
 111 322 l 1
 140 472 l 1
 291 472 l 1
 262 322 l 1
210 52 m 1
 59 52 l 1
 88 202 l 1
 239 202 l 1
 210 52 l 1
EndSplineSet
Fore
SplineSet
176.189453125 476.959960938 m 5
 254.931640625 461.2578125 l 5
 287.219726562 417.764648438 l 5
 272.491210938 343.641601562 l 5
 226.036132812 315.779296875 l 5
 147.29296875 331.482421875 l 5
 115.004882812 374.974609375 l 5
 129.733398438 449.09765625 l 5
 176.189453125 476.959960938 l 5
124.047851562 207.680664062 m 1
 202.790039062 191.979492188 l 1
 235.078125 148.485351562 l 1
 220.349609375 74.3623046875 l 1
 173.89453125 46.5 l 1
 95.1513671875 62.203125 l 1
 62.86328125 105.6953125 l 1
 77.591796875 179.818359375 l 1
 124.047851562 207.680664062 l 1
EndSplineSet
Validated: 1
Colour: ffff00
EndChar

StartChar: ellipsis
Encoding: 8230 8230 142
Width: 672
Flags: HMW
HStem: 0 150<79 201 50 230 79 260 289 411 499 621>
LayerCount: 3
Back
SplineSet
201 0 m 1
 50 0 l 1
 79 150 l 1
 230 150 l 1
 201 0 l 1
411 0 m 1
 260 0 l 1
 289 150 l 1
 440 150 l 1
 411 0 l 1
621 0 m 1
 470 0 l 1
 499 150 l 1
 650 150 l 1
 621 0 l 1
EndSplineSet
Fore
SplineSet
535.18359375 155.619140625 m 5
 613.92578125 139.916992188 l 5
 646.213867188 96.4228515625 l 5
 631.486328125 22.30078125 l 5
 585.03125 -5.5625 l 5
 506.288085938 10.140625 l 5
 474 53.6337890625 l 5
 488.727539062 127.755859375 l 5
 535.18359375 155.619140625 l 5
325.1171875 155.619140625 m 1
 403.859375 139.916992188 l 1
 436.147460938 96.4228515625 l 1
 421.419921875 22.30078125 l 1
 374.96484375 -5.5625 l 1
 296.221679688 10.140625 l 1
 263.93359375 53.6337890625 l 1
 278.661132812 127.755859375 l 1
 325.1171875 155.619140625 l 1
114.6171875 155.619140625 m 1
 193.359375 139.916992188 l 1
 225.647460938 96.4228515625 l 1
 210.919921875 22.30078125 l 1
 164.46484375 -5.5625 l 1
 85.7216796875 10.140625 l 1
 53.43359375 53.6337890625 l 1
 68.1611328125 127.755859375 l 1
 114.6171875 155.619140625 l 1
EndSplineSet
Validated: 1
EndChar

StartChar: plus
Encoding: 43 43 143
Width: 596
Flags: HMW
HStem: 114 21G<252 387 252 252> 300 125<132 288 108 312 447 604 132 423> 590 20G<348 483 483 483>
LayerCount: 3
Back
SplineSet
423 300 m 1
 387 114 l 1
 252 114 l 1
 288 300 l 1
 108 300 l 1
 132 425 l 1
 312 425 l 1
 348 610 l 1
 483 610 l 1
 447 425 l 1
 628 425 l 1
 604 300 l 1
 423 300 l 1
EndSplineSet
Fore
SplineSet
423 300 m 1
 387 114 l 1
 257 139 l 5
 288 300 l 1
 108 300 l 1
 108 425 l 1
 312 425 l 1
 348 610 l 1
 478.25 584.75 l 1
 447 425 l 1
 604 425 l 1
 604 300 l 1
 423 300 l 1
EndSplineSet
Validated: 1
Colour: ffff00
EndChar

StartChar: equal
Encoding: 61 61 144
Width: 596
Flags: HMW
HStem: 185 135<132 561 105 588> 405 135<174 604 148 630>
LayerCount: 3
Back
SplineSet
561 185 m 1
 105 185 l 1
 132 320 l 1
 588 320 l 1
 561 185 l 1
604 405 m 1
 148 405 l 1
 174 540 l 1
 630 540 l 1
 604 405 l 1
EndSplineSet
Fore
SplineSet
588 185 m 1
 105 185 l 1
 104.75 320 l 1
 587.75 320 l 1
 588 185 l 1
631 405 m 1
 148 405 l 1
 146.75 540 l 1
 629.75 540 l 1
 631 405 l 1
EndSplineSet
Validated: 1
Colour: ffff00
EndChar

StartChar: quotedbl
Encoding: 34 34 145
Width: 459
Flags: HMW
HStem: 482 238<189.5 281.5 165.5 348.5 189.5 365.5 389.5 481.5>
LayerCount: 3
Back
SplineSet
281 482 m 1
 165 482 l 1
 189 720 l 1
 348 720 l 1
 281 482 l 1
481 482 m 1
 365 482 l 1
 389 720 l 1
 548 720 l 1
 481 482 l 1
EndSplineSet
Fore
SplineSet
384.708984375 678.122070312 m 1
 438.166015625 722.908203125 l 1
 502.623046875 722.908203125 l 1
 538.73828125 678.11328125 l 1
 517.75390625 569.939453125 l 1
 469.021484375 466.580078125 l 1
 398.233398438 417.758789062 l 1
 361.723632812 474.115234375 l 1
 412.28515625 507.10546875 l 1
 442.247070312 569.939453125 l 1
 408.560546875 569.939453125 l 1
 372.43359375 614.760742188 l 1
 384.708984375 678.122070312 l 1
180.454101562 678.122070312 m 1
 233.911132812 722.908203125 l 1
 298.3671875 722.908203125 l 1
 334.483398438 678.11328125 l 1
 313.499023438 569.939453125 l 1
 264.766601562 466.580078125 l 1
 193.977539062 417.758789062 l 1
 157.46875 474.115234375 l 1
 208.030273438 507.10546875 l 1
 237.9921875 569.939453125 l 1
 204.305664062 569.939453125 l 1
 168.177734375 614.760742188 l 1
 180.454101562 678.122070312 l 1
EndSplineSet
Validated: 1
Colour: ffff00
EndChar

StartChar: quotesingle
Encoding: 39 39 146
Width: 259
Flags: HMW
HStem: 482 238<189 281 165 348>
LayerCount: 3
Back
SplineSet
281 482 m 1
 165 482 l 1
 189 720 l 1
 348 720 l 1
 281 482 l 1
EndSplineSet
Fore
SplineSet
183.456054688 678.122070312 m 1
 236.9140625 722.908203125 l 1
 301.370117188 722.908203125 l 1
 337.485351562 678.11328125 l 1
 331.327148438 646.373046875 l 1
 316.501953125 569.939453125 l 1
 267.768554688 466.580078125 l 1
 196.98046875 417.758789062 l 1
 160.471679688 474.115234375 l 1
 211.032226562 507.10546875 l 1
 240.995117188 569.939453125 l 1
 207.307617188 569.939453125 l 1
 171.180664062 614.760742188 l 1
 183.456054688 678.122070312 l 1
EndSplineSet
Validated: 1
Colour: ffff00
EndChar

StartChar: bar
Encoding: 124 124 147
Width: 280
Flags: MW
HStem: -100 21G<120 280 120 120> 800 20G<120 280 280 280>
VStem: 120 160<-100 820>
LayerCount: 3
Back
SplineSet
280 -100 m 1
 120 -100 l 1
 120 820 l 1
 280 820 l 1
 280 -100 l 1
EndSplineSet
Fore
SplineSet
280 -100 m 1
 120 -100 l 1
 120 820 l 1
 280 820 l 1
 280 -100 l 1
EndSplineSet
Validated: 1
Colour: ffff00
EndChar

StartChar: brokenbar
Encoding: 166 166 148
Width: 280
Flags: MW
HStem: -100 21G<120 280 120 120> 800 20G<120 280 280 280>
VStem: 120 160<-100 325 410 820>
LayerCount: 3
Back
SplineSet
280 -100 m 1
 120 -100 l 1
 120 325 l 1
 280 325 l 1
 280 -100 l 1
120 410 m 1
 120 820 l 1
 280 820 l 1
 280 410 l 1
 120 410 l 1
EndSplineSet
Fore
SplineSet
280 -100 m 1
 120 -100 l 1
 120 325 l 1
 280 325 l 1
 280 -100 l 1
120 410 m 1
 120 820 l 1
 280 820 l 1
 280 410 l 1
 120 410 l 1
EndSplineSet
Validated: 1
Colour: ffff00
EndChar

StartChar: bracketleft
Encoding: 91 91 149
Width: 357
Flags: HMW
HStem: -140 135<214 309> 685 135<348 470 348 348>
LayerCount: 3
Back
SplineSet
309 -140 m 1
 32 -140 l 1
 219 820 l 1
 496 820 l 1
 470 685 l 1
 348 685 l 1
 214 -5 l 1
 336 -5 l 1
 309 -140 l 1
EndSplineSet
Fore
SplineSet
309 -140 m 1
 32 -140 l 1
 219 820 l 1
 469 820 l 1
 470 685 l 1
 348 685 l 1
 214 -5 l 1
 309 -5 l 1
 309 -140 l 1
EndSplineSet
Validated: 1
Colour: ffff00
EndChar

StartChar: bracketright
Encoding: 93 93 150
Width: 357
Flags: HMW
HStem: -140 135<19 141 19 269 -7 141> 685 135<179 275 153 456>
LayerCount: 3
Back
SplineSet
269 -140 m 1
 -7 -140 l 1
 19 -5 l 1
 141 -5 l 1
 275 685 l 1
 153 685 l 1
 179 820 l 1
 456 820 l 1
 269 -140 l 1
EndSplineSet
Fore
SplineSet
269 -140 m 1
 -7 -140 l 1
 -7 -5 l 1
 141 -5 l 1
 275 685 l 1
 153 685 l 1
 153 820 l 5
 456 820 l 1
 269 -140 l 1
EndSplineSet
Validated: 1
Colour: ffff00
EndChar

StartChar: slash
Encoding: 47 47 151
Width: 401
Flags: HMW
HStem: -100 21G<-19 134 -19 -19> 800 20G<405 560 560 560>
LayerCount: 3
Back
SplineSet
134 -100 m 1
 -19 -100 l 1
 405 820 l 1
 560 820 l 1
 134 -100 l 1
EndSplineSet
Fore
SplineSet
134 -100 m 1
 8.25 -41.25 l 1
 405 820 l 1
 532.75 761 l 5
 134 -100 l 1
EndSplineSet
Validated: 1
Colour: ffff00
EndChar

StartChar: backslash
Encoding: 92 92 152
Width: 401
Flags: HMW
HStem: -100 21G<227 381 227 227> 800 20G<159 314 314 314>
VStem: 193 154
LayerCount: 3
Back
SplineSet
381 -100 m 1
 227 -100 l 1
 159 820 l 1
 314 820 l 1
 381 -100 l 1
EndSplineSet
Fore
SplineSet
380.25 -89.5 m 1
 227 -100 l 1
 160 808.5 l 1
 314 820 l 1
 380.25 -89.5 l 1
EndSplineSet
Validated: 1
Colour: ffff00
EndChar

StartChar: semicolon
Encoding: 59 59 153
Width: 251
Flags: HMW
HStem: -157 21G<73 73> 0 150<79 127 50 230 201 201> 322 150<141 263 112 292>
LayerCount: 3
Back
SplineSet
263 322 m 1
 112 322 l 1
 141 472 l 1
 292 472 l 1
 263 322 l 1
127 0 m 1
 50 0 l 1
 79 150 l 1
 230 150 l 1
 201 0 l 2
 184 -85 133 -133 73 -157 c 1
 48 -94 l 1
 86 -79 116 -54 127 0 c 1
EndSplineSet
Fore
SplineSet
176.189453125 476.959960938 m 1
 254.931640625 461.2578125 l 1
 287.219726562 417.764648438 l 1
 272.491210938 343.641601562 l 1
 226.036132812 315.779296875 l 1
 147.29296875 331.482421875 l 1
 115.004882812 374.974609375 l 1
 129.733398438 449.09765625 l 1
 176.189453125 476.959960938 l 1
69.2060546875 108.122070312 m 1
 122.6640625 152.908203125 l 1
 187.120117188 152.908203125 l 1
 223.235351562 108.11328125 l 1
 202.251953125 -0.060546875 l 1
 153.518554688 -103.419921875 l 1
 82.73046875 -152.241210938 l 1
 46.2216796875 -95.884765625 l 1
 96.7822265625 -62.89453125 l 1
 126.745117188 -0.060546875 l 1
 93.0576171875 -0.060546875 l 1
 56.9306640625 44.7607421875 l 1
 69.2060546875 108.122070312 l 1
EndSplineSet
Validated: 1
Colour: ffff00
EndChar

StartChar: quotesinglbase
Encoding: 8218 8218 154
Width: 251
Flags: HMW
HStem: -157 21G<73 73> 0 150<79 127 50 230 201 201>
LayerCount: 3
Back
SplineSet
127 0 m 1
 50 0 l 1
 79 150 l 1
 230 150 l 1
 201 0 l 2
 184 -85 133 -133 73 -157 c 1
 48 -94 l 1
 86 -79 116 -54 127 0 c 1
EndSplineSet
Fore
SplineSet
69.2490234375 108.120117188 m 5
 122.70703125 152.90625 l 5
 187.163085938 152.90625 l 5
 223.278320312 108.111328125 l 5
 216.282226562 72.0546875 209.2890625 35.99609375 202.294921875 -0.0625 c 5
 153.561523438 -103.421875 l 5
 82.7734375 -152.243164062 l 5
 46.2646484375 -95.88671875 l 5
 96.8251953125 -62.896484375 l 5
 126.788085938 -0.0625 l 5
 93.1005859375 -0.0625 l 5
 56.9736328125 44.7587890625 l 5
 69.2490234375 108.120117188 l 5
EndSplineSet
Validated: 1
EndChar

StartChar: quotedblbase
Encoding: 8222 8222 155
Width: 451
Flags: HMW
HStem: -157 21G<73 73 273 273> 0 150<79 127 50 230 201 201 79 250 279 327 401 401>
LayerCount: 3
Back
SplineSet
127 0 m 1
 50 0 l 1
 79 150 l 1
 230 150 l 1
 201 0 l 2
 184 -85 133 -133 73 -157 c 1
 48 -94 l 1
 86 -79 116 -54 127 0 c 1
327 0 m 1
 250 0 l 1
 279 150 l 1
 430 150 l 1
 401 0 l 2
 384 -85 333 -133 273 -157 c 1
 248 -94 l 1
 286 -79 316 -54 327 0 c 1
EndSplineSet
Fore
SplineSet
69.2060546875 108.122070312 m 1
 122.6640625 152.908203125 l 1
 187.120117188 152.908203125 l 1
 223.235351562 108.11328125 l 1
 217.077148438 76.373046875 l 1
 202.251953125 -0.060546875 l 1
 153.518554688 -103.419921875 l 1
 82.73046875 -152.241210938 l 1
 46.2216796875 -95.884765625 l 1
 96.7822265625 -62.89453125 l 1
 126.745117188 -0.060546875 l 1
 93.0576171875 -0.060546875 l 1
 56.9306640625 44.7607421875 l 1
 69.2060546875 108.122070312 l 1
269.240234375 108.122070312 m 1
 322.698242188 152.908203125 l 1
 387.154296875 152.908203125 l 1
 423.26953125 108.11328125 l 1
 417.111328125 76.373046875 l 1
 402.286132812 -0.060546875 l 1
 353.552734375 -103.419921875 l 1
 282.764648438 -152.241210938 l 1
 246.255859375 -95.884765625 l 1
 296.81640625 -62.89453125 l 1
 326.779296875 -0.060546875 l 1
 293.091796875 -0.060546875 l 1
 256.96484375 44.7607421875 l 1
 269.240234375 108.122070312 l 1
EndSplineSet
Validated: 1
EndChar

StartChar: quotedblright
Encoding: 8221 8221 156
Width: 451
Flags: HMW
HStem: 413 21G<201.966 201.966 401.966 401.966> 570 150<206.966 254.966 177.966 357.966 328.966 328.966 206.966 377.966 406.966 454.966 528.966 528.966>
LayerCount: 3
Back
SplineSet
237 570 m 1
 160 570 l 1
 189 720 l 1
 340 720 l 1
 311 570 l 2
 295 485 243 437 184 413 c 1
 159 476 l 1
 197 491 227 516 237 570 c 1
437 570 m 1
 360 570 l 1
 389 720 l 1
 540 720 l 1
 511 570 l 2
 495 485 443 437 384 413 c 1
 359 476 l 1
 397 491 427 516 437 570 c 1
EndSplineSet
Fore
SplineSet
180.671875 676.622070312 m 1
 234.129882812 721.408203125 l 1
 298.5859375 721.408203125 l 1
 334.701171875 676.61328125 l 1
 328.54296875 644.873046875 l 1
 313.717773438 568.439453125 l 1
 264.984375 465.080078125 l 1
 194.196289062 416.258789062 l 1
 157.6875 472.615234375 l 1
 208.248046875 505.60546875 l 1
 238.2109375 568.439453125 l 1
 204.5234375 568.439453125 l 1
 168.396484375 613.260742188 l 1
 180.671875 676.622070312 l 1
380.706054688 676.622070312 m 1
 434.1640625 721.408203125 l 1
 498.620117188 721.408203125 l 1
 534.735351562 676.61328125 l 1
 528.577148438 644.873046875 l 1
 513.751953125 568.439453125 l 1
 465.018554688 465.080078125 l 1
 394.23046875 416.258789062 l 1
 357.721679688 472.615234375 l 1
 408.282226562 505.60546875 l 1
 438.245117188 568.439453125 l 1
 404.557617188 568.439453125 l 1
 368.430664062 613.260742188 l 1
 380.706054688 676.622070312 l 1
EndSplineSet
Validated: 1
EndChar

StartChar: quotedblleft
Encoding: 8220 8220 157
Width: 451
Flags: HMW
HStem: 428 150<162 162 236 284 133 162 436 484> 715 20G<289 289 489 489>
LayerCount: 3
Back
SplineSet
436 578 m 1
 513 578 l 1
 484 428 l 1
 333 428 l 1
 362 578 l 2
 378 663 430 711 489 735 c 1
 514 672 l 1
 476 657 446 632 436 578 c 1
236 578 m 1
 313 578 l 1
 284 428 l 1
 133 428 l 1
 162 578 l 2
 178 663 230 711 289 735 c 1
 314 672 l 1
 276 657 246 632 236 578 c 1
EndSplineSet
Fore
SplineSet
494.032226562 469.794921875 m 1
 440.575195312 425.008789062 l 1
 376.119140625 425.008789062 l 1
 340.002929688 469.803710938 l 1
 360.987304688 577.977539062 l 1
 409.719726562 681.336914062 l 1
 480.508789062 730.158203125 l 1
 517.017578125 673.801757812 l 1
 466.456054688 640.811523438 l 1
 436.494140625 577.977539062 l 1
 470.180664062 577.977539062 l 1
 506.30859375 533.15625 l 1
 494.032226562 469.794921875 l 1
293.750976562 469.794921875 m 1
 240.29296875 425.008789062 l 1
 175.836914062 425.008789062 l 1
 139.721679688 469.803710938 l 5
 160.705078125 577.977539062 l 5
 209.438476562 681.336914062 l 1
 280.2265625 730.158203125 l 1
 314.751953125 675.7265625 l 1
 266.174804688 640.811523438 l 1
 236.211914062 577.977539062 l 1
 269.899414062 577.977539062 l 1
 306.026367188 533.15625 l 1
 293.750976562 469.794921875 l 1
EndSplineSet
Validated: 1
EndChar

StartChar: quoteleft
Encoding: 8216 8216 158
Width: 251
Flags: HMW
HStem: 428 150<235.457 235.457 309.457 357.457 206.457 235.457> 715 20G<362.457 362.457>
LayerCount: 3
Back
SplineSet
236 578 m 1
 313 578 l 1
 284 428 l 1
 133 428 l 1
 162 578 l 2
 178 663 230 711 289 735 c 1
 314 672 l 1
 276 657 246 632 236 578 c 1
EndSplineSet
Fore
SplineSet
293.750976562 469.794921875 m 1
 240.29296875 425.008789062 l 1
 175.836914062 425.008789062 l 1
 139.721679688 469.803710938 l 1
 160.705078125 577.977539062 l 1
 209.438476562 681.336914062 l 1
 280.2265625 730.158203125 l 1
 316.735351562 673.801757812 l 1
 266.174804688 640.811523438 l 1
 236.211914062 577.977539062 l 1
 269.899414062 577.977539062 l 1
 306.026367188 533.15625 l 1
 293.750976562 469.794921875 l 1
EndSplineSet
Validated: 1
EndChar

StartChar: quoteright
Encoding: 8217 8217 159
Width: 251
Flags: HMW
HStem: 413 21G<8.79297 8.79297> 570 150<-45.207 31.793 -45.207 105.793 -45.207 105.793>
VStem: -45.207 151<570 720 527.5 720> 31.793 74<543 570>
LayerCount: 3
Back
SplineSet
127 570 m 1xd0
 50 570 l 1
 50 720 l 1
 201 720 l 1
 201 570 l 2
 201 485 159 437 104 413 c 1
 67 476 l 1
 102 491 127 516 127 570 c 1xd0
EndSplineSet
Fore
SplineSet
88.2490234375 678.122070312 m 1
 141.70703125 722.908203125 l 1
 206.163085938 722.908203125 l 1
 242.278320312 678.11328125 l 1
 221.294921875 569.939453125 l 1
 172.561523438 466.580078125 l 1
 101.7734375 417.758789062 l 1
 65.2646484375 474.115234375 l 1
 115.825195312 507.10546875 l 1
 145.788085938 569.939453125 l 1
 112.100585938 569.939453125 l 1
 75.9736328125 614.760742188 l 1
 88.2490234375 678.122070312 l 1
EndSplineSet
Validated: 1
EndChar

StartChar: numbersign
Encoding: 35 35 160
Width: 698
Flags: HMW
HStem: 0 21G<52 201 52 52 292 441 292 292> 175 125<100 136 36 196 345 376 100 285 585 628> 425 125<212 256 148 315 465 496 212 405 705 740> 700 20G<397 547 547 547 637 787 787 787>
LayerCount: 3
Back
SplineSet
441 0 m 1
 292 0 l 1
 376 175 l 1
 285 175 l 1
 201 0 l 1
 52 0 l 1
 136 175 l 1
 36 175 l 1
 100 300 l 1
 196 300 l 1
 256 425 l 1
 148 425 l 1
 212 550 l 1
 315 550 l 1
 397 720 l 1
 547 720 l 1
 465 550 l 1
 555 550 l 1
 637 720 l 1
 787 720 l 1
 705 550 l 1
 804 550 l 1
 740 425 l 1
 645 425 l 1
 585 300 l 1
 692 300 l 1
 628 175 l 1
 525 175 l 1
 441 0 l 1
405 425 m 1
 345 300 l 1
 436 300 l 1
 496 425 l 1
 405 425 l 1
EndSplineSet
Fore
SplineSet
434 -14.75 m 1
 313 44 l 1
 376 175 l 1
 285 175 l 1
 194 -14.75 l 1
 73 44 l 1
 136 175 l 1
 36 175 l 1
 36 300 l 1
 196 300 l 1
 256 425 l 1
 148 425 l 1
 148 550 l 1
 315 550 l 1
 404.25 735 l 1
 525.75 676 l 1
 465 550 l 1
 555 550 l 1
 644.25 735 l 1
 765.75 676 l 1
 705 550 l 1
 804 550 l 5
 804 425 l 5
 645 425 l 1
 585 300 l 1
 692 300 l 5
 692 175 l 5
 525 175 l 1
 434 -14.75 l 1
405 425 m 1
 345 300 l 1
 436 300 l 1
 496 425 l 1
 405 425 l 1
EndSplineSet
Validated: 1
Colour: ffff00
EndChar

StartChar: guillemotright
Encoding: 187 187 161
Width: 471
Flags: HMW
HStem: 94 21G<38 164 38 38 228 228 228 354> 412 20G<103 229 229 229 293 419 419 419>
LayerCount: 3
Back
SplineSet
229 432 m 1
 312 263 l 1
 164 94 l 1
 38 94 l 1
 165 263 l 1
 103 432 l 1
 229 432 l 1
419 432 m 1
 502 263 l 1
 354 94 l 1
 228 94 l 1
 355 263 l 1
 293 432 l 1
 419 432 l 1
EndSplineSet
Fore
SplineSet
311 263 m 1
 113.75 36 l 1
 38 94 l 1
 164 263 l 1
 103 432 l 1
 210 471 l 1
 311 263 l 1
501 263 m 1
 303.75 36 l 1
 228 94 l 1
 354 263 l 1
 293 432 l 1
 400 471 l 1
 501 263 l 1
EndSplineSet
Validated: 1
Colour: ffff00
EndChar

StartChar: guillemotleft
Encoding: 171 171 162
Width: 471
Flags: HMW
HStem: 94 21G<153 279 153 153 343 469 343 343> 412 20G<218 344 344 344 408 534 534 534>
LayerCount: 3
Back
SplineSet
261 263 m 1
 408 432 l 1
 534 432 l 1
 408 263 l 1
 469 94 l 1
 343 94 l 1
 261 263 l 1
71 263 m 1
 218 432 l 1
 344 432 l 1
 218 263 l 1
 279 94 l 1
 153 94 l 1
 71 263 l 1
EndSplineSet
Fore
SplineSet
261 263 m 5
 458.25 490 l 5
 534 432 l 5
 408 263 l 5
 469 94 l 5
 362 55 l 5
 261 263 l 5
71 263 m 5
 268.25 490 l 5
 344 432 l 5
 218 263 l 5
 279 94 l 5
 172 55 l 5
 71 263 l 5
EndSplineSet
Validated: 1
Colour: ffff00
EndChar

StartChar: guilsinglleft
Encoding: 8249 8249 163
Width: 341
Flags: HMW
HStem: 94 21G<173 339 173 173> 412 20G<238 404 404 404>
LayerCount: 3
Back
SplineSet
71 263 m 1
 238 432 l 1
 404 432 l 1
 238 263 l 1
 339 94 l 1
 173 94 l 1
 71 263 l 1
EndSplineSet
Fore
SplineSet
71 263 m 5
 319 514 l 5
 404 432 l 5
 238 263 l 5
 339 94 l 5
 216.5 22 l 5
 71 263 l 5
EndSplineSet
Validated: 1
EndChar

StartChar: guilsinglright
Encoding: 8250 8250 164
Width: 341
Flags: HMW
HStem: 94 21G<38 204 38 38> 412 20G<103 269 269 269>
LayerCount: 3
Back
SplineSet
269 432 m 1
 372 263 l 1
 204 94 l 1
 38 94 l 1
 205 263 l 1
 103 432 l 1
 269 432 l 1
EndSplineSet
Fore
SplineSet
372 263 m 1
 124 12 l 1
 39 94 l 1
 205 263 l 1
 104 432 l 1
 226.5 504 l 1
 372 263 l 1
EndSplineSet
Validated: 1
EndChar

StartChar: less
Encoding: 60 60 165
Width: 596
Flags: HMW
HStem: 52 21G<503 503> 627 20G<618 618>
LayerCount: 3
Back
SplineSet
167 281 m 1
 194 418 l 1
 618 647 l 1
 587 487 l 1
 310 350 l 1
 534 211 l 1
 503 52 l 1
 167 281 l 1
EndSplineSet
Fore
SplineSet
167 281 m 5
 194 418 l 5
 618 647 l 5
 679.75 533 l 5
 310 350 l 5
 534 211 l 5
 456.25 83.75 l 5
 167 281 l 5
EndSplineSet
Validated: 1
Colour: ffff00
EndChar

StartChar: greater
Encoding: 62 62 166
Width: 596
Flags: HMW
HStem: 52 21G<123 123> 627 20G<238 238>
LayerCount: 3
Back
SplineSet
574 418 m 1
 547 281 l 1
 123 52 l 1
 154 211 l 1
 432 350 l 1
 207 487 l 1
 238 647 l 1
 574 418 l 1
EndSplineSet
Fore
SplineSet
574 417 m 1
 547 280 l 1
 123 51 l 1
 61.25 165 l 1
 431 348 l 1
 207 487 l 1
 284.75 614.25 l 1
 574 417 l 1
EndSplineSet
Validated: 1
Colour: ffff00
EndChar

StartChar: dollar
Encoding: 36 36 167
Width: 596
Flags: HMW
HStem: -109.186 21.42G<236.645 313.145 236.645 236.645> 808.814 20.4G<419.225 495.725 495.725 495.725>
LayerCount: 3
Back
SplineSet
401 734 m 1
 418 820 l 1
 493 820 l 1
 476 732 l 1
 603 719 661 648 644 514 c 1
 592 512 539 509 487 507 c 1
 487 545 479 575 448 588 c 1
 420 445 l 1
 548 420 637 353 609 209 c 0
 582 68 451 -4 331 -14 c 1
 314 -100 l 1
 239 -100 l 1
 256 -13 l 1
 110 2 54 91 71 230 c 1
 123 233 175 235 227 238 c 1
 220 172 240 140 284 129 c 1
 318 307 l 1
 143 333 131 437 147 516 c 0
 174 654 288 724 401 734 c 1
444 204 m 0
 450 235 442 260 415 278 c 0
 408 283 399 287 390 291 c 1
 358 127 l 1
 400 135 435 158 444 204 c 0
304 530 m 0
 297 496 307 477 348 459 c 1
 374 592 l 1
 335 584 309 560 304 530 c 0
EndSplineSet
Fore
SplineSet
422.259765625 841.837890625 m 1
 494.719726562 827.684570312 l 1
 477.470703125 739.208007812 l 1
 619.009765625 674.315429688 l 1
 646.174804688 535.19921875 l 1
 489.615234375 509.8828125 l 1
 481.493164062 560.665039062 l 1
 448.900390625 592.447265625 l 1
 420.330078125 446.622070312 l 1
 577.174804688 371.711914062 l 1
 614.012695312 205.986328125 l 1
 507.790039062 42.1474609375 l 1
 329.772460938 -21.5537109375 l 1
 309.622070312 -123.248046875 l 1
 237.233398438 -109.22265625 l 1
 254.495117188 -20.533203125 l 1
 97.3798828125 56.052734375 l 1
 67.3251953125 216.194335938 l 1
 224.405273438 235.57421875 l 1
 233.970703125 158.876953125 l 1
 283.065429688 124.270507812 l 1
 317.7578125 305.807617188 l 1
 157.008789062 392.192382812 l 1
 142.860351562 519.067382812 l 1
 239.465820312 679.103515625 l 1
 402.448242188 741.249023438 l 1
 422.259765625 841.837890625 l 1
348.28515625 460.90234375 m 1
 374.814453125 596.615234375 l 1
 325.590820312 573.303710938 l 1
 302.888671875 533.34765625 l 1
 307.030273438 490.975585938 l 1
 348.28515625 460.90234375 l 1
416.149414062 276.21875 m 1
 389.889648438 289.40234375 l 1
 357.153320312 122.14453125 l 1
 414.469726562 146.833984375 l 1
 445.654296875 200.54296875 l 1
 443.5625 243.44140625 l 1
 416.149414062 276.21875 l 1
EndSplineSet
Validated: 1
Colour: ffff00
EndChar

StartChar: Euro
Encoding: 8364 8364 168
Width: 596
Flags: HMW
HStem: -22.5024 140.76<332.835 385.875 332.835 404.745> 252.898 76.5<68.1451 134.445 52.8451 144.645 303.765 415.965> 395.698 76.5<95.6851 156.885 80.3851 177.285 335.385 443.505> 601.738 140.76<428.205 480.735>
LayerCount: 3
Back
SplineSet
442 395 m 1
 317 395 l 1
 310 360 l 1
 305 330 l 1
 430 330 l 1
 415 255 l 1
 293 255 l 1
 284 161 306 123 361 123 c 0
 410 123 443 156 471 231 c 1
 620 213 l 1
 575 65 473 -15 335 -15 c 0
 184 -15 124 94 139 255 c 1
 59 255 l 1
 74 330 l 1
 149 330 l 1
 154 360 l 1
 161 395 l 1
 86 395 l 1
 101 470 l 1
 181 470 l 1
 230 628 331 735 480 735 c 0
 618 735 691 654 677 505 c 1
 521 486 l 1
 522 563 503 597 454 597 c 0
 400 597 360 550 336 470 c 1
 457 470 l 1
 442 395 l 1
EndSplineSet
Fore
SplineSet
316.004882812 394.947265625 m 1
 303.760742188 329.9609375 l 1
 415.920898438 329.9609375 l 1
 415.83203125 255.354492188 l 1
 291.346679688 255.354492188 l 1
 301.614257812 149.76171875 l 1
 360.731445312 118.420898438 l 1
 424.759765625 144.8125 l 1
 472.716796875 228.534179688 l 1
 592.424804688 160.078125 l 1
 514.93359375 37.4130859375 l 1
 334.032226562 -22.2236328125 l 1
 170.625 53.869140625 l 1
 134.125976562 255.354492188 l 1
 52.58203125 255.354492188 l 1
 52.5869140625 329.9609375 l 1
 144.329101562 329.9609375 l 1
 156.573242188 394.947265625 l 1
 80.130859375 394.947265625 l 1
 80.2216796875 470.063476562 l 1
 177.150390625 470.063476562 l 1
 291.37890625 667.717773438 l 1
 482.069335938 742.458984375 l 1
 640.619140625 682.099609375 l 1
 680.91015625 516.3125 l 1
 523.903320312 488.46875 l 1
 508.779296875 574.411132812 l 1
 455.454101562 601.55859375 l 1
 383.806640625 567.454101562 l 1
 335.051757812 470.063476562 l 1
 443.215820312 470.063476562 l 1
 443.125976562 394.947265625 l 1
 316.004882812 394.947265625 l 1
EndSplineSet
Validated: 1
EndChar

StartChar: asciicircum
Encoding: 94 94 169
Width: 596
Flags: HMW
HStem: 470 250<171 505 171 505 465 465>
LayerCount: 3
Back
SplineSet
368 720 m 1
 505 720 l 1
 606 471 l 1
 465 470 l 1
 415 611 l 1
 309 470 l 1
 171 470 l 1
 368 720 l 1
EndSplineSet
Fore
SplineSet
368 720 m 5
 505 720 l 5
 606 471 l 5
 491.25 423.75 l 5
 418.75 629.75 l 5
 251.75 406.5 l 5
 171 470 l 5
 368 720 l 5
EndSplineSet
Validated: 1
Colour: ffff00
EndChar

StartChar: braceright
Encoding: 125 125 170
Width: 349
Flags: HMW
HStem: -110 129<73 93 33 141> 695 129<165 323 165 323>
LayerCount: 3
Back
SplineSet
165 695 m 1
 188 814 l 1
 200 819 243 824 267 824 c 0
 379 824 404 748 383 642 c 2
 357 507 l 2
 344 440 375 417 410 417 c 1
 386 297 l 1
 351 297 312 274 299 207 c 2
 272 72 l 2
 252 -34 197 -110 85 -110 c 0
 61 -110 20 -105 10 -100 c 1
 33 19 l 1
 69 19 l 2
 117 19 122 71 133 124 c 2
 158 257 l 2
 171 320 215 344 248 357 c 1
 220 370 185 394 197 457 c 2
 223 590 l 2
 233 643 249 695 201 695 c 2
 165 695 l 1
EndSplineSet
Fore
SplineSet
29.5830078125 12.3271484375 m 5
 66.4013671875 12.3271484375 l 5
 113.529296875 45.564453125 l 5
 131.704101562 119.301757812 l 5
 158.234375 255.005859375 l 5
 195.998046875 325.120117188 l 5
 248.876953125 356.961914062 l 5
 208.0625 388.8046875 l 5
 197.858398438 458.91015625 l 5
 223.3671875 594.614257812 l 5
 234.71875 668.436523438 l 5
 200.918945312 701.758789062 l 5
 164.100585938 701.758789062 l 5
 187.569335938 823.182617188 l 5
 223.239257812 830.157226562 l 5
 268.09375 833.303710938 l 5
 378.197265625 781.076171875 l 5
 387.220703125 647.599609375 l 5
 359.840820312 509.940429688 l 5
 368.545898438 438.4140625 l 5
 413.919921875 418.104492188 l 5
 389.430664062 295.829101562 l 5
 336.627929688 275.586914062 l 5
 300.659179688 204.001953125 l 5
 274.129882812 66.333984375 l 5
 213.067382812 -66.9638671875 l 5
 82.3017578125 -119.200195312 l 5
 38.80859375 -115.967773438 l 5
 6.029296875 -109.079101562 l 5
 29.5830078125 12.3271484375 l 5
EndSplineSet
Validated: 1
Colour: ffff00
EndChar

StartChar: braceleft
Encoding: 123 123 171
Width: 349
Flags: HMW
HStem: -110 129<164 322> 695 129<394 414 346 418 346 454>
LayerCount: 3
Back
SplineSet
477 814 m 1
 454 695 l 1
 418 695 l 2
 370 695 364 643 354 590 c 2
 328 457 l 2
 316 394 271 370 239 357 c 1
 266 344 302 320 289 257 c 2
 264 124 l 2
 253 71 238 19 286 19 c 2
 322 19 l 1
 299 -100 l 1
 287 -105 244 -110 220 -110 c 0
 108 -110 83 -34 103 72 c 2
 130 207 l 2
 143 274 112 297 77 297 c 1
 101 417 l 1
 136 417 175 440 188 507 c 2
 214 642 l 2
 235 748 290 824 402 824 c 0
 426 824 467 819 477 814 c 1
EndSplineSet
Fore
SplineSet
457.416992188 701.672851562 m 5
 420.598632812 701.672851562 l 5
 373.470703125 668.435546875 l 5
 355.295898438 594.698242188 l 5
 328.765625 458.994140625 l 5
 291.001953125 388.879882812 l 5
 238.123046875 357.038085938 l 5
 278.9375 325.1953125 l 5
 289.141601562 255.08984375 l 5
 263.6328125 119.385742188 l 5
 252.28125 45.5634765625 l 5
 286.081054688 12.2412109375 l 5
 322.899414062 12.2412109375 l 5
 299.430664062 -109.182617188 l 5
 263.760742188 -116.157226562 l 5
 218.90625 -119.303710938 l 5
 108.802734375 -67.076171875 l 5
 99.779296875 66.400390625 l 5
 127.159179688 204.059570312 l 5
 118.454101562 275.5859375 l 5
 73.080078125 295.895507812 l 5
 97.5693359375 418.170898438 l 5
 150.372070312 438.413085938 l 5
 186.340820312 509.998046875 l 5
 212.870117188 647.666015625 l 5
 273.932617188 780.963867188 l 5
 404.698242188 833.200195312 l 5
 448.19140625 829.967773438 l 5
 480.970703125 823.079101562 l 5
 457.416992188 701.672851562 l 5
EndSplineSet
Colour: ffff00
EndChar

StartChar: ampersand
Encoding: 38 38 172
Width: 638
Flags: HMW
HStem: -15 120<264.5 294> 0 21G<460 618 460 460> 615 120<376 415.5>
LayerCount: 3
Back
SplineSet
618 0 m 1xa0
 460 0 l 1
 452 12 443 25 436 37 c 1
 386 5 328 -15 260 -15 c 0
 111 -15 53 71 75 184 c 0
 94 280 155 337 223 381 c 1
 202 411 171 466 187 550 c 0
 210 665 308 735 423 735 c 0
 568 735 592 637 577 560 c 0
 565 494 528 444 456 396 c 0
 439 384 419 372 396 360 c 1x60
 419 323 441 286 464 249 c 1
 476 280 483 313 487 347 c 1
 616 347 l 1
 604 272 578 197 535 135 c 1
 562 90 590 45 618 0 c 1xa0
332 466 m 2
 340 451 l 1
 422 502 439 522 446 560 c 0
 452 591 434 615 397 615 c 0
 355 615 325 582 318 550 c 0
 311 514 319 490 332 466 c 2
213 194 m 0
 202 135 243 105 286 105 c 0x60
 321 105 352 115 378 132 c 1
 345 185 312 238 279 291 c 1xa0
 246 265 221 235 213 194 c 0
EndSplineSet
Fore
SplineSet
473.208984375 -20.9140625 m 1
 439.288085938 32.09765625 l 1
 355.197265625 -8.1591796875 l 1
 258.708984375 -22.37109375 l 1
 98.990234375 35.87109375 l 1
 69.9423828125 180.588867188 l 1
 126.678710938 300.899414062 l 1
 220.78515625 381.346679688 l 1
 188.293945312 446.962890625 l 1
 184.049804688 553.70703125 l 1
 269.143554688 692.022460938 l 1
 424.770507812 742.387695312 l 1
 564.357421875 682.573242188 l 1
 581.8203125 563.828125 l 1
 543.026367188 473.34375 l 1
 458.44140625 396.571289062 l 1
 396.720703125 359.087890625 l 1
 465.934570312 245.828125 l 1
 481.293945312 295.541015625 l 1
 489.903320312 346.740234375 l 1
 617.619140625 325.831054688 l 1
 591.950195312 233.583007812 l 1
 538.045898438 129.512695312 l 1
 587.034179688 49.4306640625 l 1
 473.208984375 -20.955078125 l 1
 473.208984375 -20.9140625 l 1
285.068359375 100.07421875 m 1
 335.44921875 107.302734375 l 1
 379.94140625 128.86328125 l 1
 278.92578125 290.931640625 l 1
 234.688476562 245.950195312 l 1
 210.583007812 190.872070312 l 1
 227.194335938 122.892578125 l 1
 285.068359375 100.07421875 l 1
422.786132812 513.504882812 m 1
 448.157226562 564.16796875 l 1
 439.579101562 604.056640625 l 1
 398.158203125 620.284179688 l 1
 344.504882812 599.37890625 l 1
 317.634765625 554.047851562 l 1
 317.125 506.564453125 l 1
 340.052734375 453.02734375 l 1
 422.786132812 513.504882812 l 1
EndSplineSet
Validated: 1
Colour: ffff00
EndChar

StartChar: parenleft
Encoding: 40 40 173
Width: 351
Flags: HMW
HStem: -100 21G<208 331 208 208> 800 20G<387 510 510 510>
LayerCount: 3
Back
SplineSet
119 360 m 0
 152 529 250 706 387 820 c 1
 510 820 l 1
 377 680 310 541 274 360 c 0
 239 179 252 40 331 -100 c 1
 208 -100 l 1
 115 14 87 191 119 360 c 0
EndSplineSet
Fore
SplineSet
388.786132812 829.1953125 m 5
 467.474609375 763.919921875 l 5
 356.8671875 610.194335938 l 5
 273.654296875 359.828125 l 5
 259.08203125 109.622070312 l 5
 315.749023438 -61.76953125 l 5
 206.225585938 -109.200195312 l 5
 113.075195312 104.297851562 l 5
 115.583984375 359.828125 l 5
 212.327148438 615.645507812 l 5
 388.786132812 829.1953125 l 5
EndSplineSet
Validated: 1
Colour: ffff00
EndChar

StartChar: parenright
Encoding: 41 41 174
Width: 351
Flags: HMW
HStem: -100 21G<-19 103 -19 -19> 800 20G<159 282 282 282>
LayerCount: 3
Back
SplineSet
370 360 m 0
 338 191 240 14 103 -100 c 1
 -19 -100 l 1
 113 40 180 179 215 360 c 0
 251 541 238 680 159 820 c 1
 282 820 l 1
 375 706 403 529 370 360 c 0
EndSplineSet
Fore
SplineSet
101.068359375 -109.200195312 m 5
 22.3798828125 -43.9248046875 l 5
 132.987304688 109.80078125 l 5
 216.200195312 360.166992188 l 5
 230.772460938 610.373046875 l 5
 174.10546875 781.764648438 l 5
 283.62890625 829.1953125 l 5
 376.779296875 615.697265625 l 5
 374.270507812 360.166992188 l 5
 277.52734375 104.349609375 l 5
 101.068359375 -109.200195312 l 5
EndSplineSet
Validated: 1
Colour: ffff00
EndChar

StartChar: degree
Encoding: 176 176 175
Width: 366
Flags: HMW
HStem: 449 93<279.5 306.5 279.5 332.5> 640 95<279.5 306.5>
VStem: 150 93<578 605 578 631> 341 95<578 605>
LayerCount: 3
Back
SplineSet
150 592 m 0
 150 670 215 735 293 735 c 0
 372 735 436 670 436 592 c 0
 436 513 372 449 293 449 c 0
 215 449 150 513 150 592 c 0
243 592 m 0
 243 564 266 542 293 542 c 0
 320 542 341 564 341 592 c 0
 341 618 320 640 293 640 c 0
 266 640 243 618 243 592 c 0
EndSplineSet
Fore
SplineSet
292.948242188 738.077148438 m 5
 396.1328125 695.0078125 l 5
 438.860351562 592.251953125 l 5
 396.1328125 489.0625 l 5
 292.948242188 446.256835938 l 5
 190.157226562 489.0625 l 5
 147.12109375 592.251953125 l 5
 190.189453125 695.0078125 l 5
 292.948242188 738.077148438 l 5
292.948242188 541.32421875 m 5
 327.767578125 556.18359375 l 5
 341.92578125 592.336914062 l 5
 327.767578125 626.782226562 l 5
 292.948242188 641.31640625 l 5
 257.096679688 626.782226562 l 5
 241.844726562 592.336914062 l 5
 257.12890625 556.114257812 l 5
 292.948242188 541.32421875 l 5
EndSplineSet
Validated: 1
Colour: ffff00
EndChar

StartChar: copyright
Encoding: 169 169 176
Width: 590
Flags: HMW
HStem: -15 94<298.5 403.5 298.5 427> 126 80<338 361 338 381> 312 82<338 361> 441 94<298.5 403.5>
VStem: 91 98<210 309.5 210 341> 234 75<244 275 244 295.5> 513 98<210 309.5>
LayerCount: 3
Back
SplineSet
85 260 m 0
 85 422 193 535 345 535 c 0
 497 535 605 422 605 260 c 0
 605 98 497 -15 345 -15 c 0
 193 -15 85 98 85 260 c 0
183 260 m 0
 183 160 240 79 345 79 c 0
 450 79 507 160 507 260 c 0
 507 359 450 441 345 441 c 0
 240 441 183 359 183 260 c 0
303 260 m 0
 303 228 319 206 345 206 c 0
 365 206 379 218 384 238 c 1
 456 217 l 1
 444 156 405 126 345 126 c 0
 269 126 228 189 228 260 c 0
 228 331 269 394 345 394 c 0
 405 394 444 364 456 303 c 1
 384 282 l 1
 379 301 365 312 345 312 c 0
 319 312 303 290 303 260 c 0
EndSplineSet
Fore
SplineSet
345.043945312 534.782226562 m 1
 531.995117188 458.080078125 l 1
 604.969726562 259.765625 l 1
 531.995117188 61.66015625 l 1
 345.043945312 -15.083984375 l 1
 158.165039062 61.6025390625 l 1
 85.201171875 259.765625 l 1
 158.133789062 458.012695312 l 1
 345.043945312 534.782226562 l 1
345.043945312 78.8701171875 m 1
 465.451171875 131.833984375 l 1
 507.017578125 259.765625 l 1
 465.388671875 387.463867188 l 1
 345.043945312 440.828125 l 1
 224.740234375 387.498046875 l 1
 183.15234375 259.765625 l 1
 224.740234375 131.833984375 l 1
 345.043945312 78.8701171875 l 1
345.043945312 205.91015625 m 1
 370.1875 214.45703125 l 1
 384.140625 238.01171875 l 1
 447.25 200.5 l 1
 418.559570312 148.518554688 l 1
 345.043945312 125.796875 l 1
 258.126953125 166.237304688 l 1
 228.168945312 259.765625 l 1
 258.126953125 353.377929688 l 1
 345.043945312 393.7265625 l 1
 418.590820312 371.12109375 l 1
 446.25 320.75 l 5
 384.140625 281.686523438 l 1
 370.1875 303.81640625 l 1
 345.043945312 311.654296875 l 1
 314.282226562 296.904296875 l 1
 303.028320312 259.715820312 l 1
 314.313476562 220.885742188 l 1
 345.043945312 205.91015625 l 1
EndSplineSet
Validated: 1
Colour: ffff00
EndChar

StartChar: registered
Encoding: 174 174 177
Width: 590
Flags: HMW
HStem: -15 94<292.5 397.5 292.5 421> 137 154<242 337 242 337 318 382 318 466> 441 94<292.5 397.5>
VStem: 85 98<210 309.5 210 341> 242 76<137 223 137 291 291 328> 370 78<304 317> 507 98<210 309.5>
LayerCount: 3
Back
SplineSet
80.3330078125 260 m 0
 80.3330078125 422 188.333007812 535 340.333007812 535 c 0
 492.333007812 535 600.333007812 422 600.333007812 260 c 0
 600.333007812 98 492.333007812 -15 340.333007812 -15 c 0
 188.333007812 -15 80.3330078125 98 80.3330078125 260 c 0
237.333007812 137 m 1
 237.333007812 397 l 1
 333.333007812 397 l 2
 385.333007812 397 443.333007812 380 443.333007812 321 c 0
 443.333007812 281 416.333007812 259 382.333007812 254 c 1
 410.333007812 247 428.333007812 222 437.333007812 198 c 2
 461.333007812 137 l 1
 377.333007812 137 l 1
 364.333007812 181 l 2
 352.333007812 220 337.333007812 223 320.333007812 223 c 2
 313.333007812 223 l 1
 313.333007812 137 l 1
 237.333007812 137 l 1
313.333007812 328 m 1
 313.333007812 291 l 1
 332.333007812 291 l 2
 358.333007812 291 365.333007812 297 365.333007812 311 c 0
 365.333007812 323 355.333007812 328 331.333007812 328 c 2
 313.333007812 328 l 1
178.333007812 260 m 0
 178.333007812 160 235.333007812 79 340.333007812 79 c 0
 445.333007812 79 502.333007812 160 502.333007812 260 c 0
 502.333007812 359 445.333007812 441 340.333007812 441 c 0
 235.333007812 441 178.333007812 359 178.333007812 260 c 0
EndSplineSet
Fore
SplineSet
340.842773438 540.235351562 m 1
 531.534179688 461.999023438 l 1
 605.966796875 259.717773438 l 1
 531.534179688 57.650390625 l 1
 340.842773438 -20.62890625 l 1
 150.151367188 57.591796875 l 1
 75.71875 259.717773438 l 1
 150.151367188 461.9296875 l 1
 340.842773438 540.235351562 l 1
340.842773438 75.205078125 m 1
 463.625976562 129.227539062 l 1
 506.056640625 259.717773438 l 1
 463.5625 389.970703125 l 1
 340.842773438 444.401367188 l 1
 218.123046875 390.004882812 l 1
 175.62890625 259.717773438 l 1
 218.059570312 129.227539062 l 1
 340.842773438 75.205078125 l 1
335.3515625 222.041992188 m 2
 328.208007812 222.041992188 l 1
 328.208007812 134.543945312 l 1
 250.74609375 134.543945312 l 1
 250.74609375 399.58203125 l 1
 250.74609375 399.58203125 l 1
 299.6796875 399.58984375 l 1
 348.615234375 399.58984375 l 1
 424.588867188 383.421875 l 1
 460.770507812 322.04296875 l 1
 442.668945312 274.55078125 l 1
 398.61328125 253.594726562 l 1
 433.932617188 231.583984375 l 1
 454.6484375 196.629882812 l 1
 470.243164062 157.239257812 l 1
 393.426757812 134.551757812 l 1
 380.247070312 179.193359375 l 1
 359.6484375 215.578125 l 1
 335.3515625 222.041992188 l 2
346.744140625 329.110351562 m 2
 328.377929688 329.110351562 l 1
 328.29296875 291.44140625 l 1
 328.29296875 291.44140625 l 1
 347.764648438 291.432617188 l 1
 374.549804688 296.280273438 l 1
 381.436523438 311.69140625 l 1
 373.2734375 325.02734375 l 1
 346.744140625 329.110351562 l 2
EndSplineSet
Colour: ffff00
EndChar

StartChar: trademark
Encoding: 8482 8482 178
Width: 732
Flags: HMW
HStem: 432 21G<209 307 209 209 394 492 394 394 548 548 548 632 687 687 687 785> 626 94<169 247 151 586 345 432 345 345>
LayerCount: 3
Back
SplineSet
492 432 m 1
 394 432 l 1
 432 626 l 1
 345 626 l 1
 307 432 l 1
 209 432 l 1
 247 626 l 1
 151 626 l 1
 169 720 l 1
 586 720 l 1
 612 541 l 1
 709 720 l 1
 841 720 l 1
 785 432 l 1
 687 432 l 1
 718 591 l 1
 632 432 l 1
 548 432 l 1
 523 591 l 1
 492 432 l 1
EndSplineSet
Fore
SplineSet
395.732421875 441 m 1
 432.125 625.89453125 l 1
 345.09375 625.89453125 l 1
 305.330078125 423 l 1
 210.75 441 l 1
 246.975585938 625.89453125 l 1
 151.108398438 625.89453125 l 1
 151.198242188 720.015625 l 1
 586.096679688 720.015625 l 1
 612.10546875 541.12109375 l 1
 717.25 735.25 l 1
 832 673.5 l 1
 783.25 423 l 1
 688.586914062 441 l 1
 717.9765625 590.8828125 l 1
 627.029296875 423 l 1
 542.25 469 l 1
 522.990234375 590.8828125 l 1
 490.229492188 423 l 1
 395.732421875 441 l 1
EndSplineSet
Validated: 1
EndChar

StartChar: asterisk
Encoding: 42 42 179
Width: 399
Flags: HMW
HStem: 411 21G<342 342> 715 20G<239 361 361 361>
LayerCount: 3
Back
SplineSet
361 735 m 1
 342 635 l 1
 372 651 402 666 432 682 c 1
 444 643 457 605 469 566 c 1
 436 562 402 557 369 553 c 1
 393 530 417 506 441 483 c 1
 342 411 l 1
 299 503 l 1
 254 412 l 1
 155 484 l 1
 179 507 204 531 228 554 c 1
 195 559 163 563 130 568 c 1
 142 607 155 645 167 684 c 1
 196 668 226 652 255 636 c 1
 250 669 244 702 239 735 c 1
 361 735 l 1
EndSplineSet
Fore
SplineSet
362.23046875 738.240234375 m 5
 342.849609375 636.240234375 l 5
 434.650390625 684.1796875 l 5
 472.389648438 565.860351562 l 5
 370.389648438 552.599609375 l 5
 443.830078125 481.200195312 l 5
 342.849609375 407.759765625 l 5
 298.990234375 501.599609375 l 5
 253.08984375 408.780273438 l 5
 152.110351562 482.219726562 l 5
 226.5703125 553.620117188 l 5
 126.610351562 567.900390625 l 5
 164.349609375 686.219726562 l 5
 254.110351562 637.259765625 l 5
 237.790039062 738.240234375 l 5
 362.23046875 738.240234375 l 5
EndSplineSet
Validated: 1
Colour: ffff00
EndChar

StartChar: plusminus
Encoding: 177 177 180
Width: 596
Flags: HMW
HStem: 55 135<96 546 70 572> 385 135<161 304 134 331 466 610 161 439> 660 20G<362 497 497 497>
LayerCount: 3
Back
SplineSet
439 385 m 1
 414 254 l 1
 279 254 l 1
 304 385 l 1
 134 385 l 1
 161 520 l 1
 331 520 l 1
 362 680 l 1
 497 680 l 1
 466 520 l 1
 637 520 l 1
 610 385 l 1
 439 385 l 1
546 55 m 1
 70 55 l 1
 96 190 l 1
 572 190 l 1
 546 55 l 1
EndSplineSet
Fore
SplineSet
439 385 m 1
 409 229 l 1
 279 254 l 1
 304 385 l 1
 134 385 l 1
 134 520 l 1
 331 520 l 1
 367 705 l 1
 497 680 l 1
 466 520 l 1
 610 520 l 1
 610 385 l 1
 439 385 l 1
572.25 55 m 1
 70 55 l 1
 69.75 190 l 1
 572 190 l 1
 572.25 55 l 1
EndSplineSet
Validated: 1
Colour: ffff00
EndChar

StartChar: asciitilde
Encoding: 126 126 181
Width: 526
Flags: HMW
HStem: 242.701 142.8<401.865 433.995> 334.501 51 334.501 142.8<231.015 263.145>
LayerCount: 3
Back
SplineSet
81 265 m 1x40
 110 415 l 1
 156 455 209 475 257 475 c 0
 346 475 366 385 435 385 c 0x20
 493 385 538 415 584 455 c 1
 555 305 l 1
 509 265 456 245 408 245 c 0
 319 245 299 335 230 335 c 0x80
 172 335 127 305 81 265 c 1x40
EndSplineSet
Fore
SplineSet
8.6552734375 356.940429688 m 5
 179.814453125 461.926757812 l 5
 255.545898438 477.303710938 l 5
 353.967773438 431.39453125 l 5
 437.0859375 385.4765625 l 5
 517.651367188 405.853515625 l 5
 589.03515625 456.900390625 l 5
 655.844726562 363.315429688 l 5
 485.138671875 257.970703125 l 5
 409.450195312 242.620117188 l 5
 311.017578125 288.538085938 l 5
 227.826171875 334.456054688 l 5
 147.333984375 314.078125 l 5
 75.9619140625 263.032226562 l 5
 8.6552734375 356.940429688 l 5
EndSplineSet
Validated: 1
Colour: ffff00
EndChar

StartChar: grave
Encoding: 96 96 182
Width: 324
Flags: HMW
HStem: 533 187<243 298 120 374 243 243>
LayerCount: 3
Back
SplineSet
298 720 m 1
 374 533 l 1
 243 533 l 1
 120 720 l 1
 298 720 l 1
EndSplineSet
Fore
SplineSet
258.25 806 m 5
 368.25 533 l 5
 276.75 495.75 l 5
 129.25 720 l 5
 258.25 806 l 5
EndSplineSet
Validated: 1
Colour: ffff00
EndChar

StartChar: percent
Encoding: 65537 -1 183
Width: 822
Flags: HMWO
HStem: -5 105<644 666 644 678> 0 21G<148 287 287 287> 220 105<667 689> 395 105<272 294 272 305> 620 105<295 317> 700 20G<673 813 673 673>
LayerCount: 3
Back
SplineSet
148 0 m 1x74
 287 0 l 1
 813 720 l 1
 673 720 l 1
 148 0 l 1x74
138 560 m 0
 158 663 240 725 326 725 c 0xb8
 412 725 470 663 450 560 c 0
 430 457 348 395 262 395 c 0
 176 395 118 457 138 560 c 0
245 560 m 0
 237 516 261 500 283 500 c 0
 305 500 335 516 343 560 c 0
 352 604 328 620 306 620 c 0
 284 620 254 604 245 560 c 0
511 160 m 0
 531 263 613 325 699 325 c 0
 785 325 843 263 823 160 c 0
 803 57 721 -5 635 -5 c 0
 549 -5 491 57 511 160 c 0
618 160 m 0
 609 116 633 100 655 100 c 0
 677 100 707 116 716 160 c 0
 724 204 700 220 678 220 c 0
 656 220 626 204 618 160 c 0
EndSplineSet
Fore
SplineSet
326.80078125 728.219726562 m 1
 430.538085938 683.526367188 l 1
 453.155273438 559.950195312 l 1
 382.540039062 436.459960938 l 1
 261.4140625 391.671875 l 1
 157.676757812 436.43359375 l 1
 135.05859375 559.950195312 l 1
 205.67578125 683.466796875 l 1
 326.80078125 728.219726562 l 1
276 -15 m 1
 185 51 l 1
 685 736 l 1
 776 669 l 1
 276 -15 l 1
282.924804688 498.893554688 m 1
 318.818359375 512.561523438 l 1
 344.0625 560.03515625 l 1
 336.994140625 607.399414062 l 1
 306.39453125 621.16796875 l 1
 270.416015625 607.500976562 l 1
 244.321289062 560.03515625 l 1
 252.078125 512.62890625 l 1
 282.924804688 498.893554688 l 1
699.59765625 328.333007812 m 1
 803.451171875 283.638671875 l 1
 826.122070312 160.0546875 l 1
 755.431640625 36.427734375 l 1
 634.294921875 -8.30859375 l 1
 530.525390625 36.4609375 l 1
 507.939453125 160.0546875 l 1
 578.609375 283.60546875 l 1
 699.59765625 328.333007812 l 1
654.787109375 98.8369140625 m 1
 690.872070312 112.588867188 l 1
 716.943359375 160.140625 l 1
 709.059570312 207.443359375 l 1
 678.086914062 221.272460938 l 1
 642.162109375 207.545898438 l 1
 616.94921875 160.140625 l 1
 624.067382812 112.6484375 l 1
 654.787109375 98.8369140625 l 1
EndSplineSet
Validated: 1
EndChar

StartChar: dagger
Encoding: 8224 8224 184
Width: 404
Flags: HMW
HStem: 250 21G<175 325 175 175> 485 125<124 245 148 221 395 468> 485 235<124 416 124 416 371 371 371 416 266 468>
LayerCount: 3
Back
SplineSet
124 485 m 1xc0
 148 610 l 1
 245 610 l 1xc0
 266 720 l 1
 416 720 l 1xa0
 395 610 l 1
 492 610 l 1
 468 485 l 1
 371 485 l 1
 325 250 l 1
 175 250 l 1
 221 485 l 1
 124 485 l 1xc0
EndSplineSet
Fore
SplineSet
124 485 m 1xc0
 124.5 610 l 1
 245 610 l 1xc0
 269 735 l 1
 413.5 707.5 l 1xa0
 395 610 l 1
 492.5 610 l 1
 492 485 l 1
 371 485 l 1
 325 250 l 1
 180.5 277.5 l 1
 221 485 l 1
 124 485 l 1xc0
EndSplineSet
Validated: 1
EndChar

StartChar: daggerdbl
Encoding: 8225 8225 185
Width: 384
Flags: HMW
HStem: 250 205<165 205 118 315 165 165> 330 125<118 181 94 205 355 418> 515 125<154 217 130 241 391 454> 515 205<130 406 130 406 367 367 367 406 256 454>
LayerCount: 3
Back
SplineSet
442 455 m 1xa0
 418 330 l 1
 331 330 l 1
 315 250 l 1
 165 250 l 1xa0
 181 330 l 1
 94 330 l 1x60
 118 455 l 1
 205 455 l 1
 217 515 l 1
 130 515 l 1
 154 640 l 1
 241 640 l 1xa0
 256 720 l 1
 406 720 l 1x90
 391 640 l 1
 478 640 l 1
 454 515 l 1
 367 515 l 1
 355 455 l 1
 442 455 l 1xa0
EndSplineSet
Fore
SplineSet
442 455 m 1xa0
 442.25 330 l 1
 331 330 l 1
 312.5 235 l 1
 167.5 262.75 l 1xa0
 181 330 l 1
 94 330 l 1x60
 93.75 455 l 1
 205 455 l 1
 217 515 l 1
 130 515 l 1
 129.75 640 l 1
 241 640 l 1xa0
 258.75 735 l 1
 403.75 707.75 l 1x90
 391 640 l 1
 478 640 l 1
 478.25 515 l 1
 367 515 l 1
 355 455 l 1
 442 455 l 1xa0
EndSplineSet
Validated: 1
EndChar

StartChar: bullet
Encoding: 8226 8226 186
Width: 388
Flags: HMW
HStem: 227 247<226.5 261.5>
VStem: 120 248<333.5 368>
LayerCount: 3
Back
SplineSet
120 351 m 0
 120 385 132 414 156 438 c 0
 180 462 209 474 244 474 c 0
 279 474 308 462 332 438 c 0
 356 414 368 385 368 351 c 0
 368 316 356 287 332 263 c 0
 308 239 279 227 244 227 c 0
 209 227 180 239 156 263 c 0
 132 287 120 316 120 351 c 0
EndSplineSet
Fore
SplineSet
207.264648438 477.288085938 m 5
 322.90234375 452.688476562 l 5
 370.319335938 384.548828125 l 5
 348.690429688 268.424804688 l 5
 280.467773438 224.774414062 l 5
 164.829101562 249.375 l 5
 117.412109375 317.513671875 l 5
 139.041015625 433.637695312 l 5
 207.264648438 477.288085938 l 5
EndSplineSet
Validated: 1
EndChar

StartChar: paragraph
Encoding: 182 182 187
Width: 636
Flags: HMW
HStem: -100 21G<191 271 191 191 360 360 360 523> 735 85<433 522 433 433 685 766 685 685>
LayerCount: 3
Back
SplineSet
271 -100 m 1
 191 -100 l 1
 291 416 l 1
 175 419 109 498 132 614 c 0
 159 753 269 820 403 820 c 2
 783 820 l 1
 766 735 l 1
 685 735 l 1
 523 -100 l 1
 360 -100 l 1
 522 735 l 1
 433 735 l 1
 271 -100 l 1
EndSplineSet
Fore
SplineSet
194 -85 m 1
 290.916992188 416.021484375 l 1
 151.787109375 472.62890625 l 1
 124.444335938 614.009765625 l 1
 219.86328125 769.149414062 l 1
 402.874023438 819.995117188 l 1
 765.92578125 819.995117188 l 1
 765.919921875 734.962890625 l 1
 684.974609375 734.962890625 l 1
 523 -100 l 1
 363.060546875 -85.1669921875 l 1
 522 734.962890625 l 1
 433.051757812 734.962890625 l 1
 271.077148438 -100 l 1
 194.041992188 -85.1669921875 l 1
 194 -85 l 1
EndSplineSet
Validated: 1
Colour: ffff00
EndChar

StartChar: afii61352
Encoding: 8470 8470 188
Width: 1104
Flags: HMW
HStem: 0 21G<70 226 70 70 537 537 537 699> 145 105<810 1102 790 1122> 145 150<932 1018 932 1102 790 1018> 400 120<984 1030> 700 20G<209 371 371 371 682 838 838 838>
LayerCount: 3
Back
SplineSet
851 460 m 0xd8
 871 563 953 625 1039 625 c 0
 1125 625 1183 563 1163 460 c 0
 1143 357 1061 295 975 295 c 0
 889 295 831 357 851 460 c 0xd8
958 460 m 0
 949 416 973 400 995 400 c 0
 1017 400 1047 416 1056 460 c 0
 1064 504 1041 520 1019 520 c 0
 997 520 966 504 958 460 c 0
1102 145 m 1
 790 145 l 1
 810 250 l 1
 1122 250 l 1
 1102 145 l 1
226 0 m 1
 70 0 l 1
 209 720 l 1
 371 720 l 1
 594 264 l 1
 682 720 l 1
 838 720 l 1
 699 0 l 1
 537 0 l 1
 314 456 l 1xb8
 226 0 l 1
EndSplineSet
Fore
SplineSet
790 145 m 1
 790.006835938 250.03515625 l 1
 1121.92382812 250.03515625 l 1
 1122 145 l 1
 790 145 l 1
1039.61816406 628.133789062 m 1
 1143.42871094 583.380859375 l 1
 1166.05761719 459.864257812 l 1
 1095.34375 336.33984375 l 1
 974.314453125 291.5859375 l 1
 870.56640625 336.280273438 l 1
 847.875 459.864257812 l 1
 918.555664062 583.346679688 l 1
 1039.61816406 628.133789062 l 1
994.806640625 398.72265625 m 1
 1030.84960938 412.390625 l 1
 1056.87890625 459.864257812 l 1
 1049.53515625 507.236328125 l 1
 1019.29589844 520.998046875 l 1
 982.721679688 507.330078125 l 1
 957.053710938 459.864257812 l 1
 964.069335938 412.4921875 l 1
 994.806640625 398.72265625 l 1
223.25 -14.75 m 1
 72.75 14 l 1
 210.75 734.75 l 1
 378 703.25 l 1
 592 259 l 1
 683.75 734.75 l 1
 834.25 706 l 1
 696.25 -14.75 l 1
 528.75 17.25 l 1
 313 461 l 1
 223.25 -14.75 l 1
EndSplineSet
Validated: 1
EndChar

StartChar: at
Encoding: 64 64 189
Width: 775
Flags: HMW
HStem: -110 110<320 410.5> 85 100<589.5 623.5 589.5 637> 335 100<429.5 465.5> 511 119<418 559.5>
LayerCount: 3
Back
SplineSet
622 426 m 1
 586 238 l 2
 585 232 573 185 606 185 c 0
 641 185 671 227 680 277 c 0
 710 429 632 511 487 511 c 0
 349 511 236 402 208 260 c 0
 180 118 243 0 397 0 c 0
 451 0 507 17 546 48 c 1
 606 -36 l 1
 544 -88 445 -110 376 -110 c 0
 156 -110 45 53 85 260 c 0
 125 467 300 630 510 630 c 0
 719 630 834 487 794 280 c 0
 772 169 686 85 588 85 c 0
 532 85 508 110 498 138 c 1
 486 125 l 2
 458 98 430 85 380 85 c 0
 299 85 252 156 272 260 c 0
 292 363 367 435 448 435 c 0
 483 435 511 422 526 401 c 1
 531 426 l 1
 622 426 l 1
492 260 m 0
 500 303 483 335 448 335 c 0
 411 335 384 303 376 260 c 0
 368 217 381 184 418 184 c 0
 456 184 484 217 492 260 c 0
EndSplineSet
Fore
SplineSet
585.9765625 208.276367188 m 5
 609.158203125 183.493164062 l 5
 656.828125 211.3125 l 5
 684.665039062 277.455078125 l 5
 653.182617188 454.893554688 l 5
 487.905273438 516.135742188 l 5
 303.624023438 442.381835938 l 5
 203.393554688 260.020507812 l 5
 230.168945312 73.2021484375 l 5
 396.15625 -5.017578125 l 5
 477.838867188 7.5615234375 l 5
 548.10546875 43.7919921875 l 5
 596.068359375 -49.060546875 l 5
 494.676757812 -99.498046875 l 5
 374.729492188 -117.341796875 l 5
 126.94140625 -7.83203125 l 5
 78.0595703125 260.020507812 l 5
 229.721679688 527.84765625 l 5
 511.543945312 637.390625 l 5
 751.583984375 538.095703125 l 5
 801.0703125 280.516601562 l 5
 725.033203125 138.706054688 l 5
 590.961914062 81.7158203125 l 5
 527.455078125 98.01953125 l 5
 499.21484375 135.8828125 l 5
 486.881835938 122.615234375 l 5
 441.23046875 91.87890625 l 5
 378.80859375 81.80078125 l 5
 285.137695312 131.349609375 l 5
 268.694335938 260.360351562 l 5
 335.103515625 388.997070312 l 5
 448.193359375 438.928710938 l 5
 495.608398438 429.616210938 l 5
 527.782226562 404.23828125 l 5
 532.969726562 429.828125 l 5
 622.588867188 412.744140625 l 5
 588.75 237.661132812 l 5
 585.9765625 208.276367188 l 5
448.109375 336.462890625 m 5
 400.248046875 314.70703125 l 5
 374.642578125 260.10546875 l 5
 378.887695312 204.993164062 l 5
 417.501953125 182.727539062 l 5
 466.735351562 204.993164062 l 5
 493.008789062 260.10546875 l 5
 487.013671875 314.70703125 l 5
 448.109375 336.462890625 l 5
EndSplineSet
Colour: ffff00
EndChar

